# https://github.com/mikedh/trimesh

o convex_tip.obj
v -0.01004533 0.00006813 0.00948642
v -0.01060041 0.00132080 0.00948592
v -0.01059240 0.00113106 0.00948642
v -0.00400000 0.01985716 -0.00951358
v -0.01057704 0.00101370 0.00948642
v -0.01045012 0.00059735 0.00948642
v -0.01033101 0.00038538 0.00948642
v 0.00400000 0.01985716 -0.00951358
v -0.01056459 0.00094650 0.00948642
v 0.00844343 0.01985716 -0.00816609
v 0.01065146 0.01985716 -0.00595859
v 0.01031022 0.01985716 -0.00643100
v -0.01027173 0.00030249 0.00948642
v 0.00891743 0.01985716 -0.00782380
v 0.00965678 0.01985716 -0.00717050
v 0.01200000 0.01985716 -0.00151358
v 0.00722654 0.01985716 -0.00883406
v 0.00556004 0.01985716 -0.00935999
v 0.01196150 0.01985716 -0.00229749
v 0.01200000 0.01985716 0.00610302
v 0.00534005 0.01985716 -0.00940054
v -0.01016358 0.00017639 0.00948642
v -0.01011197 0.00012579 0.00948642
v -0.01010118 0.00011589 0.00948642
v -0.01188318 0.02064157 0.00689180
v 0.01188697 0.01985716 -0.00285363
v 0.01184628 0.01985716 -0.00307433
v 0.01139105 0.01985716 -0.00457501
v 0.01132048 0.01985716 -0.00474011
v -0.00478392 0.01985716 -0.00947507
v -0.01188697 0.01985716 -0.00285363
v -0.01200000 0.01985716 -0.00151358
v -0.01065251 0.01985716 -0.00595701
v -0.01132048 0.01985716 -0.00474011
v -0.01184642 0.01985716 -0.00307362
v -0.00891743 0.01985716 -0.00782380
v -0.00965693 0.01985716 -0.00717036
v -0.01031022 0.01985716 -0.00643100
v -0.00706143 0.01985716 -0.00890463
v -0.00722654 0.01985716 -0.00883406
v -0.00844501 0.01985716 -0.00816503
v -0.00534005 0.01985716 -0.00940054
v -0.00556076 0.01985716 -0.00935985
v -0.00632227 0.01985716 -0.00916910
v -0.01196830 0.01985716 0.00646307
v -0.01196232 0.02013612 0.00649650
v -0.01200000 0.01985716 0.00610839
v -0.01178293 0.02142598 0.00731725
v 0.01097458 0.00022389 0.00894542
v 0.01187177 0.02068242 0.00692651
v 0.01196619 0.01985716 0.00646922
v -0.01123549 0.02259493 0.00864392
v -0.01149088 0.02213063 0.00815683
v 0.01199153 0.01985716 0.00628690
v 0.01196233 0.02008128 0.00649013
v 0.01175961 0.02150768 0.00737978
v 0.01133441 0.00012952 0.00845221
v -0.01199206 0.01985716 0.00628644
v 0.01150383 0.02211273 0.00811075
v 0.00954177 0.00003556 0.00960090
v 0.01119318 0.00065503 0.00869808
v 0.01128529 0.00038925 0.00854120
v 0.00965418 0.00010640 0.00962519
v 0.01004155 0.00009410 0.00949529
v 0.00992077 0.00003903 0.00950899
v 0.01032197 0.00001079 0.00936049
v 0.01015960 0.00015252 0.00947400
v 0.00926898 0.00014190 0.00976594
v 0.01094507 0.00070906 0.00904311
v 0.01077819 0.00014810 0.00911315
v 0.01055934 0.00007665 0.00925228
v 0.00758411 0.00011468 0.01009328
v -0.00730963 0.01735716 0.00253349
v 0.00917106 0.00005946 0.00970566
v 0.00903577 0.00014735 0.00983728
v 0.00877900 0.00014618 0.00990487
v 0.00693029 0.00010549 0.01012035
v -0.00974100 0.00016175 0.00963939
v -0.00872925 0.00008642 0.00984089
v -0.00817422 0.00007190 0.00993519
v -0.00920584 0.00008450 0.00972606
v -0.01001708 0.00008009 0.00949985
v -0.00989507 0.00012545 0.00956420
v -0.00756829 0.00005662 0.00999629
v -0.00693727 0.00017468 0.01022684
v -0.00955658 0.00018892 0.00972162
v -0.00900000 0.01735716 0.00298642
v -0.00854707 0.01735716 0.00467679
v -0.00812500 0.01735716 0.00450197
v -0.00730963 0.01735716 0.00343936
v -0.00945293 0.01735716 0.00467679
v -0.00900000 0.01735716 0.00473642
v -0.00748446 0.01735716 0.00211142
v -0.00776256 0.01735716 0.00422386
v -0.00748446 0.01735716 0.00386142
v -0.00725000 0.01735716 0.00298642
v 0.01069037 0.01735716 -0.00346651
v -0.00945293 0.01735716 0.00129605
v -0.00987500 0.01735716 0.00147088
v -0.00812500 0.01735716 0.00147088
v -0.00854707 0.01735716 0.00129605
v -0.01051554 0.01735716 0.00211142
v -0.01069037 0.01735716 0.00253349
v -0.00900000 0.01735716 0.00123642
v -0.01069037 0.01735716 0.00343936
v -0.01051554 0.01735716 0.00386142
v -0.01023744 0.01735716 0.00174899
v -0.01023744 0.01735716 0.00422386
v -0.00987500 0.01735716 0.00450197
v -0.01075000 0.01735716 0.00298642
v 0.00900000 0.01735716 -0.00301358
v 0.00945293 0.01735716 -0.00132321
v 0.00987500 0.01735716 -0.00149803
v 0.01069037 0.01735716 -0.00256064
v 0.00854707 0.01735716 -0.00132321
v 0.00900000 0.01735716 -0.00126358
v 0.01051554 0.01735716 -0.00388858
v 0.01023744 0.01735716 -0.00177614
v 0.01051554 0.01735716 -0.00213858
v 0.01075000 0.01735716 -0.00301358
v 0.00045293 0.01735716 0.00767679
v 0.00776256 0.01735716 -0.00177614
v 0.00725000 0.01735716 -0.00301358
v 0.00748446 0.01735716 -0.00213858
v 0.00748446 0.01735716 -0.00388858
v 0.00900000 0.01735716 -0.00476358
v 0.00812500 0.01735716 -0.00452912
v 0.00945293 0.01735716 -0.00470395
v -0.00748446 0.01735716 -0.00388858
v -0.00748446 0.01735716 -0.00213858
v -0.00945293 0.01735716 -0.00132321
v -0.00900000 0.01735716 -0.00301358
v -0.00812500 0.01735716 -0.00149803
v -0.00087500 0.01735716 0.00750197
v -0.00169037 0.01735716 0.00643936
v -0.00123744 0.01735716 0.00474899
v -0.00169037 0.01735716 0.00553349
v -0.00045293 0.01735716 0.00429605
v 0.00123744 0.01735716 0.00474899
v 0.00045293 0.01735716 0.00429605
v 0.00169037 0.01735716 0.00553349
v 0.00123744 0.01735716 0.00722386
v 0.00169037 0.01735716 0.00643936
v -0.00000000 0.01735716 0.00773642
v -0.00987500 0.01735716 -0.00149803
v -0.01069037 0.01735716 -0.00256064
v -0.01023744 0.01735716 -0.00425101
v -0.01069037 0.01735716 -0.00346651
v -0.00945293 0.01735716 -0.00470395
v -0.00776256 0.01735716 -0.00425101
v -0.00725000 0.01735716 -0.00301358
v -0.00123744 0.01735716 -0.00725101
v -0.00169037 0.01735716 -0.00646651
v -0.00000000 0.01735716 -0.00776358
v -0.00045293 0.01735716 -0.00770395
v 0.00776256 0.01735716 0.00422386
v 0.00725000 0.01735716 0.00298642
v 0.00748446 0.01735716 0.00386142
v 0.00748446 0.01735716 0.00211142
v 0.00900000 0.01735716 0.00123642
v 0.00812500 0.01735716 0.00147088
v 0.00987500 0.01735716 0.00147088
v 0.01075000 0.01735716 0.00298642
v 0.01051554 0.01735716 0.00211142
v 0.01051554 0.01735716 0.00386142
v 0.00854707 0.01735716 0.00467679
v 0.00900000 0.01735716 0.00298642
v 0.00987500 0.01735716 0.00450197
v -0.00000000 0.01735716 -0.00426358
v 0.00087500 0.01735716 -0.00449803
v -0.00087500 0.01735716 -0.00449803
v -0.00169037 0.01735716 -0.00556064
v 0.01132288 0.00000053 -0.00473363
v 0.01131569 0.00000054 -0.00474885
v 0.01031022 0.00000133 -0.00643100
v 0.00892280 0.00000242 -0.00781905
v 0.00891399 0.00000243 -0.00782628
v 0.00722654 0.00000376 -0.00883406
v 0.00534086 0.00000524 -0.00940039
v 0.01199973 0.00000000 -0.00151917
v 0.01200000 0.00000000 -0.00151358
v -0.01038144 0.00001761 0.00948642
v -0.01029141 0.00001754 0.00948642
v -0.01017895 0.00001745 0.00948642
v -0.01059715 0.00001778 0.00948642
v -0.01051934 0.00001772 0.00948642
v -0.01058369 0.00001777 0.00948642
v -0.00393785 0.00001254 -0.00951358
v 0.00123744 0.01735716 -0.00725101
v 0.00175000 0.01735716 -0.00601358
v 0.00151554 0.01735716 -0.00688858
v 0.00151554 0.01735716 -0.00513858
v -0.00723616 0.00001513 -0.00882877
v -0.00891743 0.00001646 -0.00782380
v -0.01030498 0.00001755 -0.00643693
v -0.01031297 0.00001755 -0.00642720
v -0.01132048 0.00001835 -0.00474011
v -0.01188680 0.00001879 -0.00285452
v -0.00400609 0.00001259 -0.00951328
v 0.01188682 0.00000009 -0.00285441
v 0.01006044 0.00000153 0.00945707
v 0.00992744 0.00000163 0.00949358
v 0.00972186 0.00000179 0.00954049
v 0.01175797 0.00000019 0.00738448
v 0.01141397 0.00000046 0.00829084
v 0.01134217 0.00000052 0.00843744
v 0.01199997 0.00000000 0.00610368
v 0.01176038 0.00000019 0.00737667
v 0.01176109 0.00000019 0.00737327
v -0.01086631 0.00001799 0.00917643
v -0.01149177 0.00001848 0.00814773
v -0.01083476 0.00001796 0.00921381
v -0.01178371 0.00001871 0.00731394
v -0.01199997 0.00001888 0.00610911
v -0.00534091 0.00001364 -0.00940038
v -0.00721940 0.00001512 -0.00883670
v -0.00911716 0.00001661 0.00966674
v -0.00931781 0.00001677 0.00962378
v -0.00950707 0.00001692 0.00958597
v -0.00968553 0.00001706 0.00954741
v -0.00986471 0.00001720 0.00950545
v -0.00729013 0.00001518 0.00992530
v -0.00990009 0.00001723 0.00949651
v -0.00836428 0.00001602 0.00978866
v -0.00786730 0.00001563 0.00986376
v 0.00948324 0.00000198 0.00958484
v 0.01089077 0.00000087 0.00900561
v 0.01072858 0.00000100 0.00913599
v 0.01050788 0.00000117 0.00927096
v 0.01122892 0.00000061 0.00862168
v 0.00811826 0.00000305 0.00981487
v 0.00906767 0.00000231 0.00966080
v 0.00909551 0.00000228 0.00965485
v 0.00863900 0.00000264 0.00973208
v 0.00842715 0.00000281 0.00976317
v 0.00798121 0.00000316 0.00983768
v 0.01111672 0.00000069 0.00876647
v 0.01028191 0.00000135 0.00937259
v -0.00945293 0.00001688 0.00129605
v -0.00939270 0.00001683 0.00128812
v -0.01027443 0.00001752 0.00417565
v -0.01053880 0.00001773 0.00380528
v -0.01069830 0.00001786 0.00337910
v -0.01074207 0.00001789 0.00292617
v -0.01066711 0.00001783 0.00247734
v -0.01047855 0.00001768 0.00206321
v -0.00987500 0.00001721 0.00147088
v 0.00818084 0.00000300 -0.00455225
v 0.00900000 0.00000236 -0.00476358
v -0.00893978 0.00001647 0.00124435
v -0.00849095 0.00001612 0.00131930
v -0.00807682 0.00001580 0.00150785
v -0.00772560 0.00001552 0.00179716
v -0.00746122 0.00001531 0.00216752
v -0.00730171 0.00001519 0.00259369
v -0.00725792 0.00001515 0.00304662
v -0.00733287 0.00001521 0.00349545
v -0.00752142 0.00001536 0.00390960
v -0.00781074 0.00001559 0.00426083
v -0.00818111 0.00001588 0.00452521
v -0.00860729 0.00001621 0.00468472
v -0.00906023 0.00001657 0.00472849
v -0.00950906 0.00001692 0.00465354
v -0.00992321 0.00001725 0.00446498
v 0.00087500 0.00000875 -0.00752912
v 0.00000000 0.00000944 -0.00001358
v 0.00169827 0.00000810 -0.00640647
v -0.00169037 0.00001077 -0.00646651
v -0.00006007 0.00000949 -0.00427148
v 0.00050890 0.00000904 -0.00768076
v 0.01069037 0.00000103 0.00253349
v 0.00045293 0.00000908 -0.00770395
v 0.00006006 0.00000939 -0.00775567
v 0.00987500 0.00000167 0.00147088
v 0.00081904 0.00000880 0.00752515
v 0.00087500 0.00000875 0.00750197
v 0.01051554 0.00000117 -0.00213858
v 0.01066726 0.00000105 -0.00250485
v 0.01069037 0.00000103 -0.00256064
v -0.00153874 0.00001065 0.00680543
v -0.00045293 0.00000980 0.00429605
v -0.00081901 0.00001009 0.00444769
v 0.00123744 0.00000847 0.00722386
v 0.00166720 0.00000813 0.00649530
v 0.00169037 0.00000811 0.00643936
v -0.00092308 0.00001017 0.00746508
v 0.00039288 0.00000913 0.00768470
v 0.00045293 0.00000908 0.00767679
v -0.00045293 0.00000980 0.00767679
v -0.00169828 0.00001078 0.00637926
v -0.00169037 0.00001077 0.00643936
v -0.00087500 0.00001013 0.00447088
v 0.00987500 0.00000167 -0.00149803
v 0.01018952 0.00000142 -0.00173937
v 0.00174210 0.00000807 0.00604646
v 0.00118939 0.00000850 0.00726073
v 0.00725000 0.00000374 0.00298642
v 0.00725789 0.00000373 0.00292649
v -0.00950906 0.00001692 -0.00134646
v -0.00945293 0.00001688 -0.00132321
v 0.00772577 0.00000336 0.00417591
v 0.00127430 0.00000844 0.00479703
v 0.00725789 0.00000373 -0.00307351
v 0.00725000 0.00000374 -0.00301358
v 0.00730963 0.00000369 -0.00256064
v -0.00725792 0.00001515 -0.00295338
v -0.00725000 0.00001514 -0.00301358
v -0.00818111 0.00001588 -0.00147479
v 0.00807705 0.00000309 0.00446518
v 0.00776256 0.00000333 0.00422386
v 0.00123744 0.00000847 0.00474899
v -0.00733287 0.00001521 -0.00250455
v 0.00151554 0.00000825 0.00511142
v 0.00153872 0.00000823 0.00516737
v 0.01074212 0.00000099 -0.00295370
v 0.01075000 0.00000098 -0.00301358
v 0.00169037 0.00000811 0.00553349
v 0.00169827 0.00000810 0.00559353
v 0.01023744 0.00000139 -0.00425101
v 0.00992292 0.00000163 -0.00449235
v 0.00175000 0.00000806 0.00598642
v 0.00945293 0.00000200 -0.00470395
v -0.00151554 0.00001063 0.00686142
v -0.00127433 0.00001044 0.00717578
v 0.00981919 0.00000172 0.00452509
v 0.00123744 0.00000847 -0.00477614
v 0.00092305 0.00000871 -0.00749225
v 0.00123744 0.00000847 -0.00725101
v 0.00127430 0.00000844 -0.00720297
v 0.00151554 0.00000825 -0.00688858
v 0.00153872 0.00000823 -0.00683263
v 0.00169037 0.00000811 -0.00646651
v 0.00175000 0.00000806 -0.00601358
v 0.00174210 0.00000807 -0.00595354
v 0.00169037 0.00000811 -0.00556064
v 0.00166720 0.00000813 -0.00550470
v 0.00151554 0.00000825 -0.00513858
v 0.00147868 0.00000828 -0.00509053
v 0.01023744 0.00000139 0.00174899
v 0.01027421 0.00000136 0.00179690
v 0.00992292 0.00000163 0.00150765
v 0.00939304 0.00000205 0.00468468
v -0.01053880 0.00001773 -0.00219472
v -0.00807682 0.00001580 -0.00449215
v 0.00733276 0.00000367 0.00247764
v 0.00752125 0.00000352 0.00206347
v -0.00987500 0.00001721 -0.00452912
v -0.01023744 0.00001749 -0.00425101
v -0.01051554 0.00001771 -0.00388858
v -0.01069037 0.00001785 -0.00346651
v -0.00849095 0.00001612 -0.00468070
v -0.00893978 0.00001647 -0.00475565
v 0.00900000 0.00000236 0.00123642
v 0.00818084 0.00000300 0.00144775
v 0.00781052 0.00000330 0.00171219
v 0.01053866 0.00000115 0.00216722
v 0.00849124 0.00000276 0.00465367
v 0.00894009 0.00000241 0.00472854
v -0.01075000 0.00001790 -0.00301358
v -0.01069037 0.00001785 -0.00256064
v -0.00987500 0.00001721 -0.00149803
v -0.00981887 0.00001717 -0.00455237
v 0.00045293 0.00000908 -0.00432321
v 0.01075000 0.00000098 0.00298642
v -0.00045293 0.00000980 -0.00432321
v 0.00039288 0.00000913 -0.00431530
v -0.00050891 0.00000984 -0.00434639
v -0.00151554 0.00001063 -0.00513858
v -0.00127433 0.00001044 -0.00482422
v -0.00123744 0.00001041 -0.00477614
v -0.00092308 0.00001017 -0.00453492
v -0.00087500 0.00001013 -0.00449803
v 0.00087500 0.00000875 -0.00449803
v 0.00118939 0.00000850 -0.00473927
v -0.00169037 0.00001077 -0.00556064
v -0.00153874 0.00001065 -0.00519457
v 0.00081904 0.00000880 -0.00447485
v -0.00000000 0.00000944 -0.00426358
v -0.00147865 0.00001060 -0.00693666
v -0.00123744 0.00001041 -0.00725101
v -0.00166717 0.00001075 -0.00652251
v -0.00118936 0.00001038 -0.00728791
v -0.00039286 0.00000975 -0.00771186
v -0.00000000 0.00000944 -0.00776358
v -0.00045293 0.00000980 -0.00770395
v -0.00081901 0.00001009 -0.00755231
v -0.00087500 0.00001013 -0.00752912
v -0.00175000 0.00001082 -0.00601358
v -0.00169828 0.00001078 -0.00562074
v 0.00945293 0.00000200 0.00129605
v 0.00905990 0.00000231 0.00124431
v -0.00174209 0.00001081 -0.00607367
v -0.00151554 0.00001063 -0.00688858
v 0.00987500 0.00000167 0.00450197
v 0.00200000 0.02985716 0.00048642
v -0.00200000 0.02985716 0.00048642
v 0.00200000 0.02985716 0.00908454
v -0.00200000 0.02985716 0.00908454
v -0.00834337 0.02758643 -0.00078225
v -0.00944570 0.02653262 -0.00100272
v -0.00934014 0.02664798 0.00893543
v -0.00989309 0.02599597 0.00875064
v -0.00973045 0.02620121 -0.00105967
v -0.00988741 0.02600515 -0.00109106
v -0.01052839 0.02507747 0.00841922
v -0.01031504 0.02541306 -0.00117658
v -0.01115537 0.02387820 0.00790284
v -0.01170849 0.02225459 -0.00145527
v -0.01180584 0.02181818 0.00682416
v -0.01156943 0.02276000 -0.00142746
v -0.01149658 0.02298693 0.00747580
v -0.01123877 0.02368391 -0.00136133
v -0.01136019 0.02337429 0.00766599
v -0.01115019 0.02389118 -0.00134361
v -0.01084347 0.02452567 -0.00128227
v -0.01195184 0.02083737 -0.00150394
v -0.01199378 0.02020467 0.00613622
v -0.01195481 0.02080559 0.00629897
v -0.00814557 0.02774462 -0.00074269
v -0.00817159 0.02772555 0.00908454
v -0.00782594 0.02798372 -0.00067876
v -0.00755534 0.02817129 -0.00062464
v -0.00639016 0.02884195 0.00908454
v -0.00603259 0.02900816 -0.00032009
v -0.00603317 0.02900776 0.00908454
v -0.00582727 0.02909578 -0.00027903
v -0.00563557 0.02917272 -0.00024069
v -0.00409070 0.02963617 0.00908454
v -0.00395098 0.02966399 0.00009623
v -0.00321847 0.02978199 0.00024273
v 0.00354611 0.02620126 -0.00724411
v 0.00357749 0.02600517 -0.00740103
v -0.00357755 0.02600471 -0.00740132
v 0.00399035 0.02083732 -0.00946531
v -0.00395969 0.02185544 -0.00931201
v -0.00366301 0.02541306 -0.00782861
v 0.00366299 0.02541306 -0.00782851
v -0.00380365 0.02417820 -0.00853184
v 0.00376871 0.02452503 -0.00835713
v -0.00383007 0.02389082 -0.00866393
v 0.00383001 0.02389113 -0.00866365
v -0.00384775 0.02368391 -0.00875234
v 0.00391388 0.02275994 -0.00908298
v 0.00394180 0.02225186 -0.00922257
v -0.00353875 0.02624565 -0.00720730
v -0.00341417 0.02692775 -0.00658444
v 0.00348954 0.02653059 -0.00696129
v -0.00336991 0.02714200 -0.00636314
v -0.00326867 0.02758643 -0.00585694
v 0.00322913 0.02774471 -0.00565921
v -0.00322902 0.02774497 -0.00565869
v 0.00316384 0.02798866 -0.00533277
v 0.00311108 0.02817133 -0.00506897
v -0.00296503 0.02861604 -0.00433870
v 0.00280651 0.02900814 -0.00354614
v -0.00280645 0.02900832 -0.00354580
v 0.00276544 0.02909577 -0.00334076
v -0.00276545 0.02909578 -0.00334084
v 0.00272579 0.02917525 -0.00314255
v -0.00249517 0.02954485 -0.00198941
v 0.00239019 0.02966399 -0.00146450
v -0.00239020 0.02966399 -0.00146455
v 0.00233487 0.02971506 -0.00118794
v 0.00224220 0.02978291 -0.00072456
v 0.01185790 0.02153827 0.00663288
v 0.01179801 0.02185646 -0.00147318
v 0.01178486 0.02192031 0.00686168
v 0.01123870 0.02368388 -0.00136132
v 0.01118372 0.02380973 0.00786358
v 0.01115023 0.02389077 -0.00134362
v 0.01101639 0.02418165 -0.00131685
v 0.01099477 0.02422332 0.00805265
v 0.01031493 0.02541306 -0.00117656
v 0.01058503 0.02498253 0.00837662
v 0.00988779 0.02600474 -0.00109113
v 0.00969307 0.02624659 -0.00105219
v 0.00988777 0.02600002 0.00875051
v 0.01003059 0.02581238 0.00868801
v 0.00907102 0.02692781 -0.00092778
v 0.00885001 0.02714180 -0.00088358
v 0.00891817 0.02707612 0.00902458
v 0.00834350 0.02758649 -0.00078228
v 0.00816287 0.02773238 0.00908454
v 0.00367447 0.02971504 0.00015153
v 0.00408727 0.02963690 0.00908454
v 0.00395093 0.02966399 0.00009624
v 0.00603317 0.02900776 0.00908454
v 0.00447561 0.02954488 -0.00000870
v 0.00814517 0.02774507 -0.00074261
v 0.00682488 0.02861618 -0.00047855
v 0.00638336 0.02884528 0.00908454
v 0.00603222 0.02900829 -0.00032002
v 0.00582719 0.02909577 -0.00027901
v 0.01198520 0.02039686 0.00616578
v 0.01191420 0.02116515 0.00643932
v 0.01012373 0.02565244 -0.00172500
v 0.00726386 0.02555249 -0.00667355
v 0.00764869 0.02460139 -0.00716598
v 0.00644995 0.02441197 -0.00790702
v 0.00426631 0.02730680 -0.00610960
v 0.00475640 0.02586260 -0.00740755
v 0.00356656 0.02972193 -0.00029810
v 0.00511132 0.02930931 -0.00108035
v 0.00435363 0.02938094 -0.00186730
v 0.00278448 0.02972195 -0.00108024
v 0.00316693 0.02922022 -0.00298912
v 0.00400321 0.02790613 -0.00538458
v 0.00373092 0.02842435 -0.00461824
v 0.00317725 0.02974118 -0.00069086
v 0.00356664 0.02930938 -0.00262526
v 0.00434451 0.02860704 -0.00412683
v 0.00661259 0.02860685 -0.00185831
v 0.00803151 0.02758198 -0.00261782
v 0.00608578 0.02871750 -0.00245959
v 0.00738981 0.02774967 -0.00342707
v 0.00547516 0.02922013 -0.00068053
v 0.00710401 0.02842423 -0.00124454
v 0.00787022 0.02790599 -0.00151683
v 0.01058116 0.02113444 -0.00590232
v 0.00959169 0.02115532 -0.00710537
v 0.01131869 0.02107247 -0.00453126
v 0.01078378 0.02232299 -0.00509286
v 0.01046521 0.02346985 -0.00486826
v 0.01080798 0.02337601 -0.00421598
v 0.01112280 0.02225477 -0.00440947
v 0.00820430 0.02644356 -0.00483035
v 0.00921165 0.02464975 -0.00572008
v 0.00827611 0.02562079 -0.00578987
v 0.00872816 0.02466558 -0.00624188
v 0.00965175 0.02460160 -0.00516337
v 0.00860701 0.02639272 -0.00435113
v 0.01004557 0.02452182 -0.00457637
v 0.00897903 0.02630835 -0.00385224
v 0.01039077 0.02441141 -0.00396406
v 0.00931854 0.02619129 -0.00333692
v 0.01068501 0.02427140 -0.00333142
v 0.01160468 0.02206472 -0.00296956
v 0.01174236 0.02194435 -0.00222593
v 0.01158611 0.02102700 -0.00379974
v 0.01139729 0.02216844 -0.00369955
v 0.00884461 0.02712993 -0.00135475
v 0.00859509 0.02730667 -0.00177994
v 0.01111131 0.02390661 -0.00202507
v 0.00832366 0.02745752 -0.00220156
v 0.00962371 0.02604240 -0.00280844
v 0.00989272 0.02586250 -0.00227005
v 0.01092597 0.02410279 -0.00268343
v 0.00553306 0.02097237 -0.00929798
v 0.00701704 0.02107266 -0.00883609
v 0.00838716 0.02113436 -0.00809554
v 0.00533235 0.02311429 -0.00883071
v 0.00545588 0.02206476 -0.00911985
v 0.00670186 0.02337653 -0.00832456
v 0.00689533 0.02225517 -0.00863974
v 0.00797624 0.02353753 -0.00758070
v 0.00822831 0.02237222 -0.00789709
v 0.00911177 0.02359217 -0.00662544
v 0.00940629 0.02241199 -0.00691993
v 0.00961426 0.02357871 -0.00607856
v 0.00992253 0.02240220 -0.00635428
v 0.01006647 0.02353773 -0.00549105
v 0.01038283 0.02237238 -0.00574328
v 0.00497568 0.02502033 -0.00796288
v 0.00582291 0.02619178 -0.00683395
v 0.00547012 0.02693531 -0.00620995
v 0.00451820 0.02662569 -0.00678638
v 0.00510392 0.02758231 -0.00554621
v 0.00516977 0.02410285 -0.00844105
v 0.00615323 0.02535058 -0.00740488
v 0.00683681 0.02639254 -0.00612114
v 0.00591304 0.02774957 -0.00490380
v 0.00777303 0.02646033 -0.00528680
v 0.00667965 0.02780585 -0.00419342
v 0.00552829 0.02875450 -0.00304202
v 0.00494573 0.02871746 -0.00359964
v -0.00421134 0.02565300 -0.00763731
v -0.00278439 0.02972259 -0.00108004
v -0.00915923 0.02555636 -0.00477663
v -0.00965222 0.02460201 -0.00516210
v -0.01039332 0.02441247 -0.00396341
v -0.00989390 0.02586366 -0.00226980
v -0.01092745 0.02410315 -0.00268329
v -0.00356656 0.02931052 -0.00262474
v -0.00435344 0.02938259 -0.00186691
v -0.00547550 0.02922090 -0.00068039
v -0.00787108 0.02790555 -0.00151691
v -0.00859611 0.02730609 -0.00178004
v -0.00710470 0.02842427 -0.00124454
v -0.00317710 0.02974208 -0.00069065
v -0.00356656 0.02972261 -0.00029793
v -0.00511152 0.02931059 -0.00108001
v -0.00661336 0.02860692 -0.00185817
v -0.00434482 0.02860673 -0.00412624
v -0.00510457 0.02758077 -0.00554534
v -0.00494614 0.02871736 -0.00359948
v -0.00591395 0.02774816 -0.00490381
v -0.00316684 0.02922082 -0.00298870
v -0.00373100 0.02842413 -0.00461759
v -0.00400338 0.02790542 -0.00538383
v -0.00838837 0.02113549 -0.00809435
v -0.00959139 0.02115644 -0.00710485
v -0.00701740 0.02107332 -0.00883196
v -0.00757866 0.02232453 -0.00829669
v -0.00735465 0.02346909 -0.00797870
v -0.00670237 0.02337538 -0.00832148
v -0.00689537 0.02225613 -0.00863580
v -0.00731632 0.02644609 -0.00571744
v -0.00820629 0.02465040 -0.00672503
v -0.00827543 0.02562495 -0.00578883
v -0.00872809 0.02466624 -0.00624153
v -0.00764960 0.02460223 -0.00716516
v -0.00683712 0.02639511 -0.00612019
v -0.00706263 0.02452239 -0.00755903
v -0.00633827 0.02631053 -0.00649227
v -0.00645035 0.02441192 -0.00790428
v -0.00582301 0.02619318 -0.00683185
v -0.00581776 0.02427181 -0.00819858
v -0.00545571 0.02206557 -0.00911798
v -0.00471223 0.02194486 -0.00925587
v -0.00628594 0.02102770 -0.00909945
v -0.00618557 0.02216957 -0.00891042
v -0.00384123 0.02712952 -0.00635812
v -0.00426652 0.02730595 -0.00610870
v -0.00451148 0.02390679 -0.00862495
v -0.00468823 0.02745654 -0.00583738
v -0.00529460 0.02604391 -0.00713711
v -0.00475629 0.02586357 -0.00740620
v -0.00516980 0.02410310 -0.00843958
v -0.01178429 0.02097288 -0.00304648
v -0.01132224 0.02107351 -0.00453032
v -0.01058160 0.02113540 -0.00590035
v -0.01131708 0.02311396 -0.00284592
v -0.01160606 0.02206559 -0.00296918
v -0.01081089 0.02337588 -0.00421542
v -0.01112564 0.02225651 -0.00440836
v -0.01006703 0.02353668 -0.00548977
v -0.01038281 0.02237388 -0.00574118
v -0.00911179 0.02359125 -0.00662528
v -0.00940560 0.02241375 -0.00691910
v -0.00856492 0.02357781 -0.00712776
v -0.00883997 0.02240394 -0.00743535
v -0.00797743 0.02353688 -0.00757996
v -0.00822901 0.02237404 -0.00789568
v -0.01044917 0.02502208 -0.00248895
v -0.00932012 0.02619366 -0.00333614
v -0.00869651 0.02693500 -0.00298382
v -0.00927284 0.02662550 -0.00203183
v -0.00803293 0.02758111 -0.00261781
v -0.00989082 0.02535364 -0.00366620
v -0.00860717 0.02639494 -0.00434994
v -0.00739066 0.02774807 -0.00342705
v -0.00777277 0.02646291 -0.00528615
v -0.00668033 0.02780424 -0.00419371
v -0.00552859 0.02875435 -0.00304201
v -0.00608621 0.02871732 -0.00245943
v 0.01023744 0.00000139 0.00422386
v 0.00900000 0.00000236 0.00473642
v 0.00950875 0.00000196 0.00131917
v 0.01018952 0.00000142 0.00426063
v -0.01185927 0.02106391 0.00699885
v -0.01193608 0.02051170 0.00663538
v 0.01066726 0.00000105 0.00349515
v 0.01051554 0.00000117 0.00386142
v 0.01047878 0.00000120 0.00390934
v -0.01074397 0.02329911 0.00932799
v -0.01008755 0.00154377 0.00996514
v -0.01028980 0.02382029 0.00979605
v -0.01000793 0.02410288 0.01003256
v -0.00983641 0.00161298 0.01015801
v -0.00947524 0.00168309 0.01039275
v -0.00927895 0.00171085 0.01050219
v -0.00908753 0.00173288 0.01059808
v -0.00990186 0.02420279 0.01011281
v -0.00896980 0.00174446 0.01065209
v -0.00814143 0.00179675 0.01093582
v -0.00872980 0.02513360 0.01075291
v -0.00867966 0.00176797 0.01076992
v -0.00897617 0.02496007 0.01065107
v -0.00954295 0.02451875 0.01035370
v -0.00693727 0.00181637 0.01108454
v -0.00693727 0.02615187 0.01108454
v -0.00738153 0.00181428 0.01106426
v -0.00753089 0.02585527 0.01104929
v -0.00782267 0.00180677 0.01100425
v -0.00781994 0.02569752 0.01100618
v -0.00790788 0.02564766 0.01098960
v 0.01069825 0.00000102 0.00259337
v 0.01194360 0.02040270 0.00658752
v 0.01190222 0.02077885 0.00678853
v 0.01051554 0.00000117 0.00211142
v 0.00812500 0.00000305 0.00450197
v 0.01069037 0.00000103 0.00343936
v 0.01074212 0.00000099 0.00304630
v 0.01178633 0.02161265 0.00725343
v 0.01179949 0.02171689 0.00712437
v 0.01179461 0.02166490 0.00718918
v 0.01179820 0.02182980 0.00698040
v 0.01179900 0.02181968 0.00699348
v 0.00955890 0.02636135 0.00919539
v 0.00768793 0.02712548 0.01066209
v 0.00761528 0.02703264 0.01074726
v 0.00808279 0.02672759 0.01068159
v 0.00788219 0.02647302 0.01087217
v 0.00742741 0.02679258 0.01091466
v 0.00717068 0.02646451 0.01104613
v 0.00713676 0.02642117 0.01105628
v 0.00693029 0.02615734 0.01108454
v 0.00741996 0.02591554 0.01106138
v 0.00889393 0.02705469 0.00938609
v 0.00813913 0.02770205 0.00947513
v 0.00805817 0.02759860 0.00989117
v 0.01005050 0.02524820 0.00967765
v 0.01057436 0.02453904 0.00924366
v 0.01061678 0.02466778 0.00903914
v 0.01083306 0.02318841 0.00921240
v 0.01115274 0.02273237 0.00876618
v 0.01121872 0.02282911 0.00864885
v 0.01046542 0.02363349 0.00962340
v 0.01070617 0.02335009 0.00936472
v 0.01080630 0.02347237 0.00923261
v 0.01015984 0.02395745 0.00990468
v 0.01029731 0.02410826 0.00976772
v 0.01041318 0.02425699 0.00961032
v 0.01088943 0.02359353 0.00908845
v 0.01095480 0.02371220 0.00893362
v 0.01131452 0.02302021 0.00839602
v 0.01134363 0.02311309 0.00826194
v 0.01130428 0.02248443 0.00851232
v 0.00854707 0.00000272 0.00467679
v 0.01127277 0.02292530 0.00852522
v 0.01157096 0.02225949 0.00791966
v 0.01159354 0.02233218 0.00782037
v 0.01103708 0.02403981 0.00841940
v 0.00790252 0.02739970 0.01031389
v 0.00780191 0.02727113 0.01049866
v 0.00825353 0.02695389 0.01043551
v 0.00878925 0.02680824 0.01005120
v 0.00883161 0.02688510 0.00989430
v 0.00801696 0.02754593 0.01002844
v 0.00941976 0.02594829 0.01005312
v 0.00950560 0.02611338 0.00978945
v 0.00873632 0.02672195 0.01019942
v 0.00867312 0.02662678 0.01033769
v 0.00906149 0.02629105 0.01020884
v 0.00886328 0.02695209 0.00973017
v 0.00814545 0.02771013 0.00941955
v 0.00955208 0.02625205 0.00950078
v 0.01014007 0.02552542 0.00918987
v 0.01011208 0.02539555 0.00944213
v 0.00754092 0.02605810 0.01104006
v 0.00788658 0.02566148 0.01099462
v 0.00819331 0.02548061 0.01092561
v 0.00855203 0.02563708 0.01079275
v 0.00895674 0.02534256 0.01063684
v 0.00851875 0.02641360 0.01058120
v 0.00874764 0.02512215 0.01074649
v 0.00895079 0.02497932 0.01066199
v 0.00933357 0.02504101 0.01045215
v 0.00950731 0.02455050 0.01037257
v 0.00968254 0.02473387 0.01024297
v 0.00930460 0.02471362 0.01048838
v 0.00914053 0.02483967 0.01057323
v 0.00984720 0.02425604 0.01014856
v 0.01000368 0.02442256 0.01001363
v 0.00998231 0.02413062 0.01004804
v 0.00995670 0.02508637 0.00989199
v 0.01050601 0.02440135 0.00943484
v 0.01100163 0.02382702 0.00876952
v 0.01102917 0.02393661 0.00859755
v 0.01136268 0.02328991 0.00798216
v 0.00983319 0.02491371 0.01008160
v 0.00950153 0.02523788 0.01029261
v 0.00914122 0.02555739 0.01048158
v 0.00811941 0.02592313 0.01091553
v 0.00875163 0.02587074 0.01064410
v 0.00929694 0.02576114 0.01028542
v 0.00765887 0.02619929 0.01100089
v 0.00833216 0.02617645 0.01077577
v 0.00892314 0.02609093 0.01044769
v 0.01063259 0.02478563 0.00882416
v 0.01062193 0.02489104 0.00860216
v 0.00408137 0.02960927 0.00941955
v 0.00565353 0.02734876 0.01105628
v 0.00550669 0.02704765 0.01108454
v 0.00200000 0.02785716 0.01108454
v 0.00366981 0.02768095 0.01108454
v 0.00200000 0.02819217 0.01105628
v 0.00373974 0.02800859 0.01105628
v 0.00200000 0.02837480 0.01101639
v 0.00383818 0.02846982 0.01091466
v 0.00392641 0.02888323 0.01066209
v 0.00200000 0.02885716 0.01081659
v 0.00200000 0.02866380 0.01091466
v 0.00399909 0.02922376 0.01031389
v 0.00200000 0.02927138 0.01049875
v 0.00200000 0.02908652 0.01066209
v 0.00405181 0.02947076 0.00989117
v 0.00200000 0.02958921 0.01008454
v 0.00200000 0.02943472 0.01031389
v 0.00200000 0.02982890 0.00941955
v 0.00200000 0.02978901 0.00960218
v 0.00200000 0.02968728 0.00989117
v 0.00637097 0.02881988 0.00941955
v 0.00630889 0.02869258 0.00989117
v 0.00619818 0.02846558 0.01031389
v 0.00604556 0.02815261 0.01066209
v 0.00586026 0.02777267 0.01091466
v -0.00200000 0.02982890 0.00941955
v -0.00200000 0.02978901 0.00960218
v -0.00200000 0.02968728 0.00989117
v -0.00200000 0.02958921 0.01008454
v -0.00200000 0.02943472 0.01031389
v -0.00200000 0.02927138 0.01049875
v -0.00200000 0.02908652 0.01066209
v -0.00200000 0.02885716 0.01081659
v -0.00200000 0.02866380 0.01091466
v -0.00200000 0.02837480 0.01101639
v -0.00200000 0.02819217 0.01105628
v -0.00200000 0.02785716 0.01108454
v -0.00374260 0.02800798 0.01105628
v -0.00367256 0.02768037 0.01108454
v -0.00551213 0.02704499 0.01108454
v -0.00714403 0.02641547 0.01105628
v -0.00565921 0.02734600 0.01105628
v -0.00717800 0.02645878 0.01104613
v -0.00586625 0.02776974 0.01091466
v -0.00729543 0.02660849 0.01099849
v -0.00605184 0.02814955 0.01066209
v -0.00762322 0.02702641 0.01074726
v -0.00743509 0.02678656 0.01091466
v -0.00620470 0.02846240 0.01031389
v -0.00781012 0.02726470 0.01049866
v -0.00769598 0.02711917 0.01066209
v -0.00631558 0.02868932 0.00989117
v -0.00796321 0.02745987 0.01019655
v -0.00791087 0.02739315 0.01031389
v -0.00815415 0.02770331 0.00941955
v -0.00637776 0.02881656 0.00941955
v -0.00814782 0.02769524 0.00947513
v -0.00806675 0.02759188 0.00989117
v -0.00408479 0.02960854 0.00941955
v -0.00405518 0.02947005 0.00989117
v -0.00400238 0.02922306 0.01031389
v -0.00392958 0.02888256 0.01066209
v -0.00384120 0.02846918 0.01091466
v -0.01033240 0.02406522 0.00974067
v -0.01044667 0.02421198 0.00958351
v -0.01092320 0.02353799 0.00905259
v -0.00840162 0.02713081 0.01013809
v -0.00755501 0.02604836 0.01103830
v -0.00888681 0.02520873 0.01068345
v -0.00963277 0.02460963 0.01029230
v -0.01026717 0.02399096 0.00981198
v -0.00835309 0.02616026 0.01076858
v -0.00917158 0.02553057 0.01046505
v -0.00824976 0.02603570 0.01084606
v -0.00908318 0.02542511 0.01054865
v -0.00814061 0.02590810 0.01090921
v -0.00898809 0.02531761 0.01062164
v -0.00802640 0.02577843 0.01095730
v -0.00971677 0.02470009 0.01022272
v -0.00979464 0.02478970 0.01014540
v -0.00986608 0.02487801 0.01006078
v -0.00998842 0.02504896 0.00987134
v -0.00853934 0.02639640 0.01057362
v -0.00932632 0.02573268 0.01026843
v -0.00844987 0.02628081 0.01067753
v -0.00925279 0.02563332 0.01037145
v -0.00939165 0.02582800 0.01015659
v -0.00862075 0.02650607 0.01045760
v -0.01008128 0.02520938 0.00965786
v -0.00944829 0.02591860 0.01003653
v -0.00953352 0.02608299 0.00977414
v -0.00869335 0.02660884 0.01033021
v -0.00880919 0.02678988 0.01004431
v -0.00849363 0.02727567 0.00980383
v -0.01180711 0.02152558 0.00719670
v -0.01163381 0.02232187 0.00767476
v -0.01181901 0.02162455 0.00707382
v -0.01138867 0.02313019 0.00808654
v -0.01181860 0.02172229 0.00694938
v -0.01139166 0.02321528 0.00794801
v -0.01138213 0.02329681 0.00780751
v -0.01066300 0.02473500 0.00880342
v -0.01065254 0.02483990 0.00858375
v -0.00958643 0.02633146 0.00918473
v -0.01064740 0.02461809 0.00901629
v -0.01016992 0.02548513 0.00917361
v -0.01159810 0.02218229 0.00787039
v -0.01084192 0.02341908 0.00919602
v -0.01130466 0.02285879 0.00848147
v -0.01125249 0.02276509 0.00860379
v -0.00826784 0.02694212 0.01043299
v -0.01053820 0.02435452 0.00940887
v -0.01098709 0.02365455 0.00889905
v -0.01137306 0.02304201 0.00822215
v -0.01103287 0.02376748 0.00873674
v -0.01060557 0.02449063 0.00921903
v -0.01014222 0.02535575 0.00942384
v -0.00957969 0.02622160 0.00948753
v -0.00888301 0.02693371 0.00972432
v -0.00891352 0.02703668 0.00938158
v 0.00945293 0.00000200 0.00467679
v -0.00992321 0.00001725 -0.00153502
v 0.00947210 0.00168226 0.01039022
v 0.01003794 0.00155858 0.01000174
v 0.00867783 0.00176800 0.01076920
v 0.00894425 0.00174669 0.01066091
v 0.00779841 0.00180666 0.01100811
v 0.00823842 0.00179212 0.01091022
v 0.00693029 0.00181637 0.01108454
v 0.00708498 0.00181610 0.01108208
v 0.00925621 0.00171294 0.01051043
v -0.01023744 0.00001749 -0.00177614
v 0.01083468 0.00114769 0.00920811
v 0.01064515 0.00129150 0.00943150
v 0.01100470 0.00096863 0.00898320
v -0.01051554 0.00001771 -0.00213858
v 0.01058599 0.00103592 0.00947286
v 0.00748446 0.00000355 0.00386142
v -0.00812500 0.00001583 -0.00452912
v -0.00776256 0.00001555 -0.00425101
v 0.00087500 0.00000875 0.00447088
v -0.00781074 0.00001559 -0.00173917
v -0.00730963 0.00001519 -0.00256064
v -0.00776256 0.00001555 -0.00177614
v -0.00748446 0.00001533 -0.00213858
v 0.00045293 0.00000908 0.00429605
v 0.00050890 0.00000904 0.00431924
v -0.00772560 0.00001552 -0.00420284
v 0.00006006 0.00000939 0.00424433
v 0.00730963 0.00000369 0.00253349
v 0.00748446 0.00000355 0.00211142
v 0.00776256 0.00000333 0.00174899
v 0.00860698 0.00000267 0.00128817
v 0.00812500 0.00000305 0.00147088
v 0.00854707 0.00000272 0.00129605
v 0.00730174 0.00000370 0.00337942
v 0.00730963 0.00000369 0.00343936
v 0.00746132 0.00000357 0.00380558
v 0.00092305 0.00000871 0.00450775
v -0.00746122 0.00001531 -0.00383248
v -0.01069830 0.00001786 -0.00262090
v -0.00730963 0.00001519 -0.00346651
v -0.00854707 0.00001616 -0.00470395
v 0.00976453 0.00018235 0.00964243
v 0.00945844 0.00032660 0.00986573
v -0.00748446 0.00001533 -0.00388858
v -0.00900000 0.00001652 -0.00476358
v -0.00730171 0.00001519 -0.00340631
v -0.01074207 0.00001789 -0.00307383
v -0.01066711 0.00001783 -0.00352266
v 0.00987233 0.00026306 0.00965253
v 0.01007829 0.00043738 0.00965103
v 0.00963626 0.00053473 0.00993608
v 0.01026808 0.00062658 0.00962011
v 0.00979867 0.00076267 0.00997493
v 0.01043827 0.00082738 0.00956020
v 0.00994241 0.00100612 0.00998134
v 0.01006489 0.00125991 0.00995576
v 0.01078152 0.00055920 0.00919135
v 0.01059394 0.00041474 0.00931415
v 0.01038540 0.00027842 0.00940887
v -0.01047855 0.00001768 -0.00393679
v -0.01027443 0.00001752 -0.00182435
v -0.01018923 0.00001746 -0.00428800
v 0.00773566 0.00083834 0.01076529
v 0.00777249 0.00114528 0.01089805
v 0.00693029 0.00097654 0.01089966
v 0.00693029 0.00114491 0.01096845
v 0.00780067 0.00147106 0.01097860
v 0.00693029 0.00145346 0.01105134
v 0.00733276 0.00000367 -0.00352236
v -0.00900000 0.00001652 -0.00126358
v 0.00752125 0.00000352 -0.00393653
v -0.00854707 0.00001616 -0.00132321
v 0.00781052 0.00000330 -0.00428781
v 0.00764007 0.00031654 0.01035655
v 0.00693029 0.00020702 0.01027197
v 0.00769110 0.00055964 0.01058303
v 0.00693029 0.00055220 0.01063434
v 0.00693029 0.00083406 0.01082668
v -0.00812500 0.00001583 -0.00149803
v -0.00906023 0.00001657 -0.00127151
v -0.00752142 0.00001536 -0.00209040
v -0.00860729 0.00001621 -0.00131528
v 0.00893160 0.00034455 0.01007448
v 0.00831704 0.00033396 0.01024547
v 0.00907344 0.00057292 0.01021240
v 0.00841614 0.00057270 0.01043738
v 0.00920106 0.00082684 0.01031472
v 0.00850381 0.00084272 0.01058889
v 0.00931155 0.00110084 0.01037893
v 0.00857777 0.00113745 0.01069593
v 0.00940265 0.00138823 0.01040431
v 0.00863633 0.00144865 0.01075662
v -0.00945293 0.00001688 -0.00470395
v -0.00939270 0.00001683 -0.00471188
v 0.01047878 0.00000120 -0.00209066
v 0.00746132 0.00000357 -0.00219442
v 0.00730174 0.00000370 -0.00262058
v 0.00147868 0.00000828 0.00690947
v 0.00772577 0.00000336 -0.00182409
v -0.01054034 0.00096060 0.00950825
v -0.00000000 0.00000944 0.00423642
v -0.00821341 0.00134888 0.01086519
v -0.00779489 0.00135479 0.01095593
v -0.01010514 0.00135153 0.00994023
v -0.00900841 0.00131738 0.01058568
v -0.00937591 0.00128613 0.01040185
v -0.00861935 0.00133710 0.01074118
v -0.00736808 0.00135685 0.01101165
v -0.00693727 0.00135695 0.01103106
v -0.00693727 0.00145346 0.01105134
v 0.00730963 0.00000369 -0.00346651
v 0.00748446 0.00000355 -0.00213858
v 0.00151554 0.00000825 0.00686142
v 0.00812500 0.00000305 -0.00149803
v 0.00854707 0.00000272 -0.00132321
v 0.01069825 0.00000102 -0.00340663
v 0.01069037 0.00000103 -0.00346651
v 0.01053866 0.00000115 -0.00383278
v 0.01051554 0.00000117 -0.00388858
v 0.01027421 0.00000136 -0.00420310
v 0.00987500 0.00000167 -0.00452912
v -0.00000000 0.00000944 0.00773642
v -0.00006007 0.00000949 0.00772852
v -0.00123744 0.00001041 0.00722386
v -0.00050891 0.00000984 0.00765361
v -0.00039286 0.00000975 0.00428815
v -0.00151554 0.00001063 0.00511142
v -0.00989465 0.00027635 0.00965442
v 0.00894009 0.00000241 -0.00127146
v 0.00939304 0.00000205 -0.00131532
v 0.00981919 0.00000172 -0.00147491
v -0.00972377 0.00064763 0.00996107
v -0.00983471 0.00081450 0.00998038
v -0.01031170 0.00066930 0.00961063
v -0.01043168 0.00081292 0.00956644
v -0.00971673 0.00123790 0.01019446
v -0.01002634 0.00116834 0.00996977
v 0.00776256 0.00000333 -0.00177614
v 0.00807705 0.00000309 -0.00153482
v -0.00934375 0.00020699 0.00980702
v 0.00849124 0.00000276 -0.00134633
v -0.00884063 0.00021640 0.00997193
v -0.00947695 0.00034254 0.00987368
v -0.00904913 0.00052466 0.01018813
v -0.00914375 0.00069974 0.01027043
v -0.00846456 0.00070644 0.01052033
v -0.00839921 0.00052130 0.01040178
v -0.00832837 0.00035258 0.01026331
v -0.00993588 0.00098870 0.00998321
v -0.00954726 0.00085924 0.01016312
v -0.00923033 0.00088655 0.01033377
v -0.00888767 0.00090044 0.01048664
v -0.00760921 0.00018490 0.01019469
v -0.00764815 0.00033589 0.01037681
v -0.00693727 0.00032603 0.01041829
v -0.00693727 0.00020702 0.01027197
v 0.00776256 0.00000333 -0.00425101
v -0.00804799 0.00051463 0.01048124
v -0.00768457 0.00050756 0.01053996
v -0.00731299 0.00050195 0.01057634
v -0.00693727 0.00055220 0.01063434
v -0.00693727 0.00097654 0.01089966
v -0.00734463 0.00090194 0.01084629
v -0.00774766 0.00090468 0.01079870
v -0.00814204 0.00090672 0.01072165
v -0.00852348 0.00090601 0.01061700
v -0.01004194 0.00039982 0.00965477
v -0.00087500 0.00001013 0.00750197
v -0.00174209 0.00001081 0.00592633
v -0.00169037 0.00001077 0.00553349
v -0.00166717 0.00001075 0.00547749
v -0.00175000 0.00001082 0.00598642
v -0.00118936 0.00001038 0.00471209
v -0.00123744 0.00001041 0.00474899
v -0.00147865 0.00001060 0.00506334
v 0.00905990 0.00000231 -0.00475569
v 0.00950875 0.00000196 -0.00468083
v 0.00945293 0.00000200 -0.00132321
v 0.00900000 0.00000236 -0.00126358
v 0.00748446 0.00000355 -0.00388858
v 0.01023744 0.00000139 -0.00177614
v -0.00825304 0.00020216 0.01010706
v -0.00894768 0.00036301 0.01008815
v -0.00960407 0.00048985 0.00992529
v -0.01018141 0.00053116 0.00964021
v -0.00900000 0.00001652 0.00473642
v -0.00854707 0.00001616 0.00467679
v 0.00812500 0.00000305 -0.00452912
v -0.00812500 0.00001583 0.00450197
v -0.00776256 0.00001555 0.00422386
v -0.01023744 0.00001749 0.00422386
v -0.00987500 0.00001721 0.00450197
v -0.00945293 0.00001688 0.00467679
v -0.01075000 0.00001790 0.00298642
v -0.01069037 0.00001785 0.00343936
v -0.01051554 0.00001771 0.00386142
v -0.01023744 0.00001749 0.00174899
v -0.01051554 0.00001771 0.00211142
v -0.01069037 0.00001785 0.00253349
v 0.00860698 0.00000267 -0.00471183
v 0.00854707 0.00000272 -0.00470395
v -0.01018923 0.00001746 0.00171200
v -0.00776256 0.00001555 0.00174899
v -0.00812500 0.00001583 0.00147088
v -0.00854707 0.00001616 0.00129605
v -0.00725000 0.00001514 0.00298642
v -0.00730963 0.00001519 0.00253349
v -0.00748446 0.00001533 0.00211142
v -0.00748446 0.00001533 0.00386142
v -0.00730963 0.00001519 0.00343936
v 0.01060089 0.00000110 0.00921994
v 0.01080781 0.00000094 0.00907837
v -0.00981887 0.00001717 0.00144763
v 0.01102530 0.00000077 0.00887916
v -0.00813209 0.00001584 0.00983917
v 0.00887546 0.00000246 0.00969170
v 0.01127461 0.00000057 0.00854652
v 0.01032627 0.00000132 0.00935765
v 0.00833862 0.00000288 0.00978457
v 0.00867052 0.00000262 0.00972354
v 0.00933601 0.00000210 0.00961826
v 0.01116381 0.00000066 0.00871737
v 0.00710760 0.00000385 0.00990523
v 0.00693029 0.00000399 0.00991782
v 0.00407767 0.00000623 0.00991581
v -0.00900000 0.00001652 0.00123642
v 0.00978065 0.00000175 0.00952817
v -0.00961523 0.00001701 0.00956917
v -0.00945273 0.00001688 0.00960312
v -0.00923552 0.00001671 0.00964921
v -0.00693727 0.00001490 0.00993181
v -0.00755144 0.00001538 0.00991190
v -0.00976473 0.00001712 0.00953489
v -0.00865736 0.00001625 0.00975021
v -0.00883930 0.00001639 0.00970772
v -0.01200000 0.00001888 -0.00145194
v -0.01196764 0.00001886 0.00646641
v 0.01009274 0.00000150 0.00944578
v -0.01178293 0.00001871 0.00731725
v -0.01178081 0.00001871 0.00732334
v -0.00891367 0.00001645 -0.00782651
v -0.00722589 0.00001513 -0.00883434
v -0.00721338 0.00001512 -0.00883821
v -0.01131510 0.00001834 -0.00474992
v -0.01031022 0.00001755 -0.00643100
v -0.00892332 0.00001646 -0.00781859
v -0.01199909 0.00001888 -0.00152441
v -0.00533570 0.00001364 -0.00940113
v -0.01132472 0.00001835 -0.00472668
v 0.00983162 0.00000171 0.00951336
v 0.00998492 0.00000159 0.00947793
v -0.01200000 0.00001888 -0.00151358
v 0.01139457 0.00000048 0.00833203
v 0.01146167 0.00000042 0.00819800
v 0.00958802 0.00000190 0.00957007
v 0.01196628 0.00000003 0.00646857
v 0.01175961 0.00000019 0.00737978
v -0.01196839 0.00001886 0.00646236
v -0.01148996 0.00001848 0.00815119
v -0.01086372 0.00001799 0.00918020
v -0.01048268 0.00001769 0.00948642
v -0.01056872 0.00001776 0.00948642
v 0.01132425 0.00000053 -0.00472817
v -0.01060094 0.00001778 0.00948640
v -0.00997076 0.00001729 0.00948642
v 0.00087500 0.01735716 -0.00752912
v -0.00400000 0.00001259 -0.00951358
v 0.00400000 0.00000629 -0.00951358
v 0.00169037 0.01735716 -0.00556064
v 0.00123744 0.01735716 -0.00477614
v 0.00169037 0.01735716 -0.00646651
v -0.00045293 0.01735716 -0.00432321
v -0.00123744 0.01735716 -0.00477614
v 0.00045293 0.01735716 -0.00432321
v 0.01031268 0.00000133 -0.00642760
v 0.01132074 0.00000053 -0.00473952
v -0.00175000 0.01735716 -0.00601358
v 0.00723546 0.00000375 -0.00882916
v 0.00891743 0.00000243 -0.00782380
v 0.01030551 0.00000133 -0.00643634
v 0.00400999 0.00000629 -0.00951273
v 0.01188750 0.00000009 -0.00284965
v 0.00721432 0.00000376 -0.00883791
v -0.01030925 0.00001755 0.00948642
v 0.01200000 0.00000000 0.00604862
v 0.01069037 0.01735716 0.00343936
v 0.01023744 0.01735716 0.00422386
v -0.00151554 0.01735716 -0.00513858
v 0.01069037 0.01735716 0.00253349
v 0.00945293 0.01735716 0.00129605
v -0.01023744 0.01735716 -0.00177614
v 0.00945293 0.01735716 0.00467679
v 0.00900000 0.01735716 0.00473642
v -0.01051554 0.01735716 -0.00388858
v -0.01051554 0.01735716 -0.00213858
v -0.01075000 0.01735716 -0.00301358
v -0.00812500 0.01735716 -0.00452912
v -0.00987500 0.01735716 -0.00452912
v -0.00900000 0.01735716 -0.00476358
v 0.00045293 0.01735716 -0.00770395
v -0.00151554 0.01735716 -0.00688858
v -0.00854707 0.01735716 -0.00470395
v 0.00812500 0.01735716 0.00450197
v -0.00087500 0.01735716 -0.00752912
v -0.00000000 0.01735716 -0.00601358
v 0.00730963 0.01735716 0.00253349
v 0.00776256 0.01735716 0.00174899
v 0.00730963 0.01735716 0.00343936
v 0.01023744 0.01735716 0.00174899
v 0.00854707 0.01735716 0.00129605
v -0.00730963 0.01735716 -0.00256064
v -0.00776256 0.01735716 -0.00177614
v -0.00730963 0.01735716 -0.00346651
v 0.00987500 0.01735716 -0.00452912
v 0.01023744 0.01735716 -0.00425101
v -0.00123744 0.01735716 0.00722386
v -0.00854707 0.01735716 -0.00132321
v -0.00900000 0.01735716 -0.00126358
v -0.00151554 0.01735716 0.00511142
v -0.00151554 0.01735716 0.00686142
v -0.00175000 0.01735716 0.00598642
v 0.00087500 0.01735716 0.00447088
v -0.00087500 0.01735716 0.00447088
v -0.00000000 0.01735716 0.00423642
v 0.00151554 0.01735716 0.00686142
v 0.00151554 0.01735716 0.00511142
v 0.00175000 0.01735716 0.00598642
v 0.00087500 0.01735716 0.00750197
v -0.00000000 0.01735716 0.00598642
v -0.00045293 0.01735716 0.00767679
v 0.00776256 0.01735716 -0.00425101
v 0.00730963 0.01735716 -0.00256064
v 0.00812500 0.01735716 -0.00149803
v 0.00854707 0.01735716 -0.00470395
v 0.00730963 0.01735716 -0.00346651
v -0.00776256 0.01735716 0.00174899
v 0.00820927 0.00013168 0.01001905
v -0.01086848 0.02313771 0.00917589
v 0.01165552 0.01985716 -0.00383585
v -0.01050433 0.00073014 0.00948642
f 1204 384 273
f 1204 154 384
f 1204 273 272
f 1170 272 270
f 1170 1204 272
f 1170 270 265
f 395 396 397
f 396 398 397
f 399 400 401
f 400 402 401
f 400 403 402
f 403 404 402
f 402 404 405
f 404 406 405
f 405 406 407
f 408 409 410
f 409 411 410
f 410 411 412
f 411 413 412
f 412 413 414
f 413 407 414
f 414 407 415
f 407 406 415
f 189 265 327
f 189 1170 265
f 416 417 408
f 417 418 408
f 408 418 409
f 399 401 419
f 401 420 419
f 419 420 421
f 421 420 422
f 420 423 422
f 422 423 424
f 423 425 424
f 424 425 426
f 426 425 427
f 425 428 427
f 427 428 429
f 429 428 430
f 428 398 430
f 430 398 396
f 431 432 433
f 189 327 328
f 191 328 329
f 433 432 436
f 432 437 436
f 436 437 438
f 437 439 438
f 438 439 440
f 439 441 440
f 440 441 442
f 441 443 442
f 442 443 435
f 443 444 435
f 435 444 434
f 433 445 431
f 445 446 431
f 431 446 447
f 446 448 447
f 448 449 447
f 447 449 450
f 449 451 450
f 450 451 452
f 452 451 453
f 451 454 453
f 453 454 455
f 454 456 455
f 455 456 457
f 456 458 457
f 457 458 459
f 458 460 459
f 459 460 461
f 460 462 461
f 461 462 463
f 463 462 464
f 462 396 464
f 464 396 395
f 465 466 467
f 466 468 467
f 467 468 469
f 468 470 469
f 470 471 469
f 469 471 472
f 471 473 472
f 472 473 474
f 473 475 474
f 476 477 475
f 477 478 475
f 475 478 474
f 476 479 477
f 479 480 477
f 477 480 481
f 480 482 481
f 481 482 483
f 395 397 484
f 397 485 484
f 484 485 486
f 485 487 486
f 486 487 488
f 482 489 483
f 489 490 483
f 483 490 491
f 490 492 491
f 491 492 487
f 492 493 487
f 487 493 488
f 191 189 328
f 191 329 330
f 494 466 495
f 466 465 495
f 475 473 496
f 497 498 499
f 431 447 500
f 439 437 501
f 502 503 504
f 464 395 505
f 455 457 506
f 500 447 507
f 453 508 452
f 508 507 452
f 452 507 450
f 507 447 450
f 395 509 505
f 509 510 505
f 505 510 506
f 510 511 506
f 457 459 506
f 459 461 506
f 506 461 505
f 461 463 505
f 505 463 464
f 512 513 514
f 513 515 514
f 503 516 517
f 489 518 490
f 518 517 490
f 490 517 492
f 517 516 492
f 1175 330 331
f 1175 191 330
f 1175 331 332
f 522 523 524
f 524 525 522
f 525 521 522
f 522 521 519
f 190 332 267
f 190 1175 332
f 526 527 528
f 527 529 528
f 528 529 498
f 530 531 532
f 531 533 532
f 532 533 534
f 533 535 534
f 534 535 536
f 190 267 333
f 333 334 190
f 1173 190 334
f 1173 334 335
f 539 540 537
f 537 540 536
f 489 482 518
f 482 541 518
f 518 541 542
f 541 496 542
f 471 470 543
f 470 468 543
f 543 468 466
f 513 544 545
f 544 546 545
f 545 546 547
f 546 543 547
f 547 543 538
f 543 466 538
f 335 336 1173
f 192 1173 336
f 192 336 337
f 538 537 547
f 537 536 547
f 547 536 545
f 536 535 545
f 545 535 513
f 535 533 513
f 513 533 515
f 533 531 515
f 515 531 526
f 531 530 526
f 526 530 527
f 337 338 192
f 1174 192 338
f 1174 338 326
f 326 374 1174
f 170 1174 374
f 170 374 373
f 373 377 170
f 1178 170 377
f 1178 377 363
f 363 366 1178
f 169 1178 366
f 444 551 552
f 551 553 552
f 552 553 554
f 553 555 554
f 554 555 556
f 555 557 556
f 556 557 558
f 557 559 558
f 558 559 560
f 559 561 560
f 560 561 562
f 561 523 562
f 523 522 562
f 522 519 562
f 562 519 560
f 519 520 560
f 560 520 558
f 520 550 558
f 558 550 556
f 550 549 556
f 556 549 554
f 549 548 554
f 554 548 552
f 548 434 552
f 552 434 444
f 441 439 563
f 439 501 563
f 563 501 564
f 501 565 564
f 432 431 566
f 431 500 566
f 566 500 567
f 500 507 567
f 567 507 511
f 507 508 511
f 511 508 506
f 508 453 506
f 506 453 455
f 443 441 568
f 441 563 568
f 568 563 569
f 563 564 569
f 569 564 570
f 564 565 570
f 570 565 571
f 498 497 528
f 497 572 528
f 528 572 526
f 572 573 526
f 526 573 515
f 573 574 515
f 515 574 514
f 169 366 378
f 378 269 169
f 539 521 540
f 521 525 540
f 540 525 536
f 525 524 536
f 536 524 534
f 524 523 534
f 534 523 532
f 523 561 532
f 532 561 530
f 561 559 530
f 530 559 527
f 559 557 527
f 527 557 529
f 557 555 529
f 529 555 498
f 555 553 498
f 498 553 499
f 553 551 499
f 395 484 502
f 484 486 502
f 502 486 503
f 486 488 503
f 503 488 516
f 488 493 516
f 516 493 492
f 437 432 501
f 432 566 501
f 501 566 565
f 566 567 565
f 565 567 571
f 567 511 571
f 571 511 575
f 511 510 575
f 575 510 504
f 510 509 504
f 504 509 502
f 509 395 502
f 482 480 541
f 480 479 541
f 541 479 496
f 479 476 496
f 496 476 475
f 444 443 551
f 443 568 551
f 551 568 499
f 568 569 499
f 499 569 497
f 569 570 497
f 497 570 572
f 570 571 572
f 572 571 573
f 571 575 573
f 573 575 574
f 575 504 574
f 574 504 514
f 504 503 514
f 514 503 512
f 503 517 512
f 512 517 513
f 517 518 513
f 513 518 544
f 518 542 544
f 544 542 546
f 542 496 546
f 546 496 543
f 496 473 543
f 543 473 471
f 433 436 576
f 577 396 462
f 578 579 580
f 415 406 581
f 410 412 582
f 577 583 584
f 424 426 585
f 399 586 400
f 586 587 400
f 400 587 403
f 422 588 421
f 588 586 421
f 421 586 419
f 586 399 419
f 396 589 590
f 589 591 590
f 590 591 585
f 591 592 585
f 426 427 585
f 427 429 585
f 585 429 590
f 429 430 590
f 590 430 396
f 593 594 595
f 594 596 595
f 583 597 598
f 577 462 583
f 462 460 583
f 583 460 597
f 451 599 454
f 599 598 454
f 454 598 456
f 598 597 456
f 456 597 458
f 597 460 458
f 1176 169 269
f 1176 269 365
f 365 367 1176
f 603 604 605
f 605 606 603
f 606 602 603
f 603 602 600
f 171 1176 367
f 171 367 372
f 607 608 609
f 608 610 609
f 609 610 579
f 611 612 613
f 612 614 613
f 613 614 615
f 614 616 615
f 615 616 617
f 372 371 171
f 1177 171 371
f 1177 371 370
f 370 369 1177
f 620 621 618
f 618 621 617
f 451 449 599
f 449 622 599
f 599 622 623
f 622 576 623
f 438 440 624
f 440 442 624
f 624 442 435
f 594 625 626
f 625 627 626
f 626 627 628
f 627 624 628
f 628 624 619
f 624 435 619
f 1192 1177 369
f 1192 369 368
f 368 376 1192
f 619 618 628
f 618 617 628
f 628 617 626
f 617 616 626
f 626 616 594
f 616 614 594
f 594 614 596
f 614 612 596
f 596 612 607
f 612 611 607
f 607 611 608
f 172 1192 376
f 172 376 375
f 375 389 172
f 1181 172 389
f 1181 389 388
f 153 388 392
f 153 1181 388
f 153 392 268
f 1205 268 381
f 1205 153 268
f 1205 381 393
f 408 632 633
f 632 634 633
f 633 634 635
f 634 636 635
f 635 636 637
f 636 638 637
f 637 638 639
f 638 640 639
f 639 640 641
f 640 642 641
f 641 642 643
f 642 604 643
f 604 603 643
f 603 600 643
f 643 600 641
f 600 601 641
f 641 601 639
f 601 631 639
f 639 631 637
f 631 630 637
f 637 630 635
f 630 629 635
f 635 629 633
f 629 416 633
f 633 416 408
f 414 415 644
f 415 581 644
f 644 581 645
f 581 646 645
f 404 403 647
f 403 587 647
f 647 587 648
f 587 586 648
f 648 586 592
f 586 588 592
f 592 588 585
f 588 422 585
f 585 422 424
f 412 414 582
f 414 644 582
f 582 644 649
f 644 645 649
f 649 645 650
f 645 646 650
f 650 646 651
f 579 578 609
f 578 652 609
f 609 652 607
f 652 653 607
f 607 653 596
f 653 654 596
f 596 654 595
f 406 404 581
f 404 647 581
f 581 647 646
f 647 648 646
f 646 648 651
f 648 592 651
f 651 592 655
f 592 591 655
f 655 591 584
f 591 589 584
f 584 589 577
f 589 396 577
f 152 393 379
f 152 1205 393
f 620 602 621
f 602 606 621
f 621 606 617
f 606 605 617
f 617 605 615
f 605 604 615
f 615 604 613
f 604 642 613
f 613 642 611
f 642 640 611
f 611 640 608
f 640 638 608
f 608 638 610
f 638 636 610
f 610 636 579
f 636 634 579
f 579 634 580
f 634 632 580
f 449 448 622
f 448 446 622
f 622 446 576
f 446 445 576
f 576 445 433
f 408 410 632
f 410 582 632
f 632 582 580
f 582 649 580
f 580 649 578
f 649 650 578
f 578 650 652
f 650 651 652
f 652 651 653
f 651 655 653
f 653 655 654
f 655 584 654
f 654 584 595
f 584 583 595
f 595 583 593
f 583 598 593
f 593 598 594
f 598 599 594
f 594 599 625
f 599 623 625
f 625 623 627
f 623 576 627
f 627 576 624
f 576 436 624
f 624 436 438
f 152 379 380
f 1208 380 382
f 1208 152 380
f 1208 382 387
f 155 387 386
f 155 1208 387
f 155 386 385
f 154 385 383
f 154 155 385
f 154 383 384
f 1209 189 191
f 1170 189 1209
f 1204 1170 1209
f 1209 190 1173
f 1175 190 1209
f 191 1175 1209
f 665 666 667
f 667 666 668
f 666 669 668
f 668 669 670
f 670 671 668
f 671 672 668
f 668 672 673
f 672 674 673
f 675 676 677
f 676 678 677
f 677 678 674
f 678 679 674
f 674 679 673
f 680 681 682
f 681 683 682
f 682 683 684
f 683 685 684
f 684 685 675
f 685 686 675
f 675 686 676
f 1209 1174 170
f 192 1174 1209
f 1173 192 1209
f 1209 169 1176
f 1178 169 1209
f 170 1178 1209
f 1209 1177 1192
f 171 1177 1209
f 1176 171 1209
f 1209 1181 153
f 172 1181 1209
f 1192 172 1209
f 688 695 689
f 695 696 689
f 689 696 694
f 467 697 465
f 697 495 465
f 1209 152 1208
f 1205 152 1209
f 697 698 495
f 698 695 495
f 153 1205 1209
f 1209 154 1204
f 155 154 1209
f 478 477 699
f 700 701 702
f 703 704 705
f 706 707 708
f 709 710 711
f 712 713 714
f 715 716 717
f 718 719 720
f 721 718 722
f 718 720 722
f 722 720 723
f 720 724 723
f 723 724 725
f 724 726 725
f 725 726 727
f 716 728 717
f 1208 155 1209
f 1194 353 391
f 1194 160 353
f 730 731 732
f 695 732 696
f 732 731 696
f 696 731 694
f 1194 391 390
f 162 390 658
f 469 472 733
f 734 735 736
f 737 738 739
f 740 741 737
f 734 736 742
f 736 743 742
f 742 743 744
f 739 738 711
f 738 745 711
f 711 745 709
f 710 709 746
f 709 481 746
f 746 481 483
f 699 747 748
f 747 741 748
f 748 741 749
f 741 740 749
f 749 740 712
f 737 741 738
f 741 747 738
f 738 747 745
f 747 699 745
f 745 699 709
f 699 477 709
f 709 477 481
f 705 706 750
f 751 752 753
f 753 752 754
f 701 704 702
f 704 703 702
f 702 703 755
f 735 700 736
f 700 702 736
f 736 702 743
f 702 755 743
f 743 755 744
f 752 756 754
f 756 757 754
f 754 757 758
f 759 760 761
f 760 758 761
f 761 758 762
f 758 757 762
f 759 763 764
f 763 765 764
f 766 723 767
f 723 725 767
f 767 725 768
f 725 727 768
f 768 727 769
f 727 770 769
f 769 770 733
f 759 764 760
f 764 771 760
f 760 771 758
f 771 772 758
f 758 772 754
f 772 773 754
f 754 773 753
f 706 708 750
f 708 751 750
f 750 751 774
f 751 753 774
f 774 753 775
f 753 773 775
f 775 773 776
f 773 772 776
f 776 772 766
f 772 771 766
f 766 771 723
f 771 764 723
f 723 764 722
f 764 765 722
f 722 765 721
f 705 777 703
f 777 778 703
f 703 778 755
f 778 779 755
f 755 779 744
f 779 740 744
f 744 740 742
f 740 737 742
f 742 737 734
f 737 739 734
f 733 770 469
f 770 697 469
f 469 697 467
f 719 715 720
f 715 717 720
f 720 717 724
f 717 730 724
f 724 730 726
f 730 732 726
f 726 732 727
f 732 695 727
f 727 695 770
f 695 698 770
f 770 698 697
f 712 714 749
f 714 780 749
f 749 780 748
f 780 781 748
f 748 781 699
f 781 474 699
f 699 474 478
f 705 750 777
f 750 774 777
f 777 774 778
f 774 775 778
f 778 775 779
f 775 776 779
f 779 776 740
f 776 766 740
f 740 766 712
f 766 767 712
f 712 767 713
f 767 768 713
f 713 768 714
f 768 769 714
f 714 769 780
f 769 733 780
f 780 733 781
f 733 472 781
f 781 472 474
f 487 485 782
f 485 397 782
f 783 784 707
f 785 786 787
f 786 788 787
f 787 788 789
f 788 790 789
f 791 792 790
f 792 793 790
f 790 793 789
f 794 795 791
f 795 796 791
f 791 796 792
f 797 798 794
f 798 799 794
f 794 799 795
f 397 800 782
f 800 801 782
f 782 801 797
f 801 802 797
f 797 802 798
f 483 491 746
f 491 803 746
f 746 803 710
f 803 804 710
f 805 739 804
f 739 711 804
f 804 711 710
f 806 735 805
f 735 734 805
f 805 734 739
f 807 701 806
f 701 700 806
f 806 700 735
f 707 706 783
f 706 705 783
f 783 705 807
f 705 704 807
f 807 704 701
f 491 487 803
f 487 782 803
f 803 782 804
f 782 797 804
f 804 797 805
f 797 794 805
f 805 794 806
f 794 791 806
f 806 791 807
f 791 790 807
f 807 790 783
f 790 788 783
f 783 788 784
f 788 786 784
f 397 398 800
f 398 808 800
f 800 808 801
f 808 809 801
f 801 809 802
f 809 810 802
f 802 810 798
f 810 811 798
f 798 811 799
f 811 812 799
f 799 812 795
f 812 813 795
f 795 813 796
f 813 814 796
f 796 814 792
f 814 815 792
f 792 815 793
f 815 816 793
f 793 816 789
f 816 817 789
f 789 817 787
f 817 818 787
f 787 818 785
f 818 819 785
f 820 821 819
f 681 822 823
f 822 824 823
f 823 824 825
f 824 826 825
f 825 826 827
f 828 829 826
f 829 830 826
f 826 830 827
f 831 832 828
f 832 833 828
f 828 833 829
f 834 835 831
f 835 836 831
f 831 836 832
f 420 837 838
f 837 839 838
f 838 839 834
f 839 840 834
f 834 840 835
f 428 425 838
f 425 423 838
f 838 423 420
f 808 841 809
f 841 842 809
f 843 811 842
f 811 810 842
f 842 810 809
f 844 813 843
f 813 812 843
f 843 812 811
f 845 815 844
f 815 814 844
f 844 814 813
f 819 818 820
f 818 817 820
f 820 817 845
f 817 816 845
f 845 816 815
f 822 821 824
f 821 820 824
f 824 820 826
f 820 845 826
f 826 845 828
f 845 844 828
f 828 844 831
f 844 843 831
f 831 843 834
f 843 842 834
f 834 842 838
f 842 841 838
f 838 841 428
f 841 808 428
f 428 808 398
f 837 420 401
f 846 847 848
f 849 835 840
f 835 849 836
f 850 823 825
f 678 676 851
f 673 852 853
f 678 851 679
f 853 852 846
f 681 823 683
f 823 850 683
f 683 850 685
f 854 855 856
f 855 857 856
f 856 857 858
f 857 859 858
f 858 859 860
f 859 851 860
f 860 851 686
f 851 676 686
f 852 861 846
f 861 862 846
f 846 862 847
f 862 863 847
f 847 863 864
f 865 866 867
f 866 868 867
f 863 868 864
f 868 866 864
f 864 866 869
f 866 865 869
f 869 865 870
f 830 854 827
f 854 856 827
f 827 856 825
f 856 858 825
f 825 858 850
f 858 860 850
f 850 860 685
f 860 686 685
f 871 872 873
f 872 874 873
f 873 874 875
f 874 849 875
f 875 849 876
f 849 840 876
f 877 878 879
f 878 880 879
f 879 880 881
f 409 881 411
f 881 882 411
f 411 882 883
f 882 884 883
f 883 884 885
f 884 886 885
f 881 880 882
f 880 887 882
f 882 887 884
f 887 888 884
f 884 888 886
f 162 1194 390
f 162 658 274
f 1213 274 341
f 890 665 667
f 891 892 890
f 836 849 893
f 849 874 893
f 893 874 870
f 874 872 870
f 870 872 869
f 872 871 869
f 869 871 864
f 871 894 864
f 864 894 847
f 894 895 847
f 847 895 848
f 895 891 848
f 891 890 848
f 848 890 846
f 890 667 846
f 846 667 853
f 667 668 853
f 853 668 673
f 877 889 878
f 889 896 878
f 878 896 880
f 896 897 880
f 880 897 887
f 897 898 887
f 898 899 887
f 887 899 888
f 899 900 888
f 888 900 886
f 900 901 886
f 886 901 902
f 901 839 902
f 902 839 837
f 673 679 852
f 679 851 852
f 852 851 861
f 851 859 861
f 861 859 862
f 859 857 862
f 862 857 863
f 857 855 863
f 863 855 868
f 855 854 868
f 868 854 867
f 854 830 867
f 867 830 865
f 830 829 865
f 865 829 870
f 829 833 870
f 870 833 893
f 833 832 893
f 893 832 836
f 837 401 902
f 401 402 902
f 902 402 886
f 402 405 886
f 886 405 885
f 405 407 885
f 885 407 883
f 407 413 883
f 883 413 411
f 840 839 876
f 839 901 876
f 876 901 875
f 901 900 875
f 875 900 873
f 900 899 873
f 873 899 871
f 899 898 871
f 871 898 894
f 898 897 894
f 894 897 895
f 897 896 895
f 895 896 891
f 896 889 891
f 891 889 892
f 1213 162 274
f 1213 341 339
f 164 339 340
f 164 1213 339
f 164 340 690
f 1193 690 356
f 879 660 877
f 1193 164 690
f 1193 356 271
f 163 271 687
f 409 418 881
f 163 1193 271
f 163 687 364
f 364 693 163
f 879 661 660
f 1190 163 693
f 1190 693 692
f 692 662 1190
f 165 1190 662
f 905 906 765
f 907 908 757
f 756 909 757
f 909 910 757
f 757 910 907
f 707 911 708
f 911 912 708
f 708 912 751
f 912 909 751
f 751 909 752
f 909 756 752
f 905 765 913
f 759 761 908
f 761 762 908
f 908 762 757
f 913 765 908
f 765 763 908
f 908 763 759
f 715 719 906
f 719 718 906
f 718 721 906
f 906 721 765
f 165 662 663
f 663 664 165
f 906 916 715
f 916 915 715
f 715 915 716
f 915 728 716
f 1191 165 664
f 1191 664 656
f 656 659 1191
f 168 1191 659
f 168 659 394
f 394 325 168
f 822 681 680
f 911 707 784
f 822 680 821
f 784 786 911
f 786 785 911
f 911 785 680
f 785 819 680
f 680 819 821
f 915 916 919
f 916 906 919
f 1196 168 325
f 1196 325 903
f 903 342 1196
f 1197 1196 342
f 1197 342 657
f 657 358 1197
f 166 1197 358
f 166 358 729
f 729 357 166
f 1207 166 357
f 1207 357 691
f 691 309 1207
f 156 1207 309
f 156 309 310
f 310 301 156
f 158 156 301
f 158 301 920
f 920 940 158
f 1212 158 940
f 1212 940 939
f 939 938 1212
f 157 1212 938
f 157 938 297
f 1210 297 298
f 1210 157 297
f 1210 298 932
f 159 932 345
f 159 1210 932
f 159 345 933
f 1211 933 346
f 1211 159 933
f 1211 346 934
f 161 934 355
f 161 1211 934
f 161 355 936
f 1214 936 354
f 1214 161 936
f 1214 354 937
f 160 937 935
f 160 1214 937
f 160 935 353
f 167 156 158
f 1207 156 167
f 166 1207 167
f 167 157 1210
f 1212 157 167
f 158 1212 167
f 167 1211 161
f 159 1211 167
f 1210 159 167
f 167 160 1194
f 1214 160 167
f 161 1214 167
f 167 1213 164
f 162 1213 167
f 1194 162 167
f 946 953 947
f 953 954 947
f 947 954 955
f 954 956 955
f 955 956 957
f 956 958 957
f 957 958 959
f 958 960 959
f 906 960 919
f 960 958 919
f 919 958 961
f 958 956 961
f 961 956 962
f 956 954 962
f 962 954 963
f 954 953 963
f 167 163 1190
f 1193 163 167
f 164 1193 167
f 167 1191 168
f 165 1191 167
f 1190 165 167
f 167 1197 166
f 1196 1197 167
f 168 1196 167
f 1206 949 352
f 1206 1203 949
f 1206 352 945
f 1201 945 351
f 1201 1206 945
f 1201 351 921
f 150 921 344
f 919 917 915
f 967 968 969
f 969 968 970
f 968 971 970
f 970 971 972
f 971 912 972
f 972 912 911
f 907 910 971
f 910 909 971
f 971 909 912
f 150 1201 921
f 150 344 922
f 129 922 930
f 129 150 922
f 129 930 948
f 1217 948 942
f 1217 129 948
f 978 980 979
f 979 980 981
f 980 967 981
f 981 967 982
f 967 969 982
f 1217 942 944
f 151 944 950
f 151 1217 944
f 151 950 307
f 307 306 151
f 1215 151 306
f 1215 306 925
f 925 312 1215
f 130 1215 312
f 130 312 927
f 927 985 130
f 987 989 988
f 988 989 990
f 989 991 990
f 990 991 992
f 991 993 992
f 992 993 994
f 993 995 994
f 994 995 996
f 1216 130 985
f 1216 985 926
f 926 924 1216
f 133 1216 924
f 133 924 983
f 983 308 133
f 1221 133 308
f 1221 308 976
f 976 986 1221
f 907 971 996
f 971 968 996
f 996 968 994
f 968 967 994
f 994 967 992
f 967 980 992
f 992 980 990
f 980 978 990
f 990 978 988
f 1222 1221 986
f 1222 986 974
f 974 984 1222
f 131 1222 984
f 131 984 300
f 300 299 131
f 145 131 299
f 145 299 361
f 361 904 145
f 1195 145 904
f 1195 904 914
f 914 965 1195
f 1199 1195 965
f 1199 965 918
f 918 343 1199
f 146 1199 343
f 146 343 360
f 360 943 146
f 1200 146 943
f 1200 943 359
f 148 359 951
f 148 1200 359
f 906 905 995
f 905 913 995
f 995 913 996
f 913 908 996
f 996 908 907
f 906 995 960
f 995 993 960
f 960 993 959
f 993 991 959
f 959 991 957
f 991 989 957
f 957 989 955
f 989 987 955
f 955 987 947
f 148 951 350
f 1198 350 952
f 1198 148 350
f 1198 952 349
f 147 349 964
f 147 1198 349
f 147 964 348
f 1202 348 966
f 1202 147 348
f 1202 966 347
f 149 347 362
f 149 1202 347
f 149 362 997
f 1203 997 998
f 675 1006 1007
f 669 666 1008
f 672 671 1009
f 671 1010 1009
f 672 1009 674
f 1009 1011 674
f 674 1011 677
f 1012 1013 1014
f 675 1007 684
f 1007 1012 684
f 684 1012 682
f 1012 1014 682
f 682 1014 680
f 1203 149 997
f 1203 998 949
f 132 1195 1199
f 145 1195 132
f 131 145 132
f 132 1200 148
f 146 1200 132
f 1199 146 132
f 132 147 1202
f 1198 147 132
f 148 1198 132
f 132 1203 1206
f 149 1203 132
f 1202 149 132
f 132 150 129
f 1201 150 132
f 1206 1201 132
f 132 151 1215
f 1217 151 132
f 129 1217 132
f 132 1216 133
f 130 1216 132
f 1215 130 132
f 132 1222 131
f 1036 1037 1038
f 1037 1039 1038
f 1221 1222 132
f 133 1221 132
f 140 1005 931
f 140 1228 1005
f 140 931 928
f 671 670 1010
f 670 669 1010
f 1010 669 1040
f 669 1008 1040
f 1040 1008 1041
f 1226 928 929
f 1226 140 928
f 1226 929 923
f 139 923 941
f 139 1226 923
f 139 941 311
f 1230 311 302
f 1230 139 311
f 1230 302 313
f 141 313 314
f 141 1230 313
f 1046 1047 1044
f 141 314 317
f 1048 1049 1036
f 1050 1049 1051
f 1049 1048 1051
f 1051 1048 1052
f 1231 317 318
f 1004 1053 1041
f 1041 1053 1040
f 1053 1054 1040
f 1040 1054 1010
f 1054 1055 1010
f 1010 1055 1009
f 1055 1056 1009
f 1009 1056 1011
f 1057 1058 1052
f 1059 1058 1060
f 1058 1057 1060
f 1231 141 317
f 1050 1051 1062
f 1051 1052 1062
f 1062 1052 1063
f 1052 1058 1063
f 1063 1058 1064
f 1058 1059 1064
f 1064 1059 1065
f 1066 1013 1067
f 1013 1012 1067
f 1067 1012 1068
f 1012 1007 1068
f 1068 1007 1069
f 1007 1006 1069
f 1069 1006 1070
f 1065 1066 1064
f 1066 1067 1064
f 1064 1067 1063
f 1067 1068 1063
f 1063 1068 1062
f 1068 1069 1062
f 1062 1069 1050
f 1069 1070 1050
f 1050 1070 1049
f 1231 318 321
f 321 295 1231
f 1071 1032 1047
f 143 1231 295
f 143 295 285
f 675 677 1006
f 677 1011 1006
f 1006 1011 1070
f 1011 1056 1070
f 1070 1056 1049
f 1056 1055 1049
f 1049 1055 1036
f 1055 1054 1036
f 1036 1054 1037
f 1054 1053 1037
f 1037 1053 1039
f 1053 1004 1039
f 285 284 143
f 1229 143 284
f 1229 284 1017
f 1017 1002 1229
f 142 1229 1002
f 142 1002 283
f 283 296 142
f 1232 142 296
f 1232 296 276
f 276 275 1232
f 121 1232 275
f 121 275 288
f 288 287 121
f 144 121 287
f 144 287 1026
f 1026 1027 144
f 1234 144 1027
f 1234 1027 289
f 289 1029 1234
f 134 1234 1029
f 134 1029 1072
f 1072 286 134
f 1220 134 286
f 1220 286 1028
f 1028 324 1220
f 1224 1220 324
f 1224 324 323
f 323 280 1224
f 135 1224 280
f 135 280 291
f 291 290 135
f 1225 135 290
f 1225 290 1076
f 137 1076 1073
f 137 1225 1076
f 137 1073 1074
f 1223 1074 1075
f 1223 137 1074
f 1223 1075 1031
f 136 1031 1079
f 136 1223 1031
f 136 1079 1078
f 1227 1078 1077
f 1227 136 1078
f 1227 1077 292
f 138 292 282
f 138 1227 292
f 138 282 281
f 1228 281 1030
f 1228 138 281
f 1228 1030 1005
f 1233 1220 1224
f 134 1220 1233
f 1234 134 1233
f 1233 1225 137
f 135 1225 1233
f 1224 135 1233
f 1233 136 1227
f 1057 1052 1086
f 1086 1052 1087
f 1052 1048 1087
f 1087 1048 1088
f 1048 1036 1088
f 1088 1036 1089
f 1036 1038 1089
f 1223 136 1233
f 137 1223 1233
f 1233 1228 140
f 138 1228 1233
f 1089 1071 1088
f 1071 1047 1088
f 1088 1047 1087
f 1047 1046 1087
f 1087 1046 1086
f 1227 138 1233
f 1233 139 1230
f 1226 139 1233
f 140 1226 1233
f 1233 1231 143
f 141 1231 1233
f 1230 141 1233
f 1233 142 1232
f 1229 142 1233
f 143 1229 1233
f 1233 144 1234
f 121 144 1233
f 1232 121 1233
f 128 249 1080
f 128 126 249
f 128 1080 322
f 1218 322 1081
f 1218 128 322
f 1218 1081 1025
f 1219 1025 320
f 1219 1218 1025
f 1066 970 1013
f 970 972 1013
f 1013 972 1014
f 972 911 1014
f 1014 911 680
f 1219 320 319
f 117 319 1024
f 117 1219 319
f 117 1024 1023
f 97 1023 1022
f 97 117 1023
f 97 1022 1021
f 120 1021 1020
f 1060 979 1059
f 979 981 1059
f 1059 981 1065
f 981 982 1065
f 1065 982 1066
f 982 969 1066
f 1066 969 970
f 120 97 1021
f 120 1020 316
f 316 315 120
f 114 120 315
f 114 315 279
f 279 278 114
f 119 114 278
f 119 278 277
f 277 999 119
f 118 119 999
f 118 999 1085
f 1085 294 118
f 113 118 294
f 113 294 293
f 293 1035 113
f 112 113 1035
f 112 1035 1082
f 1082 1034 112
f 116 112 1034
f 116 1034 1083
f 1083 1033 116
f 115 116 1033
f 115 1033 1019
f 1019 1045 115
f 1237 115 1045
f 1237 1045 1018
f 1018 1043 1237
f 122 1237 1043
f 122 1043 1042
f 1042 1003 122
f 124 122 1003
f 124 1003 1016
f 1016 1000 124
f 1236 124 1000
f 1236 1000 305
f 305 1001 1236
f 123 1236 1001
f 123 1001 304
f 1239 304 303
f 1239 123 304
f 1239 303 1015
f 125 1015 973
f 125 1239 1015
f 125 973 1084
f 1235 1084 975
f 1235 125 1084
f 1235 975 1061
f 127 1061 977
f 127 1235 1061
f 127 977 1092
f 1238 1092 248
f 1238 127 1092
f 1238 248 1105
f 126 1105 1104
f 126 1238 1105
f 126 1104 249
f 111 122 124
f 1237 122 111
f 115 1237 111
f 111 123 1239
f 1236 123 111
f 124 1236 111
f 111 1235 127
f 125 1235 111
f 1239 125 111
f 111 126 128
f 1238 126 111
f 127 1238 111
f 111 1219 117
f 1218 1219 111
f 128 1218 111
f 111 120 114
f 97 120 111
f 117 97 111
f 111 118 113
f 119 118 111
f 114 119 111
f 111 116 115
f 112 116 111
f 113 112 111
f 101 1130 250
f 101 104 1130
f 101 250 1109
f 100 1109 251
f 100 101 1109
f 100 251 1108
f 1240 1108 252
f 1240 100 1108
f 1240 252 1107
f 93 1107 253
f 93 1240 1107
f 93 253 1112
f 73 1112 254
f 73 93 1112
f 73 254 1111
f 96 1111 255
f 96 73 1111
f 96 255 1110
f 1110 256 96
f 90 96 256
f 90 256 1114
f 1114 257 90
f 95 90 257
f 95 257 1113
f 1113 258 95
f 94 95 258
f 94 258 1094
f 1094 259 94
f 89 94 259
f 89 259 1093
f 1093 260 89
f 88 89 260
f 88 260 1091
f 1091 261 88
f 92 88 261
f 92 261 1090
f 1090 262 92
f 91 92 262
f 91 262 1097
f 1097 263 91
f 109 91 263
f 109 263 1096
f 1096 264 109
f 108 109 264
f 108 264 1095
f 1095 241 108
f 106 108 241
f 106 241 1100
f 1100 242 106
f 105 106 242
f 105 242 1099
f 1099 243 105
f 110 105 243
f 110 243 1098
f 103 1098 244
f 103 110 1098
f 103 244 1103
f 102 1103 245
f 102 103 1103
f 102 245 1102
f 107 1102 246
f 107 102 1102
f 107 246 1101
f 99 1101 1106
f 99 107 1101
f 99 1106 247
f 98 247 1117
f 98 99 247
f 98 1117 239
f 104 239 240
f 104 98 239
f 104 240 1130
f 87 108 106
f 109 108 87
f 91 109 87
f 87 110 103
f 105 110 87
f 106 105 87
f 87 107 99
f 102 107 87
f 103 102 87
f 87 104 101
f 98 104 87
f 99 98 87
f 87 1240 93
f 100 1240 87
f 101 100 87
f 87 96 90
f 73 96 87
f 93 73 87
f 87 94 89
f 95 94 87
f 90 95 87
f 87 92 91
f 88 92 87
f 89 88 87
f 77 979 1060
f 85 77 1060
f 77 1129 1128
f 77 85 1129
f 85 1135 1129
f 81 217 1139
f 81 1134 217
f 81 218 1134
f 81 86 218
f 86 1133 218
f 86 219 1133
f 219 86 1132
f 78 1132 86
f 78 220 1132
f 220 78 1137
f 83 1137 78
f 83 221 1137
f 221 83 223
f 223 83 1169
f 82 1169 83
f 24 1 82
f 84 1136 222
f 84 225 1136
f 84 80 225
f 1086 80 84
f 1046 80 1086
f 13 1071 1089
f 7 13 1089
f 1038 6 7
f 1089 1038 7
f 84 1057 1086
f 85 1057 84
f 85 222 1135
f 85 84 222
f 1 1169 82
f 1004 9 1244
f 1039 1004 1244
f 1047 78 86
f 1032 78 1047
f 22 1032 1071
f 13 22 1071
f 1060 1057 85
f 5 1004 1041
f 1044 1047 86
f 79 1046 1044
f 80 1046 79
f 80 224 1119
f 80 79 224
f 81 1044 86
f 79 1044 81
f 79 1139 1138
f 79 81 1139
f 1008 5 1041
f 1008 3 5
f 2 3 1008
f 666 2 1008
f 1039 1244 6
f 1038 1039 6
f 23 24 82
f 83 23 82
f 1032 23 83
f 78 1032 83
f 1032 22 23
f 9 1004 5
f 79 1138 224
f 80 1119 225
f 60 226 1159
f 60 1125 226
f 60 74 1125
f 68 74 60
f 75 74 68
f 947 75 68
f 987 75 947
f 49 1118 237
f 49 227 1118
f 49 1116 227
f 49 70 1116
f 70 228 1116
f 70 1115 228
f 70 71 1115
f 71 229 1115
f 71 1122 229
f 71 66 1122
f 66 238 1122
f 69 61 917
f 62 61 69
f 62 1126 230
f 62 69 1126
f 230 1121 62
f 57 62 1121
f 57 1121 206
f 1241 231 1123
f 1241 236 231
f 1241 72 236
f 988 72 1241
f 978 72 988
f 75 1124 1120
f 75 1120 232
f 74 232 233
f 74 75 232
f 74 233 1125
f 76 75 987
f 75 234 1124
f 75 76 234
f 76 235 234
f 1241 987 988
f 76 987 1241
f 76 1123 235
f 76 1241 1123
f 77 978 979
f 72 978 77
f 72 1128 1127
f 72 77 1128
f 72 1127 236
f 69 917 919
f 961 69 919
f 49 69 961
f 70 49 961
f 69 237 1126
f 69 49 237
f 962 70 961
f 71 70 962
f 963 71 962
f 67 71 963
f 953 67 963
f 64 67 953
f 946 64 953
f 65 64 946
f 63 65 946
f 1131 1154 63
f 65 63 1154
f 63 203 1131
f 203 63 1159
f 67 66 71
f 1142 238 67
f 66 67 238
f 67 201 1142
f 67 64 201
f 63 68 60
f 947 68 63
f 946 947 63
f 64 1155 201
f 64 65 1155
f 65 202 1155
f 65 1154 202
f 60 1159 63
f 56 204 1161
f 56 59 204
f 59 1158 204
f 59 205 1158
f 59 62 205
f 59 61 62
f 917 61 59
f 915 917 59
f 59 728 915
f 62 1157 205
f 62 57 1157
f 57 206 1157
f 45 58 1162
f 58 214 1162
f 58 47 214
f 58 661 879
f 881 58 879
f 418 58 881
f 417 58 418
f 417 47 58
f 660 48 877
f 46 661 58
f 45 46 58
f 890 1242 665
f 52 1242 890
f 892 52 890
f 889 52 892
f 889 53 52
f 48 53 889
f 877 48 889
f 694 59 56
f 731 59 694
f 59 731 730
f 717 59 730
f 728 59 717
f 54 688 55
f 695 688 54
f 495 695 54
f 494 495 54
f 20 494 54
f 694 56 689
f 55 51 54
f 20 54 207
f 54 1160 207
f 54 51 1160
f 50 55 688
f 51 55 50
f 51 208 209
f 51 50 208
f 50 1161 208
f 50 56 1161
f 689 56 50
f 688 689 50
f 51 209 1160
f 2 666 665
f 1242 2 665
f 2 1164 212
f 2 1242 1164
f 1242 210 1164
f 1242 52 210
f 52 1163 210
f 52 211 1163
f 52 53 211
f 53 1144 211
f 53 1143 1144
f 53 48 1143
f 2 212 1168
f 48 213 1143
f 48 25 213
f 25 1141 213
f 25 1162 1141
f 25 45 1162
f 25 661 46
f 660 661 25
f 48 660 25
f 46 45 25
f 39 602 620
f 44 39 620
f 631 33 34
f 38 33 631
f 601 38 631
f 37 38 601
f 36 37 601
f 630 631 34
f 35 630 34
f 629 630 35
f 31 629 35
f 416 629 31
f 32 416 31
f 42 618 619
f 30 42 619
f 619 435 4
f 44 620 618
f 4 30 619
f 43 44 618
f 42 43 618
f 600 40 41
f 602 40 600
f 602 39 40
f 600 36 601
f 600 41 36
f 28 521 539
f 1243 28 539
f 550 10 17
f 14 10 550
f 520 14 550
f 15 14 520
f 12 15 520
f 549 550 17
f 18 549 17
f 548 549 18
f 21 548 18
f 434 548 21
f 8 434 21
f 26 537 538
f 19 26 538
f 538 466 16
f 1243 539 537
f 16 19 538
f 27 1243 537
f 26 27 537
f 519 29 11
f 521 29 519
f 521 28 29
f 519 12 520
f 519 11 12
f 16 466 494
f 20 16 494
f 4 435 434
f 8 4 434
f 47 417 416
f 32 47 416
f 47 1140 214
f 1156 1140 32
f 47 32 1140
f 42 1152 215
f 42 30 1152
f 43 42 215
f 43 215 1147
f 44 1147 216
f 44 43 1147
f 39 216 1146
f 39 44 216
f 40 39 1146
f 1146 193 40
f 41 40 193
f 41 193 1145
f 36 1145 194
f 36 41 1145
f 194 1150 36
f 37 36 1150
f 37 1150 195
f 38 195 1149
f 38 37 195
f 1149 196 38
f 33 38 196
f 33 196 1148
f 34 1148 197
f 34 33 1148
f 197 1153 34
f 35 34 1153
f 35 1153 198
f 31 35 198
f 31 198 1151
f 30 199 1152
f 1171 199 4
f 30 4 199
f 32 1151 1156
f 32 31 1151
f 26 1186 200
f 26 19 1186
f 27 26 200
f 27 200 1167
f 1243 1167 173
f 1243 27 1167
f 28 173 1180
f 28 1243 173
f 29 28 1180
f 1180 174 29
f 11 29 174
f 11 174 1179
f 12 1179 175
f 12 11 1179
f 175 1184 12
f 15 12 1184
f 15 1184 176
f 14 176 1183
f 14 15 176
f 1183 177 14
f 10 14 177
f 10 177 1182
f 17 1182 178
f 17 10 1182
f 178 1187 17
f 18 17 1187
f 18 1187 179
f 21 18 179
f 21 179 1185
f 19 180 1186
f 181 180 16
f 19 16 180
f 8 1185 1172
f 8 21 1185
f 207 1189 20
f 16 20 1189
f 16 1189 181
f 1165 182 13
f 22 13 183
f 182 1188 13
f 23 22 184
f 1188 183 13
f 24 23 184
f 183 184 22
f 1 24 184
f 1 184 1169
f 3 2 1168
f 5 1168 185
f 5 3 1168
f 9 5 185
f 6 187 1166
f 6 1244 187
f 7 1166 186
f 7 6 1166
f 186 1165 7
f 13 7 1165
f 1244 185 187
f 1244 9 185
f 8 1172 188
f 4 188 1171
f 4 8 188
f 378 266 269
f 1005 266 931
f 269 266 365
f 931 266 928
f 266 927 372
f 928 266 929
f 365 266 367
f 266 1016 933
f 367 266 372
f 929 266 923
f 266 373 1016
f 1112 266 292
f 933 923 266
f 1171 188 199
f 199 188 268
f 199 268 1152
f 215 922 1147
f 1147 1146 216
f 1147 922 193
f 1147 193 1146
f 193 921 1145
f 1145 351 1150
f 1145 921 351
f 1150 949 195
f 195 949 998
f 1152 392 388
f 1152 268 392
f 1148 1153 197
f 195 196 1149
f 196 997 362
f 196 362 347
f 1151 1140 1156
f 1148 347 966
f 1148 966 348
f 1153 348 964
f 198 350 951
f 198 951 359
f 213 1144 1143
f 198 359 943
f 1151 360 343
f 1151 343 918
f 1163 1169 210
f 210 212 1164
f 214 1095 264
f 212 185 1168
f 212 1188 182
f 212 187 185
f 214 241 1095
f 212 1165 186
f 210 1169 184
f 214 264 1096
f 213 1097 1144
f 212 186 1166
f 1144 1097 262
f 1163 262 1090
f 1163 1090 221
f 221 1090 220
f 1151 918 1140
f 220 1090 219
f 219 1090 218
f 214 1099 242
f 218 1090 217
f 214 242 1100
f 212 1166 187
f 217 1090 1139
f 1139 1091 224
f 1139 1090 261
f 1139 261 1091
f 224 1091 225
f 214 1098 243
f 221 220 1137
f 225 260 1136
f 1136 260 222
f 222 1093 1135
f 1135 324 1028
f 1135 259 1094
f 1129 310 1128
f 1128 310 309
f 1129 1002 1017
f 1129 275 276
f 231 235 1123
f 1129 1017 284
f 235 1124 234
f 1135 1072 1029
f 1129 1027 1026
f 1120 233 232
f 1129 283 1002
f 1129 1026 287
f 1135 286 1072
f 236 729 231
f 226 203 1159
f 1127 691 357
f 203 1154 1131
f 1129 289 1027
f 1154 1155 202
f 233 358 657
f 1155 1142 201
f 1129 296 283
f 1120 358 233
f 238 229 1122
f 1129 276 296
f 229 228 1115
f 1155 238 1142
f 228 227 1116
f 1154 238 1155
f 227 237 1118
f 238 237 229
f 237 230 1126
f 1125 657 226
f 236 357 729
f 1121 1157 206
f 226 657 203
f 229 237 227
f 235 729 1124
f 1124 729 1120
f 204 208 1161
f 1158 657 204
f 238 205 1121
f 237 1121 230
f 204 657 342
f 204 342 209
f 1160 903 325
f 204 209 208
f 1189 364 181
f 181 999 180
f 180 278 1186
f 1186 315 200
f 200 1021 1167
f 1167 1180 173
f 1167 1024 174
f 1167 174 1180
f 1160 325 207
f 1179 1184 175
f 205 657 1158
f 181 364 687
f 176 177 1183
f 1184 322 1080
f 1179 322 1184
f 1182 1187 178
f 176 1104 1105
f 177 248 1092
f 179 333 267
f 181 687 271
f 1182 1092 977
f 196 998 997
f 188 386 387
f 188 385 386
f 193 922 344
f 1172 332 331
f 1148 348 1153
f 1153 350 198
f 1153 964 349
f 1172 331 330
f 1150 351 945
f 195 998 196
f 196 347 1148
f 188 384 383
f 179 1061 333
f 388 389 948
f 1150 945 352
f 389 375 948
f 375 376 944
f 388 948 930
f 376 368 944
f 368 369 307
f 369 370 307
f 370 371 925
f 375 944 942
f 371 372 925
f 370 925 306
f 378 366 266
f 368 307 950
f 366 363 266
f 363 377 266
f 377 373 266
f 373 374 305
f 374 326 305
f 326 338 304
f 370 306 307
f 338 337 304
f 337 336 1015
f 336 335 1015
f 335 334 1084
f 334 333 1084
f 177 1092 1182
f 1185 332 1172
f 1167 1022 1023
f 1167 1021 1022
f 176 1105 177
f 1172 384 188
f 1172 270 272
f 1150 352 949
f 1172 265 270
f 1172 329 328
f 1172 330 329
f 188 380 379
f 188 382 380
f 188 387 382
f 1172 327 265
f 1153 349 952
f 935 937 1019
f 937 354 1045
f 354 936 1018
f 936 355 1043
f 355 934 1042
f 934 346 1003
f 355 1042 1043
f 346 933 1016
f 933 345 923
f 346 1016 1003
f 345 932 923
f 932 298 311
f 298 297 311
f 297 938 313
f 937 1045 1019
f 938 939 313
f 939 940 317
f 935 1019 1033
f 940 920 317
f 920 301 321
f 932 311 941
f 301 310 321
f 297 302 311
f 1128 691 1127
f 229 227 228
f 1129 284 285
f 238 1121 237
f 1189 692 693
f 1189 662 692
f 1189 656 664
f 1189 659 656
f 233 657 1125
f 1154 657 205
f 203 657 1154
f 1127 357 236
f 1121 205 1157
f 207 325 1189
f 209 342 903
f 1189 664 663
f 1128 309 691
f 1189 693 364
f 200 316 1020
f 1189 663 662
f 200 1020 1021
f 920 321 318
f 174 319 320
f 200 315 316
f 174 1025 1179
f 1154 205 238
f 181 340 339
f 181 341 274
f 181 293 294
f 1186 279 315
f 181 1085 999
f 180 277 278
f 1189 325 394
f 658 390 1082
f 1189 394 659
f 390 391 1034
f 391 353 1083
f 1185 267 332
f 188 379 393
f 188 393 381
f 188 381 268
f 215 388 930
f 215 930 922
f 198 360 1151
f 198 943 360
f 1140 1098 214
f 1140 244 1098
f 214 1096 263
f 214 263 1162
f 1162 263 1141
f 1141 1097 213
f 1140 965 914
f 1140 904 361
f 1140 247 1106
f 1140 1101 246
f 1140 1102 245
f 1140 1103 244
f 361 299 1117
f 299 300 239
f 300 984 240
f 361 1117 247
f 984 974 1130
f 974 986 250
f 299 239 1117
f 986 976 1109
f 976 308 251
f 308 983 1108
f 983 924 252
f 924 926 1107
f 926 985 253
f 985 927 1112
f 266 1112 927
f 333 1061 975
f 984 1130 240
f 373 305 1000
f 1145 1150 194
f 1153 952 350
f 181 271 356
f 368 950 944
f 372 312 925
f 308 1108 251
f 1005 1030 266
f 282 292 266
f 1172 273 384
f 333 975 1084
f 300 240 239
f 974 250 1130
f 292 1077 1111
f 1140 246 1102
f 1077 1078 1111
f 1078 1079 1110
f 1079 1031 1110
f 1031 1075 1114
f 1075 1074 1114
f 1074 1073 1113
f 1073 1076 1113
f 1076 290 1094
f 1074 1113 257
f 1135 1093 259
f 212 183 1188
f 219 218 1133
f 212 184 183
f 1163 223 1169
f 224 225 1119
f 1078 1110 255
f 1135 1028 286
f 225 1091 260
f 1129 295 310
f 1129 285 295
f 1129 288 275
f 1076 258 1113
f 231 729 235
f 209 903 1160
f 1135 1029 289
f 934 1003 1042
f 391 1083 1034
f 1163 221 223
f 292 1111 254
f 354 1018 1045
f 920 318 317
f 1139 224 1138
f 935 1033 353
f 1031 256 1110
f 181 339 341
f 180 999 277
f 310 295 321
f 1120 729 358
f 939 314 313
f 174 320 1025
f 297 313 302
f 1135 289 1129
f 337 303 304
f 335 1084 973
f 932 941 923
f 281 282 266
f 179 267 1185
f 939 317 314
f 375 942 948
f 983 252 1108
f 326 304 1001
f 335 973 1015
f 193 344 921
f 1141 263 1097
f 372 927 312
f 1144 262 211
f 1078 255 1111
f 926 253 1107
f 222 260 1093
f 218 217 1134
f 1186 278 279
f 337 1015 303
f 1129 287 288
f 1172 328 327
f 1140 245 1103
f 986 1109 250
f 390 1034 1082
f 658 1082 1035
f 181 294 1085
f 274 658 1035
f 274 1035 293
f 181 690 340
f 353 1033 1083
f 1184 249 176
f 1140 914 904
f 1179 1081 322
f 1184 1080 249
f 1179 1025 1081
f 177 1105 248
f 181 274 293
f 1182 977 1187
f 1187 977 1061
f 181 356 690
f 1187 1061 179
f 176 249 1104
f 1172 272 273
f 936 1043 1018
f 326 1001 305
f 1152 388 215
f 188 383 385
f 1030 281 266
f 985 1112 253
f 1140 361 247
f 1140 918 965
f 211 262 1163
f 214 243 1099
f 210 184 212
f 220 219 1132
f 1135 291 280
f 1135 280 323
f 1135 1094 290
f 1135 290 291
f 1135 323 324
f 1031 1114 256
f 292 254 1112
f 1140 1106 1101
f 174 1024 319
f 924 1107 252
f 373 1000 1016
f 1076 1094 258
f 976 251 1109
f 214 1100 241
f 1074 257 1114
f 212 182 1165
f 1167 1023 1024

