# https://github.com/mikedh/trimesh

o convex_tip_thumb.obj
v 0.01069096 0.01681764 -0.00257969
v 0.01023802 0.01681764 -0.00179519
v 0.01075058 0.01681764 -0.00303262
v 0.01051613 0.01681764 -0.00390762
v 0.00987559 0.01681764 -0.00454817
v 0.01051613 0.01681764 -0.00215762
v 0.00123803 0.01681764 0.00720481
v 0.00151613 0.01681764 0.00684238
v 0.00175059 0.01681764 0.00596737
v 0.00169095 0.01681764 0.00551444
v 0.00123803 0.01681764 0.00472994
v 0.00000059 0.01681764 0.00596737
v 0.00045352 0.01681764 0.00427701
v 0.00900058 0.01681764 -0.00478262
v -0.00045235 0.01681764 0.00427701
v -0.00087441 0.01681764 0.00445184
v 0.00000059 0.01681764 0.00421737
v -0.00151496 0.01681764 0.00509238
v -0.00168978 0.01681764 0.00551444
v -0.00168978 0.01681764 0.00642031
v -0.00087441 0.01681764 0.00748292
v 0.00000059 0.01681764 0.00771738
v 0.00087559 0.01681764 0.00748292
v -0.00045235 0.01681764 0.00765775
v -0.01199147 0.01931763 0.00626739
v -0.01199941 0.01931763 0.00608934
v -0.00556016 0.01931763 -0.00937890
v -0.00533946 0.01931763 -0.00941959
v -0.00478332 0.01931763 -0.00949412
v 0.00400059 0.01931763 -0.00953263
v 0.00534064 0.01931763 -0.00941959
v -0.01050374 0.00019060 0.00946738
v -0.01056399 0.00040691 0.00946738
v -0.01057646 0.00047421 0.00946738
v -0.01059180 0.00059153 0.00946738
v -0.01086850 0.02259647 0.00915750
v 0.01065196 0.01931763 -0.00597776
v -0.01059978 0.00078118 0.00946686
v 0.00965712 0.01931763 -0.00718981
v 0.01031081 0.01931763 -0.00645005
v 0.00844365 0.01931763 -0.00818539
v 0.00556053 0.01931763 -0.00937906
v 0.01132107 0.01931763 -0.00475916
v 0.01188756 0.01931763 -0.00287267
v 0.00722712 0.01931763 -0.00885311
v 0.01196209 0.01931763 -0.00231653
v 0.01200059 0.01931763 0.00608397
v 0.01196677 0.01931763 0.00645017
v 0.01187236 0.02014289 0.00690746
v 0.01150438 0.02157318 0.00809184
v 0.00769173 0.00002021 0.01056385
v 0.00891802 0.01931763 -0.00784284
v 0.00841679 0.00003327 0.01041819
v 0.00907408 0.00003350 0.01019322
v 0.00979932 0.00022323 0.00995577
v 0.01078215 0.00001969 0.00917224
v 0.01119377 0.00011563 0.00867912
v -0.01031099 0.00012977 0.00959152
v -0.00814134 0.00036728 0.01070252
v -0.00774701 0.00036524 0.01077958
v -0.00734403 0.00036251 0.01082717
v 0.00693088 0.00001267 0.01061529
v -0.00693668 0.00043701 0.01088061
v -0.00846381 0.00016700 0.01050118
v -0.00693668 0.00001267 0.01061529
v -0.00914298 0.00016028 0.01025129
v -0.01149054 0.02159037 0.00813797
v -0.01188259 0.02010205 0.00687275
v -0.01196173 0.01959658 0.00647745
v -0.00844454 0.01931763 -0.00818400
v -0.00891684 0.01931763 -0.00784284
v -0.01196771 0.01931763 0.00644402
v -0.01030963 0.01931763 -0.00645005
v -0.01184585 0.01931763 -0.00309256
v -0.01065217 0.01931763 -0.00597568
v -0.01131989 0.01931763 -0.00475916
v -0.01188638 0.01931763 -0.00287267
v -0.01199941 0.01931763 -0.00153262
v -0.01074941 0.01681764 -0.00303262
v -0.00899941 0.01681764 -0.00303262
v 0.00087559 0.01681764 0.00445184
v -0.01023685 0.01681764 -0.00179519
v 0.00151613 0.01681764 0.00509238
v -0.00987441 0.01681764 -0.00151708
v 0.00169095 0.01681764 0.00642031
v 0.01069096 0.01681764 -0.00348556
v -0.00899941 0.01681764 -0.00128262
v -0.00854648 0.01681764 -0.00134225
v -0.00812441 0.01681764 -0.00151708
v -0.00748387 0.01681764 -0.00215762
v -0.00724941 0.01681764 -0.00303262
v -0.00748387 0.01681764 -0.00390762
v -0.00812441 0.01681764 -0.00454817
v -0.00899941 0.01681764 -0.00478262
v -0.00987441 0.01681764 -0.00454817
v -0.01051496 0.01681764 -0.00390762
v -0.01074941 0.01681764 0.00296737
v -0.00899941 0.01681764 0.00296737
v -0.01023685 0.01681764 0.00420481
v -0.00945235 0.01681764 0.00465775
v -0.00854648 0.01681764 0.00465775
v -0.00776198 0.01681764 0.00420481
v -0.00730904 0.01681764 0.00342031
v -0.00730904 0.01681764 0.00251445
v -0.00776198 0.01681764 0.00172994
v 0.01023802 0.01681764 -0.00427006
v -0.00854648 0.01681764 0.00127701
v 0.00945352 0.01681764 -0.00472299
v -0.00123685 0.01681764 0.00472994
v -0.00812441 0.01681764 0.00145183
v -0.00174941 0.01681764 0.00596737
v -0.00748387 0.01681764 0.00209238
v -0.00899941 0.01681764 0.00121737
v -0.00151496 0.01681764 0.00684238
v -0.00945235 0.01681764 0.00127701
v -0.00987441 0.01681764 0.00145183
v -0.01051496 0.01681764 0.00209238
v 0.00900058 0.01681764 0.00121737
v 0.00812559 0.01681764 0.00145183
v 0.00776315 0.01681764 0.00172994
v 0.00725059 0.01681764 0.00296737
v 0.00731022 0.01681764 0.00342031
v 0.00776315 0.01681764 0.00420481
v 0.00854766 0.01681764 0.00465775
v -0.00123685 0.01681764 0.00720481
v 0.00045352 0.01681764 0.00765775
v 0.00812559 0.01681764 0.00448292
v 0.00900058 0.01681764 0.00471737
v -0.00722595 0.01931763 -0.00885311
v 0.00945352 0.01681764 0.00465775
v 0.00987559 0.01681764 0.00448292
v 0.01051613 0.01681764 0.00384238
v 0.01069096 0.01681764 0.00342031
v -0.01044951 0.00005777 0.00946738
v 0.01075058 0.01681764 0.00296737
v -0.01122790 0.02206633 0.00863782
v 0.01051613 0.01681764 0.00209238
v 0.01023802 0.01681764 0.00172994
v 0.01069096 0.01681764 0.00251445
v 0.00945352 0.01681764 0.00127701
v -0.00123685 0.00000000 -0.00727006
v -0.00166197 0.00000000 -0.00655272
v -0.00173992 0.00000000 -0.00610470
v -0.00169927 0.00000000 -0.00565176
v 0.00987559 0.01681764 0.00145183
v -0.00168978 0.00000000 -0.00557969
v -0.00128110 0.00000000 -0.00485286
v -0.00007148 0.00000000 -0.00429211
v -0.00151496 0.00000000 -0.00515762
v 0.00000059 0.00000000 -0.00428262
v 0.00038146 0.00000000 -0.00433276
v 0.00123803 0.00000000 -0.00479519
v 0.00174110 0.00000000 -0.00596056
v 0.00175059 0.00000000 -0.00603263
v 0.00169095 0.00000000 -0.00648556
v 0.00123803 0.00000000 -0.00727006
v 0.00007266 0.00000000 -0.00777314
v -0.00038028 0.00000000 -0.00773248
v -0.00080725 0.00000000 -0.00757598
v -0.00117918 0.00000000 -0.00731431
v 0.00045352 0.00000000 -0.00772299
v 0.00093325 0.00000000 -0.00750391
v 0.01165611 0.01931763 -0.00385488
v 0.00166313 0.00000000 -0.00551253
v 0.00169095 0.00000000 -0.00557969
v 0.01184686 0.01931763 -0.00309337
v 0.00147188 0.00000000 -0.00509995
v 0.00080843 0.00000000 -0.00448926
v -0.00087441 0.00000000 -0.00451708
v -0.00093208 0.00000000 -0.00456133
v -0.00154277 0.00000000 -0.00522478
v 0.01200059 0.01931763 -0.00153262
v 0.00819275 0.00000000 -0.00457599
v 0.01199212 0.01931763 0.00626785
v -0.00045235 0.00000000 -0.00434225
v -0.01178234 0.02088644 0.00729820
v 0.01196151 0.01957963 0.00647859
v 0.01176020 0.02096815 0.00736074
v 0.00854766 0.00000000 -0.00472299
v 0.00782082 0.00000000 -0.00431431
v -0.00147070 0.00000000 -0.00696530
v -0.00151496 0.00000000 -0.00690763
v -0.00168978 0.00000000 -0.00648556
v 0.00725059 0.00000000 -0.00303262
v 0.00776315 0.00000000 -0.00179519
v 0.00900058 0.00000000 -0.00128262
v 0.01018035 0.00000000 -0.00175093
v 0.01047188 0.00000000 -0.00209995
v -0.00174941 0.00000000 -0.00603263
v 0.01074110 0.00000000 -0.00296055
v 0.01051613 0.00000000 -0.00215762
v 0.01075058 0.00000000 -0.00303262
v 0.01023802 0.00000000 -0.00179519
v 0.01069096 0.00000000 -0.00257969
v 0.01028227 0.00000000 -0.00421239
v 0.00892852 0.00000000 -0.00129211
v 0.01023802 0.00000000 -0.00427006
v 0.00771890 0.00000000 -0.00185286
v 0.00907265 0.00000000 -0.00477313
v 0.00726008 0.00000000 -0.00310469
v 0.00900058 0.00000000 -0.00478262
v 0.00945352 0.00000000 -0.00472299
v 0.00987559 0.00000000 -0.00454817
v 0.01054395 0.00000000 -0.00384046
v 0.01070045 0.00000000 -0.00341349
v 0.01066314 0.00000000 -0.00251253
v 0.00993326 0.00000000 -0.00450392
v 0.00987559 0.00000000 -0.00151708
v 0.00938145 0.00000000 -0.00133277
v 0.00854766 0.00000000 -0.00134225
v 0.00945352 0.00000000 -0.00134225
v 0.00806792 0.00000000 -0.00156133
v 0.00812559 0.00000000 -0.00151708
v 0.00848050 0.00000000 -0.00137007
v 0.00748504 0.00000000 -0.00215762
v 0.00731022 0.00000000 -0.00257969
v 0.00731022 0.00000000 -0.00348556
v 0.00748504 0.00000000 -0.00390762
v 0.00861973 0.00000000 -0.00473248
v 0.00123803 -0.00000000 0.00720481
v 0.00166313 -0.00000000 0.00648747
v 0.00952068 0.00000000 -0.00469518
v 0.00174110 -0.00000000 0.00603944
v 0.00170045 -0.00000000 0.00558651
v 0.00128228 -0.00000000 0.00478761
v 0.00151613 -0.00000000 0.00509238
v 0.00000059 -0.00000000 0.00421737
v -0.00045235 -0.00000000 0.00427701
v 0.01069096 0.00000000 -0.00348556
v -0.00117918 -0.00000000 0.00468569
v 0.00980843 0.00000000 -0.00148926
v 0.00745722 0.00000000 -0.00222478
v 0.00730073 0.00000000 -0.00265176
v 0.00733804 0.00000000 -0.00355271
v -0.00038028 -0.00000000 0.00426752
v 0.00007266 -0.00000000 0.00422686
v 0.00123803 -0.00000000 0.00472994
v 0.00169095 -0.00000000 0.00551444
v 0.00175059 -0.00000000 0.00596737
v 0.00169095 -0.00000000 0.00642031
v 0.00151613 -0.00000000 0.00684238
v 0.00147188 -0.00000000 0.00690004
v 0.00752929 0.00000000 -0.00396529
v -0.00087441 -0.00000000 0.00445184
v -0.00123685 0.00000000 -0.00479519
v 0.00045352 0.00000000 -0.00434225
v -0.00173992 -0.00000000 0.00589530
v 0.00118036 0.00000000 -0.00475094
v -0.00174941 -0.00000000 0.00596737
v -0.00169927 -0.00000000 0.00634824
v -0.00168978 -0.00000000 0.00551444
v -0.00147070 -0.00000000 0.00503471
v -0.00080725 -0.00000000 0.00442401
v -0.00151496 -0.00000000 0.00509238
v 0.00052068 -0.00000000 0.00430483
v 0.00045352 -0.00000000 0.00427701
v 0.00087559 0.00000000 -0.00451708
v 0.00093325 -0.00000000 0.00449608
v 0.00154395 -0.00000000 0.00515954
v 0.00170045 0.00000000 -0.00641349
v -0.01196852 -0.00000000 0.00643800
v -0.01199941 -0.00000000 0.00608934
v 0.00404631 0.00000000 -0.00952877
v -0.01199914 -0.00000000 0.00609541
v -0.01046133 -0.00000000 0.00946738
v -0.01041704 -0.00000000 0.00946738
v -0.01052498 -0.00000000 0.00946738
v -0.01058652 -0.00000000 0.00946738
v -0.01060043 -0.00000000 0.00946713
v -0.01074033 -0.00000000 0.00930370
v -0.01086325 -0.00000000 0.00916107
v -0.01087404 -0.00000000 0.00914548
v 0.01028851 0.00000000 -0.00647529
v 0.00726863 0.00000000 -0.00883033
v 0.00717026 0.00000000 -0.00887105
v 0.00891802 0.00000000 -0.00784284
v 0.00722712 0.00000000 -0.00885311
v 0.01129824 0.00000000 -0.00480074
v 0.01133250 0.00000000 -0.00472831
v 0.01200059 -0.00000000 0.00608397
v 0.01200030 -0.00000000 0.00609024
v 0.00128228 0.00000000 -0.00721239
v 0.00151613 0.00000000 -0.00690763
v 0.01196677 -0.00000000 0.00645017
v 0.01176020 -0.00000000 0.00736074
v 0.00831600 -0.00000000 0.01040770
v 0.00768749 -0.00000000 0.01054503
v 0.00896806 -0.00000000 0.01019785
v 0.01018132 -0.00000000 0.00961520
v 0.00964026 -0.00000000 0.00991772
v 0.01128740 -0.00000000 0.00851925
v 0.01146328 -0.00000000 0.00817683
v 0.00905328 -0.00000000 0.01017299
v 0.01075657 -0.00000000 0.00918898
v 0.01123385 -0.00000000 0.00861085
v 0.01040270 -0.00000000 0.00947517
v 0.00956751 -0.00000000 0.00995097
v 0.01079348 -0.00000000 0.00915780
v 0.01099806 -0.00000000 0.00894608
v -0.01014788 -0.00000000 0.00964411
v -0.01018859 -0.00000000 0.00961931
v -0.00805325 -0.00000000 0.01047732
v -0.00768900 -0.00000000 0.01054160
v -0.00731536 -0.00000000 0.01058252
v -0.00693668 -0.00000000 0.01060318
v 0.00615390 -0.00000000 0.01060318
v -0.00765646 -0.00000000 0.01054558
v 0.00764814 -0.00000000 0.01054604
v -0.01031987 -0.00000000 0.00953478
v -0.00840488 -0.00000000 0.01039427
v -0.00810118 -0.00000000 0.01046716
v -0.00905636 -0.00000000 0.01017595
v -0.00912958 -0.00000000 0.01014166
v 0.01200059 0.00000000 -0.00153262
v 0.01199928 0.00000000 -0.00155937
v 0.01189010 0.00000000 -0.00285370
v 0.01200059 -0.00000000 0.00582410
v -0.01148329 -0.00000000 0.00814390
v -0.01178234 -0.00000000 0.00729820
v -0.01178563 -0.00000000 0.00728423
v -0.01196771 -0.00000000 0.00644402
v -0.00402616 0.00000000 -0.00953131
v -0.00532049 0.00000000 -0.00942214
v -0.00726753 0.00000000 -0.00883028
v -0.00722595 0.00000000 -0.00885311
v -0.01030963 0.00000000 -0.00645005
v -0.01032132 0.00000000 -0.00643387
v -0.00890072 0.00000000 -0.00785448
v -0.01133784 0.00000000 -0.00470230
v -0.01131989 0.00000000 -0.00475916
v -0.01199556 0.00000000 -0.00157834
v -0.01199941 0.00000000 -0.00153262
v -0.00894208 0.00000000 -0.00782054
v 0.00534814 0.00000000 -0.00941821
v -0.01129711 0.00000000 -0.00480067
v -0.01068978 0.00000000 -0.00257969
v -0.01028110 0.00000000 -0.00185286
v -0.00847422 -0.00000000 0.01036928
v 0.01095602 -0.00000000 0.00898989
v -0.00907148 0.00000000 -0.00129211
v -0.00861855 0.00000000 -0.00133277
v -0.00776198 0.00000000 -0.00179519
v -0.00725890 0.00000000 -0.00296055
v -0.01069927 0.00000000 -0.00265176
v -0.00724941 0.00000000 -0.00303262
v -0.00730904 0.00000000 -0.00348556
v -0.00776198 0.00000000 -0.00427006
v -0.00892734 0.00000000 -0.00477313
v -0.01023685 0.00000000 -0.00179519
v -0.00938028 0.00000000 -0.00473248
v -0.00899941 0.00000000 -0.00128262
v -0.01023685 0.00000000 -0.00427006
v -0.00987441 0.00000000 -0.00454817
v -0.01051496 0.00000000 -0.00390762
v 0.00731022 -0.00000000 0.00342031
v 0.00771890 -0.00000000 0.00414714
v 0.00748504 -0.00000000 0.00384238
v -0.01047070 0.00000000 -0.00396529
v 0.00900058 -0.00000000 0.00471737
v 0.00938145 -0.00000000 0.00466723
v 0.00945352 -0.00000000 0.00465775
v 0.01018035 -0.00000000 0.00424906
v 0.00987559 -0.00000000 0.00448292
v 0.00892852 -0.00000000 0.00470789
v 0.01023802 -0.00000000 0.00420481
v 0.01075058 -0.00000000 0.00296737
v 0.01074110 -0.00000000 0.00303944
v 0.01069096 -0.00000000 0.00251445
v 0.01023802 -0.00000000 0.00172994
v 0.01051613 -0.00000000 0.00209238
v 0.00945352 -0.00000000 0.00127701
v 0.00993326 -0.00000000 0.00149608
v 0.01028227 -0.00000000 0.00178760
v 0.01054395 -0.00000000 0.00215954
v 0.01066314 -0.00000000 0.00348747
v 0.01051613 -0.00000000 0.00384238
v 0.01047188 -0.00000000 0.00390005
v 0.00854766 -0.00000000 0.00465775
v 0.01070045 -0.00000000 0.00258652
v 0.01032244 0.00000000 -0.00643394
v -0.01017918 0.00000000 -0.00431431
v 0.00806792 -0.00000000 0.00443867
v 0.00733804 -0.00000000 0.00244729
v 0.00748504 -0.00000000 0.00209238
v 0.00907265 -0.00000000 0.00122687
v 0.00000059 0.00000000 -0.00003262
v 0.00752929 -0.00000000 0.00203471
v 0.00776315 -0.00000000 0.00420481
v 0.00745722 -0.00000000 0.00377522
v 0.00731022 -0.00000000 0.00251445
v 0.00987559 -0.00000000 0.00145183
v 0.00952068 -0.00000000 0.00130483
v 0.00693088 -0.00000000 0.01060199
v 0.01112613 -0.00000000 0.00875789
v 0.01069096 -0.00000000 0.00342031
v 0.00980843 -0.00000000 0.00451074
v 0.00848050 -0.00000000 0.00462993
v 0.00812559 -0.00000000 0.00448292
v 0.00890183 0.00000000 -0.00785453
v 0.00894324 0.00000000 -0.00782056
v 0.01132107 0.00000000 -0.00475916
v 0.01133901 0.00000000 -0.00470233
v 0.01196764 -0.00000000 0.00644395
v 0.01176387 -0.00000000 0.00734589
v 0.01176725 -0.00000000 0.00732967
v 0.01175235 -0.00000000 0.00738315
v 0.01078198 -0.00000000 0.00916849
v 0.00776315 0.00000000 -0.00427006
v 0.01051613 0.00000000 -0.00390762
v 0.00087559 -0.00000000 0.00445184
v 0.00118036 -0.00000000 0.00724906
v 0.00400059 0.00000000 -0.00953263
v 0.00534064 0.00000000 -0.00941959
v -0.01057781 -0.00000000 0.00946738
v -0.01059607 -0.00000000 0.00946738
v 0.01031081 0.00000000 -0.00645005
v 0.00966931 -0.00000000 0.00990071
v 0.00840297 -0.00000000 0.01039145
v 0.00000059 0.00000000 -0.00778263
v -0.00045235 0.00000000 -0.00772299
v -0.00087441 0.00000000 -0.00754817
v 0.00052068 0.00000000 -0.00769518
v 0.00812559 0.00000000 -0.00454817
v 0.00151613 0.00000000 -0.00515762
v -0.00051951 0.00000000 -0.00437007
v 0.00154395 0.00000000 -0.00684047
v 0.00087559 0.00000000 -0.00754817
v -0.00802819 -0.00000000 0.01048231
v -0.01199146 0.01971108 0.00612478
v -0.01194903 0.02031960 0.00630051
v -0.01170751 0.02171668 -0.00147424
v -0.01195126 0.02029783 -0.00152299
v -0.01160530 0.02152620 -0.00298801
v -0.01131627 0.02257464 -0.00286470
v -0.01080987 0.02283669 -0.00423383
v -0.01112470 0.02171720 -0.00442686
v -0.01178360 0.02043340 -0.00306536
v -0.01132140 0.02053405 -0.00454890
v -0.01038175 0.02183457 -0.00575939
v -0.01006588 0.02299749 -0.00550791
v -0.00911062 0.02305203 -0.00664331
v -0.00940452 0.02187442 -0.00693719
v -0.01058064 0.02059595 -0.00591866
v -0.00959041 0.02061697 -0.00712301
v -0.00883890 0.02186462 -0.00745344
v -0.00856378 0.02303859 -0.00714578
v -0.00797632 0.02299770 -0.00759802
v -0.00822799 0.02183474 -0.00791382
v -0.00838745 0.02059603 -0.00811259
v -0.00757770 0.02178527 -0.00831493
v -0.00735360 0.02292997 -0.00799684
v -0.00670140 0.02283629 -0.00833973
v -0.00689447 0.02171690 -0.00865417
v -0.00701660 0.02053390 -0.00885047
v -0.00618475 0.02163034 -0.00892895
v -0.00628521 0.02048827 -0.00911813
v -0.00545497 0.02152630 -0.00913668
v -0.00471158 0.02140548 -0.00927476
v -0.00395884 0.02132245 -0.00932974
v 0.00399093 0.02029777 -0.00948435
v -0.01084103 0.02287889 0.00917845
v -0.01125188 0.02222485 0.00858590
v -0.01130404 0.02231853 0.00846351
v -0.01092232 0.02299782 0.00903499
v -0.01098623 0.02311442 0.00888151
v -0.01044558 0.02367216 0.00956573
v -0.01033128 0.02352536 0.00972286
v -0.00979380 0.02424983 0.01012703
v -0.00986524 0.02433815 0.01004242
v -0.00998757 0.02450914 0.00985307
v -0.01053715 0.02381478 0.00939121
v -0.01008043 0.02466960 0.00963969
v -0.00939047 0.02528844 0.01013909
v -0.00932513 0.02519309 0.01025090
v -0.00853807 0.02585711 0.01055599
v -0.00861950 0.02596680 0.01043999
v -0.00944712 0.02537905 0.01001905
v -0.00869212 0.02606959 0.01031258
v -0.00826699 0.02640264 0.01041435
v -0.00769539 0.02657964 0.01064304
v -0.00780954 0.02672518 0.01047960
v -0.00791029 0.02685363 0.01029485
v -0.00840077 0.02659134 0.01011942
v -0.00796264 0.02692037 0.01017746
v -0.00620411 0.02792286 0.01029485
v -0.00631499 0.02814979 0.00987212
v -0.00400179 0.02868354 0.01029485
v -0.00405459 0.02893052 0.00987212
v -0.00637717 0.02827703 0.00940050
v -0.00814724 0.02715572 0.00945607
v -0.00806616 0.02705235 0.00987212
v -0.00849281 0.02673621 0.00978513
v -0.00880798 0.02625064 0.01002661
v -0.00888182 0.02639442 0.00970645
v -0.00957855 0.02568199 0.00946985
v -0.00953237 0.02554344 0.00975662
v -0.01014136 0.02481595 0.00940571
v -0.01060455 0.02395094 0.00920148
v -0.01064639 0.02407839 0.00899875
v -0.01103203 0.02322737 0.00871927
v -0.01138803 0.02258993 0.00806860
v -0.01139102 0.02267499 0.00793002
v -0.01181801 0.02118277 0.00693034
v -0.01150145 0.02243032 0.00744901
v -0.01180525 0.02127866 0.00680512
v -0.01156887 0.02222041 -0.00144652
v -0.01123822 0.02314431 -0.00138039
v -0.01092660 0.02356387 -0.00270204
v -0.01039224 0.02387335 -0.00398178
v -0.00988973 0.02481455 -0.00368454
v -0.00915803 0.02501731 -0.00479473
v -0.00965102 0.02406291 -0.00518020
v -0.00872688 0.02412710 -0.00625953
v -0.00827422 0.02508587 -0.00580684
v -0.00820511 0.02411126 -0.00674302
v -0.00731515 0.02590706 -0.00573548
v -0.00777158 0.02592389 -0.00530420
v -0.00667917 0.02726530 -0.00421184
v -0.00591283 0.02720923 -0.00492190
v -0.00683599 0.02585611 -0.00613823
v -0.00764845 0.02406313 -0.00718318
v -0.00706154 0.02398335 -0.00757710
v -0.00644933 0.02387290 -0.00792244
v -0.00633718 0.02577157 -0.00651032
v -0.00582197 0.02565423 -0.00684996
v -0.00581682 0.02373279 -0.00821688
v -0.00529364 0.02550494 -0.00715532
v -0.00516897 0.02356399 -0.00845808
v -0.00475543 0.02532449 -0.00742460
v -0.00451077 0.02336750 -0.00864371
v -0.00421061 0.02511371 -0.00765600
v -0.00366243 0.02487343 -0.00784770
v -0.00380251 0.02364447 -0.00854811
v -0.00382948 0.02335130 -0.00868298
v -0.00384717 0.02314431 -0.00877143
v 0.00391447 0.02222034 -0.00910202
v 0.00394230 0.02171408 -0.00924115
v 0.00533272 0.02257479 -0.00884957
v 0.00545627 0.02152526 -0.00913874
v 0.00553349 0.02043285 -0.00931693
v 0.00689541 0.02171566 -0.00865847
v 0.00670190 0.02283702 -0.00834325
v 0.00797603 0.02299795 -0.00759930
v 0.00822814 0.02183267 -0.00791573
v 0.00701717 0.02053315 -0.00885490
v 0.00838702 0.02059483 -0.00811425
v 0.00940600 0.02187239 -0.00693856
v 0.00911146 0.02305252 -0.00664404
v 0.00961395 0.02303908 -0.00609718
v 0.00992224 0.02186262 -0.00637293
v 0.00959142 0.02061578 -0.00712405
v 0.01058096 0.02059492 -0.00592105
v 0.01038259 0.02183283 -0.00576196
v 0.01006618 0.02299816 -0.00550970
v 0.01046499 0.02293036 -0.00488696
v 0.01078361 0.02178351 -0.00511159
v 0.01080786 0.02283662 -0.00423473
v 0.01112275 0.02171535 -0.00442825
v 0.01131874 0.02053299 -0.00455011
v 0.01160492 0.02152535 -0.00298847
v 0.01174278 0.02140491 -0.00224492
v 0.01179726 0.02132338 -0.00149196
v 0.01198579 0.01985734 0.00614674
v 0.01194045 0.01990690 0.00658732
v 0.01189545 0.02029114 0.00680355
v 0.01178692 0.02107313 0.00723438
v 0.01157151 0.02171993 0.00790074
v 0.01179519 0.02112537 0.00717013
v 0.01180008 0.02117736 0.00710531
v 0.01159409 0.02179261 0.00780144
v 0.01134411 0.02257348 0.00824326
v 0.01131500 0.02248060 0.00837734
v 0.01095520 0.02317256 0.00891513
v 0.01100203 0.02328739 0.00875104
v 0.01050637 0.02386173 0.00941640
v 0.01057472 0.02399945 0.00922523
v 0.01005088 0.02470861 0.00965911
v 0.01061715 0.02412818 0.00902070
v 0.01011245 0.02485596 0.00942357
v 0.00942019 0.02540871 0.01003432
v 0.00995707 0.02454678 0.00987344
v 0.00929737 0.02522155 0.01026663
v 0.00892361 0.02555134 0.01042877
v 0.00906195 0.02575145 0.01018990
v 0.00851925 0.02587401 0.01056215
v 0.00867361 0.02608719 0.01031863
v 0.00873680 0.02618235 0.01018036
v 0.00825404 0.02641428 0.01041637
v 0.00790311 0.02686017 0.01029485
v 0.00878974 0.02626864 0.01003215
v 0.00801756 0.02700642 0.01000936
v 0.00619877 0.02792605 0.01029485
v 0.00630948 0.02815305 0.00987212
v 0.00405239 0.02893124 0.00987212
v 0.00399968 0.02868424 0.01029485
v 0.00604615 0.02761308 0.01064304
v 0.00780250 0.02673162 0.01047960
v 0.00768852 0.02658596 0.01064304
v 0.00808331 0.02618799 0.01066247
v 0.00761585 0.02649309 0.01072822
v 0.00742800 0.02625305 0.01089561
v 0.00788274 0.02593345 0.01085309
v 0.00833268 0.02563687 0.01075676
v 0.00765944 0.02565975 0.01098184
v 0.00717127 0.02592499 0.01102708
v 0.00754149 0.02551856 0.01102103
v 0.00811995 0.02538358 0.01089656
v 0.00788712 0.02512193 0.01097567
v 0.00855252 0.02509751 0.01077386
v 0.00875212 0.02533116 0.01062519
v 0.00914166 0.02501781 0.01046278
v 0.00950193 0.02469829 0.01027393
v 0.00895719 0.02480298 0.01061807
v 0.00933397 0.02450142 0.01043348
v 0.00895154 0.02443951 0.01064315
v 0.00914092 0.02430008 0.01055458
v 0.00931052 0.02416968 0.01046679
v 0.00894485 0.00120720 0.01064188
v 0.00950766 0.02401089 0.01035402
v 0.00984753 0.02371641 0.01013009
v 0.01000403 0.02388293 0.00999513
v 0.00968290 0.02419425 0.01022440
v 0.00983356 0.02437411 0.01006303
v 0.01041354 0.02371735 0.00959186
v 0.01029765 0.02356861 0.00974925
v 0.01080668 0.02293272 0.00921410
v 0.01088982 0.02305388 0.00906994
v 0.01121918 0.02228948 0.00863016
v 0.01127324 0.02238568 0.00850653
v 0.01130775 0.02193972 0.00848821
v 0.01115320 0.02219275 0.00874751
v 0.01083375 0.02264837 0.00919352
v 0.01083533 0.00060821 0.00918911
v 0.01064567 0.00075209 0.00941263
v 0.01003844 0.00101914 0.00998283
v 0.01070654 0.02281044 0.00934624
v 0.01046987 0.02308924 0.00960084
v 0.01016016 0.02341781 0.00988624
v 0.00998308 0.02359057 0.01002924
v 0.00947280 0.00114277 0.01037115
v 0.00925667 0.00117347 0.01049148
v 0.00940334 0.00084876 0.01038520
v 0.00863702 0.00090916 0.01073751
v 0.00857844 0.00059799 0.01067678
v 0.00777312 0.00060581 0.01087891
v 0.00773630 0.00029890 0.01074612
v 0.00850446 0.00030329 0.01056971
v 0.00931223 0.00056139 0.01035978
v 0.00920172 0.00028741 0.01029553
v 0.00994308 0.00046666 0.00996220
v 0.01043891 0.00028790 0.00954107
v 0.01006558 0.00072043 0.00993665
v 0.01058666 0.00049642 0.00945377
v 0.01100528 0.00042923 0.00896429
v -0.00983397 0.00027499 0.00996126
v -0.01043098 0.00027338 0.00954735
v -0.00993514 0.00044918 0.00996411
v -0.01053965 0.00042104 0.00948917
v -0.01002561 0.00062880 0.00995068
v -0.01010441 0.00081197 0.00992118
v -0.00971598 0.00069837 0.01017538
v -0.00983565 0.00107337 0.01013897
v -0.00937514 0.00074661 0.01038276
v -0.00954650 0.00031976 0.01014400
v -0.00922956 0.00034707 0.01031464
v -0.00900764 0.00077788 0.01056659
v -0.00928025 0.00117099 0.01048204
v -0.00908677 0.00119330 0.01057904
v -0.00896920 0.00120486 0.01063298
v -0.00954214 0.02397893 0.01033551
v -0.00994760 0.02361933 0.01006006
v -0.00963194 0.02406976 0.01027399
v -0.01026605 0.02345111 0.00979421
v -0.00971593 0.02416021 0.01020436
v -0.00888558 0.02466897 0.01066568
v -0.00898686 0.02477787 0.01060391
v -0.00908196 0.02488541 0.01053096
v -0.00813926 0.02536867 0.01089138
v -0.00824842 0.02549630 0.01082830
v -0.00717741 0.02591925 0.01102708
v -0.00729483 0.02606895 0.01097945
v -0.00586567 0.02723021 0.01089561
v -0.00743451 0.02624703 0.01089561
v -0.00835178 0.02562090 0.01075088
v -0.00844858 0.02574150 0.01065987
v -0.00925159 0.02509368 0.01035386
v -0.00917037 0.02499089 0.01044741
v -0.00762263 0.02648688 0.01072822
v -0.00605125 0.02761003 0.01064304
v -0.00384061 0.02792964 0.01089561
v -0.00392899 0.02834303 0.01064304
v -0.00199941 0.02831764 0.01079754
v -0.00199941 0.02854700 0.01064304
v -0.00199941 0.02873185 0.01047970
v -0.00199941 0.02889519 0.01029485
v -0.00199941 0.02904969 0.01006549
v 0.00200059 0.02889519 0.01029485
v 0.00200059 0.02904969 0.01006549
v -0.00199941 0.02914775 0.00987212
v -0.00199941 0.02924948 0.00958312
v -0.00408420 0.02906901 0.00940050
v -0.00199941 0.02928937 0.00940050
v 0.00200059 0.02924948 0.00958312
v 0.00200059 0.02928937 0.00940050
v -0.00199941 0.02931764 0.00906549
v -0.00409011 0.02909664 0.00906549
v -0.00322208 0.02924191 0.00022284
v -0.00395040 0.02912439 0.00007718
v -0.00356585 0.02918320 -0.00031682
v -0.00547470 0.02868151 -0.00069920
v -0.00511058 0.02877139 -0.00109859
v -0.00661230 0.02806786 -0.00187657
v -0.00710382 0.02788495 -0.00126326
v -0.00755477 0.02763153 -0.00064370
v -0.00603192 0.02846847 -0.00033912
v -0.00582670 0.02855604 -0.00029808
v -0.00563954 0.02863123 -0.00026065
v -0.00603259 0.02846824 0.00906549
v -0.00638957 0.02830242 0.00906549
v -0.00817100 0.02718601 0.00906549
v -0.00815356 0.02716378 0.00940050
v -0.00934827 0.02609807 0.00891480
v -0.00891234 0.02649730 0.00936347
v -0.00958532 0.02579174 0.00916679
v -0.00989218 0.02545627 0.00873217
v -0.01053591 0.02452373 0.00839544
v -0.01065152 0.02430006 0.00856586
v -0.01066198 0.02419525 0.00878576
v -0.01138151 0.02275648 0.00778941
v -0.01115448 0.02333824 0.00788497
v -0.01135961 0.02283395 0.00764775
v -0.01114961 0.02335166 -0.00136267
v -0.01084208 0.02398766 -0.00130116
v -0.01044831 0.02448282 -0.00250767
v -0.00989304 0.02532441 -0.00228852
v -0.00931904 0.02565461 -0.00335448
v -0.00860599 0.02585594 -0.00436807
v -0.00869543 0.02639597 -0.00300218
v -0.00738950 0.02720913 -0.00344522
v -0.00803185 0.02704208 -0.00263617
v -0.00608507 0.02817837 -0.00247768
v -0.00552746 0.02821542 -0.00306023
v -0.00435245 0.02884350 -0.00188538
v -0.00494504 0.02817842 -0.00361766
v -0.00510353 0.02704185 -0.00556343
v -0.00434379 0.02806773 -0.00414438
v -0.00356564 0.02877135 -0.00264313
v -0.00373013 0.02788491 -0.00463594
v -0.00316604 0.02868146 -0.00300724
v -0.00280584 0.02846862 -0.00356478
v -0.00296474 0.02807545 -0.00435928
v 0.00280708 0.02846844 -0.00356511
v 0.00311167 0.02763156 -0.00508803
v 0.00316730 0.02868069 -0.00300796
v 0.00276603 0.02855604 -0.00335982
v 0.00272743 0.02863348 -0.00316687
v 0.00239077 0.02912439 -0.00148355
v 0.00278492 0.02918244 -0.00109917
v 0.00356681 0.02876995 -0.00264398
v 0.00434451 0.02806767 -0.00414545
v 0.00373121 0.02788486 -0.00463701
v 0.00400348 0.02736666 -0.00540335
v 0.00510389 0.02704298 -0.00556481
v 0.00591284 0.02721023 -0.00492234
v 0.00547010 0.02639595 -0.00622857
v 0.00683659 0.02585309 -0.00613971
v 0.00777276 0.02592083 -0.00530537
v 0.00726365 0.02501296 -0.00669213
v 0.00827581 0.02508119 -0.00580844
v 0.00764848 0.02406181 -0.00718457
v 0.00872784 0.02412593 -0.00626046
v 0.00921133 0.02411012 -0.00573869
v 0.00820401 0.02590407 -0.00484894
v 0.00965145 0.02406203 -0.00518200
v 0.01004532 0.02398234 -0.00459505
v 0.00860672 0.02585328 -0.00436975
v 0.00897875 0.02576899 -0.00387089
v 0.01039059 0.02387203 -0.00398279
v 0.00931829 0.02565200 -0.00335561
v 0.01068496 0.02373207 -0.00335022
v 0.00962355 0.02550314 -0.00282719
v 0.01092608 0.02356347 -0.00270230
v 0.00989271 0.02532322 -0.00228887
v 0.01111163 0.02336720 -0.00204402
v 0.01012397 0.02511302 -0.00174392
v 0.01031552 0.02487340 -0.00119561
v 0.01101417 0.02364785 -0.00133534
v 0.01115077 0.02335124 -0.00136266
v 0.01123928 0.02314425 -0.00138036
v 0.01178545 0.02138079 0.00684264
v 0.01185849 0.02099874 0.00661384
v 0.01179879 0.02129027 0.00696136
v 0.01191479 0.02062563 0.00642027
v 0.01179958 0.02128015 0.00697444
v 0.01136316 0.02275030 0.00796346
v 0.01117612 0.02328876 0.00785355
v 0.01103749 0.02350017 0.00840087
v 0.01099519 0.02368364 0.00803394
v 0.01062231 0.02435141 0.00858359
v 0.01063295 0.02424601 0.00880568
v 0.01014045 0.02498583 0.00917128
v 0.00950604 0.02557380 0.00977064
v 0.00955253 0.02571247 0.00948197
v 0.00955936 0.02582178 0.00917658
v 0.00886379 0.02641251 0.00971116
v 0.00883212 0.02634551 0.00987526
v 0.00805876 0.02705907 0.00987212
v 0.00889447 0.02651513 0.00936709
v 0.00813972 0.02716253 0.00945607
v 0.00637156 0.02828036 0.00940050
v 0.00814604 0.02717061 0.00940050
v 0.00638394 0.02830575 0.00906549
v 0.00816345 0.02719285 0.00906549
v 0.00890243 0.02655221 0.00900820
v 0.00814566 0.02720540 -0.00076164
v 0.00682697 0.02807560 -0.00049790
v 0.00787011 0.02736665 -0.00153561
v 0.00710392 0.02788482 -0.00126333
v 0.00603274 0.02846859 -0.00033905
v 0.00603376 0.02846824 0.00906549
v 0.00582778 0.02855604 -0.00029806
v 0.00447843 0.02900467 -0.00002819
v 0.00395152 0.02912439 0.00007719
v 0.00511129 0.02876990 -0.00109911
v 0.00356693 0.02918244 -0.00031704
v 0.00435369 0.02884152 -0.00188600
v 0.00317765 0.02920169 -0.00070978
v 0.00200059 0.02931764 0.00046738
v 0.00367504 0.02917545 0.00013249
v 0.00200059 0.02931764 0.00906549
v 0.00408785 0.02909737 0.00906549
v 0.00408196 0.02906974 0.00940050
v -0.00199941 0.02931764 0.00046738
v 0.00224378 0.02924273 -0.00074859
v 0.00233546 0.02917548 -0.00120698
v -0.00238961 0.02912439 -0.00148361
v -0.00249503 0.02900464 -0.00201069
v -0.00278369 0.02918319 -0.00109885
v -0.00317637 0.02920271 -0.00070950
v 0.00494559 0.02817812 -0.00361820
v 0.00552812 0.02821513 -0.00306059
v 0.00667942 0.02726648 -0.00421197
v 0.00738953 0.02721033 -0.00344566
v 0.00608556 0.02817816 -0.00247819
v 0.00803120 0.02704272 -0.00263648
v 0.00661232 0.02806755 -0.00187697
v 0.00547526 0.02868064 -0.00069938
v 0.00832342 0.02691827 -0.00222027
v 0.00859499 0.02676737 -0.00179873
v 0.00884478 0.02659047 -0.00137365
v 0.00907162 0.02638809 -0.00094683
v 0.00968954 0.02571186 -0.00107042
v 0.00988829 0.02546517 -0.00111016
v 0.00988805 0.02546061 0.00873179
v 0.01001614 0.02529272 0.00867605
v 0.01058542 0.02444286 0.00835794
v 0.00834409 0.02704673 -0.00080133
v 0.00885217 0.02660059 -0.00090294
v 0.01102957 0.02339699 0.00857906
v 0.01139738 0.02162906 -0.00371840
v 0.01158633 0.02048752 -0.00381865
v 0.00644998 0.02387247 -0.00792569
v 0.00615323 0.02481113 -0.00742354
v 0.00517011 0.02356335 -0.00845989
v 0.00497601 0.02448084 -0.00798171
v 0.00582289 0.02565239 -0.00685259
v 0.00475671 0.02532313 -0.00742635
v 0.00451849 0.02608625 -0.00680517
v 0.00357806 0.02546560 -0.00742000
v 0.00366357 0.02487340 -0.00784755
v 0.00376912 0.02398705 -0.00837530
v -0.00357695 0.02546515 -0.00742031
v 0.00354669 0.02566157 -0.00726316
v -0.00353733 0.02571101 -0.00722219
v -0.00341359 0.02638804 -0.00660351
v 0.00348988 0.02599228 -0.00697908
v 0.00426659 0.02676735 -0.00612837
v 0.00322969 0.02720504 -0.00567815
v 0.00316534 0.02744562 -0.00535639
v -0.00322841 0.02720531 -0.00567764
v -0.00326809 0.02704669 -0.00587601
v -0.00400250 0.02736624 -0.00540215
v -0.00384048 0.02659016 -0.00637675
v -0.00426564 0.02676683 -0.00612704
v -0.00468726 0.02691755 -0.00585555
v -0.00336965 0.02660079 -0.00638381
v 0.00383060 0.02335159 -0.00868265
v -0.00276487 0.02855604 -0.00335991
v -0.00787020 0.02736626 -0.00153562
v -0.00859523 0.02676681 -0.00179874
v -0.00927197 0.02608623 -0.00205055
v -0.00972989 0.02566155 -0.00107872
v -0.00988677 0.02546559 -0.00111009
v -0.01031448 0.02487343 -0.00119564
v -0.00944405 0.02599414 -0.00102155
v -0.00834280 0.02704669 -0.00080130
v -0.00814488 0.02720497 -0.00076172
v -0.00782935 0.02744111 -0.00069861
v -0.01016907 0.02494530 0.00915543
v 0.00200059 0.02914775 0.00987212
v 0.00200059 0.02873185 0.01047970
v 0.00392700 0.02834370 0.01064304
v 0.00200059 0.02854700 0.01064304
v 0.00200059 0.02831764 0.01079754
v 0.00383876 0.02793030 0.01089561
v 0.00586085 0.02723313 0.01089561
v 0.00565412 0.02680924 0.01103723
v 0.00713734 0.02588164 0.01103723
v 0.00693088 0.02561782 0.01106549
v 0.00550728 0.02650813 0.01106549
v 0.00693088 0.00127684 0.01106549
v 0.00367040 0.02714143 0.01106549
v 0.00200059 0.02731764 0.01106549
v -0.00693668 0.00127684 0.01106549
v -0.00693668 0.00091393 0.01103228
v -0.00738093 0.00127475 0.01104521
v -0.00743306 0.02536664 0.01104121
v -0.00758272 0.02528759 0.01102421
v -0.00755414 0.02550886 0.01101963
v -0.00781866 0.02515801 0.01098804
v -0.00782203 0.00126723 0.01098520
v -0.00814313 0.00125711 0.01091617
v -0.00790650 0.02510815 0.01097160
v -0.00802503 0.02523895 0.01093939
v -0.00877781 0.02455995 0.01071600
v -0.00897505 0.02442036 0.01063311
v -0.00867892 0.00122841 0.01075088
v -0.00821271 0.00080940 0.01084611
v -0.00779424 0.00081532 0.01093685
v 0.00693088 0.00029454 0.01080763
v 0.00693088 0.00043701 0.01088061
v -0.00693668 0.00081748 0.01101202
v 0.00693088 0.00091393 0.01103228
v -0.00736748 0.00081739 0.01099258
v 0.00780132 0.00093156 0.01095950
v 0.00708538 0.00127658 0.01106303
v 0.00742053 0.02537601 0.01104236
v 0.00779900 0.00126715 0.01098905
v 0.00819939 0.02493767 0.01090528
v 0.00874808 0.02458257 0.01072774
v 0.00823893 0.00125262 0.01089119
v 0.00867852 0.00122850 0.01075012
v -0.00888689 0.00036097 0.01046751
v -0.00852273 0.00036655 0.01059786
v -0.00861861 0.00079761 0.01072209
v -0.00714344 0.02587595 0.01103723
v -0.00693668 0.02561235 0.01106549
v -0.00551154 0.02650546 0.01106549
v -0.00565862 0.02680647 0.01103723
v -0.00367197 0.02714083 0.01106549
v -0.00374201 0.02746845 0.01103723
v -0.00199941 0.02731764 0.01106549
v -0.00199941 0.02765264 0.01103723
v -0.00199941 0.02783527 0.01099734
v -0.00199941 0.02812427 0.01089561
v 0.00200059 0.02783527 0.01099734
v 0.00200059 0.02812427 0.01089561
v 0.00374033 0.02746906 0.01103723
v 0.00200059 0.02765264 0.01103723
v -0.01027460 0.02329522 0.00979114
v -0.01074310 0.02275898 0.00931061
v -0.01008851 0.00100362 0.00994471
v -0.00947447 0.00114349 0.01037371
v -0.01181842 0.02108503 0.00705477
v -0.01193549 0.01997217 0.00661633
v -0.01185868 0.02052439 0.00697982
v -0.01180652 0.02098606 0.00717764
v -0.01163322 0.02178203 0.00765609
v -0.01159752 0.02164245 0.00785174
v -0.01137242 0.02250177 0.00820422
v -0.00728271 -0.00000000 0.01058277
v 0.01188617 0.00000000 -0.00288020
v -0.01028735 0.00000000 -0.00647527
v 0.01188756 0.00000000 -0.00287267
v -0.00964099 -0.00000000 0.00991742
v -0.00716912 0.00000000 -0.00887105
v -0.01149117 -0.00000000 0.00812891
v -0.00703160 -0.00000000 0.01060062
v 0.00748504 0.01681764 0.00209238
v 0.00748504 0.01681764 0.00384238
v 0.00731022 0.01681764 0.00251445
v -0.00965659 0.01931763 -0.00718915
v -0.01068978 0.01681764 -0.00348556
v -0.01068978 0.01681764 -0.00257969
v -0.00730904 0.01681764 -0.00257969
v -0.00776198 0.01681764 -0.00179519
v -0.01051496 0.01681764 -0.00215762
v -0.00945235 0.01681764 -0.00134225
v -0.00730904 0.01681764 -0.00348556
v -0.00776198 0.01681764 -0.00427006
v -0.01023685 0.01681764 -0.00427006
v -0.00945235 0.01681764 -0.00472299
v -0.00854648 0.01681764 -0.00472299
v -0.01068978 0.01681764 0.00251445
v -0.01068978 0.01681764 0.00342031
v 0.00900058 0.01681764 0.00296737
v 0.00854766 0.01681764 0.00127701
v -0.00899941 0.01681764 0.00471737
v -0.00987441 0.01681764 0.00448292
v -0.00812441 0.01681764 0.00448292
v -0.01023685 0.01681764 0.00172994
v -0.00748387 0.01681764 0.00384238
v -0.00724941 0.01681764 0.00296737
v -0.01051496 0.01681764 0.00384238
v -0.00534699 0.00000000 -0.00941820
v -0.01177340 -0.00000000 0.00732392
v -0.01196492 -0.00000000 0.00645810
v -0.00980725 0.00000000 -0.00457599
v -0.00730904 0.00000000 -0.00257969
v -0.00752812 0.00000000 -0.00209995
v -0.00819157 0.00000000 -0.00148926
v -0.00987441 0.00000000 -0.00151708
v -0.00748387 0.00000000 -0.00215762
v -0.00993208 0.00000000 -0.00156133
v -0.01054277 0.00000000 -0.00222478
v -0.01073993 -0.00000000 0.00289530
v -0.01068978 -0.00000000 0.00251445
v -0.00854648 0.00000000 -0.00134225
v -0.01068978 -0.00000000 0.00342031
v -0.01028110 -0.00000000 0.00414714
v -0.01074941 -0.00000000 0.00296737
v -0.01051496 -0.00000000 0.00384238
v -0.00899941 -0.00000000 0.00471737
v -0.01023685 -0.00000000 0.00420481
v -0.01069927 -0.00000000 0.00334824
v -0.00854648 -0.00000000 0.00465775
v -0.00861855 -0.00000000 0.00466723
v -0.00776198 -0.00000000 0.00420481
v -0.00725890 -0.00000000 0.00303944
v -0.00781965 -0.00000000 0.00424906
v -0.00771772 -0.00000000 0.00178760
v -0.00776198 -0.00000000 0.00172994
v -0.00724941 -0.00000000 0.00296737
v -0.00812441 -0.00000000 0.00145183
v -0.00899941 -0.00000000 0.00121737
v -0.00806674 -0.00000000 0.00149608
v -0.01017918 -0.00000000 0.00168569
v -0.01023685 -0.00000000 0.00172994
v -0.00854648 -0.00000000 0.00127701
v -0.01051496 -0.00000000 0.00209238
v -0.00987441 -0.00000000 0.00145183
v -0.01047070 -0.00000000 0.00203471
v -0.00938028 -0.00000000 0.00126752
v -0.00847932 -0.00000000 0.00130483
v -0.00945235 -0.00000000 0.00127701
v -0.00748387 -0.00000000 0.00209238
v -0.00729955 -0.00000000 0.00258652
v -0.00745605 -0.00000000 0.00215954
v -0.00730904 -0.00000000 0.00342031
v -0.00748387 -0.00000000 0.00384238
v -0.00733686 -0.00000000 0.00348747
v -0.00819157 -0.00000000 0.00451074
v -0.00945235 -0.00000000 0.00465775
v -0.00752812 -0.00000000 0.00390005
v -0.00781965 0.00000000 -0.00175093
v -0.00812441 0.00000000 -0.00151708
v -0.00987441 -0.00000000 0.00448292
v -0.00729955 0.00000000 -0.00341349
v -0.00993208 -0.00000000 0.00443867
v 0.00782082 -0.00000000 0.00168569
v -0.00771772 0.00000000 -0.00421239
v -0.00945235 0.00000000 -0.00134225
v 0.00776315 -0.00000000 0.00172994
v 0.00726008 -0.00000000 0.00289530
v -0.00748387 0.00000000 -0.00390762
v 0.00730073 -0.00000000 0.00334824
v -0.00733686 0.00000000 -0.00251253
v 0.00725059 -0.00000000 0.00296737
v -0.00951951 0.00000000 -0.00137007
v -0.01054277 -0.00000000 0.00377522
v -0.00951951 -0.00000000 0.00462993
v -0.01066197 -0.00000000 0.00244729
v -0.00730904 -0.00000000 0.00251445
v 0.00861973 -0.00000000 0.00126752
v -0.00980725 -0.00000000 0.00142401
v 0.00900058 -0.00000000 0.00121737
v -0.00892734 -0.00000000 0.00122687
v 0.00854766 -0.00000000 0.00127701
v -0.00812441 -0.00000000 0.00448292
v 0.00819275 -0.00000000 0.00142401
v -0.00907148 -0.00000000 0.00470789
v 0.00812559 -0.00000000 0.00145183
v -0.01051496 0.00000000 -0.00215762
v -0.01066197 0.00000000 -0.00355271
v -0.00847932 0.00000000 -0.00469518
v -0.00854648 0.00000000 -0.00472299
v -0.00899941 0.00000000 -0.00478262
v -0.00745605 0.00000000 -0.00384046
v -0.00812441 0.00000000 -0.00454817
v -0.00806674 0.00000000 -0.00450392
v -0.00945235 0.00000000 -0.00472299
v -0.01188500 0.00000000 -0.00288018
v -0.00891684 0.00000000 -0.00784284
v -0.00372646 0.00000000 -0.00953263
v -0.00533946 0.00000000 -0.00941959
v -0.01068978 0.00000000 -0.00348556
v -0.01074941 0.00000000 -0.00303262
v -0.01073993 0.00000000 -0.00310469
v -0.00399941 0.00000000 -0.00953263
v -0.00719510 0.00000000 -0.00886454
v -0.01199941 0.00000000 -0.00127257
v -0.01188638 0.00000000 -0.00287267
v -0.00128110 -0.00000000 0.00714714
v -0.00151496 -0.00000000 0.00684238
v -0.00007148 -0.00000000 0.00770789
v 0.00000059 -0.00000000 0.00771738
v -0.00123685 -0.00000000 0.00472994
v -0.00123685 -0.00000000 0.00720481
v 0.00038146 -0.00000000 0.00766724
v 0.00087559 -0.00000000 0.00748292
v -0.00168978 -0.00000000 0.00642031
v -0.00051951 -0.00000000 0.00762992
v -0.00087441 -0.00000000 0.00748292
v -0.00093208 -0.00000000 0.00743867
v 0.00080843 -0.00000000 0.00751074
v -0.00154277 -0.00000000 0.00677522
v -0.00166197 -0.00000000 0.00544728
v 0.00045352 -0.00000000 0.00765775
v -0.00045235 -0.00000000 0.00765775
v 0.01023802 0.01681764 0.00420481
v -0.00399941 0.01931763 -0.00953263
v -0.00632167 0.01931763 -0.00918815
v -0.00972303 0.00010815 0.00994194
v 0.01094572 0.00016955 0.00902403
v 0.01026872 0.00008712 0.00960097
v 0.00000059 0.01681764 -0.00778263
v 0.00087559 0.01681764 -0.00754817
v -0.00045235 0.01681764 -0.00772299
v 0.00854766 0.01681764 -0.00472299
v 0.00045352 0.01681764 -0.00772299
v 0.00812559 0.01681764 -0.00454817
v 0.00776315 0.01681764 -0.00427006
v 0.00900058 0.01681764 -0.00303262
v 0.00731022 0.01681764 -0.00348556
v 0.00725059 0.01681764 -0.00303262
v 0.00776315 0.01681764 -0.00179519
v 0.00748504 0.01681764 -0.00390762
v -0.00087441 0.01681764 -0.00754817
v 0.00812559 0.01681764 -0.00151708
v 0.00731022 0.01681764 -0.00257969
v 0.00854766 0.01681764 -0.00134225
v 0.00900058 0.01681764 -0.00128262
v 0.00945352 0.01681764 -0.00134225
v 0.00987559 0.01681764 -0.00151708
v 0.00748504 0.01681764 -0.00215762
v -0.00168978 0.01681764 -0.00648556
v -0.00123685 0.01681764 -0.00727006
v 0.00000059 0.01681764 -0.00603263
v -0.00168978 0.01681764 -0.00557969
v -0.00123685 0.01681764 -0.00479519
v 0.00123803 0.01681764 -0.00727006
v -0.00151496 0.01681764 -0.00690763
v -0.00174941 0.01681764 -0.00603263
v -0.00087441 0.01681764 -0.00451708
v 0.00151613 0.01681764 -0.00690763
v 0.00000059 0.01681764 -0.00428262
v 0.00087559 0.01681764 -0.00451708
v 0.00151613 0.01681764 -0.00515762
v 0.00175059 0.01681764 -0.00603263
v 0.00169095 0.01681764 -0.00648556
v -0.00151496 0.01681764 -0.00515762
v 0.00169095 0.01681764 -0.00557969
v 0.00123803 0.01681764 -0.00479519
v 0.00045352 0.01681764 -0.00434225
v -0.00045235 0.01681764 -0.00434225
f 429 430 431
f 432 429 431
f 433 432 431
f 431 434 433
f 434 435 433
f 433 435 436
f 436 437 433
f 438 437 436
f 439 438 436
f 436 440 439
f 440 441 439
f 439 441 442
f 442 443 439
f 444 443 442
f 445 444 442
f 442 446 445
f 446 447 445
f 445 447 448
f 448 449 445
f 450 449 448
f 451 450 448
f 450 451 452
f 452 453 450
f 453 454 450
f 454 453 455
f 456 454 455
f 456 455 457
f 463 462 461
f 463 461 464
f 465 463 464
f 466 465 464
f 467 466 464
f 467 468 466
f 468 469 466
f 466 469 470
f 470 471 466
f 472 471 470
f 473 472 470
f 470 474 473
f 474 475 473
f 473 475 476
f 476 477 473
f 478 477 476
f 479 478 476
f 476 480 479
f 480 481 479
f 479 481 482
f 482 483 479
f 484 483 482
f 484 482 485
f 486 484 485
f 485 487 486
f 487 488 486
f 486 488 489
f 489 490 486
f 490 491 486
f 491 490 492
f 483 491 492
f 493 483 492
f 492 494 493
f 494 495 493
f 493 495 496
f 496 478 493
f 495 497 496
f 496 497 472
f 472 477 496
f 497 498 472
f 498 497 499
f 500 498 499
f 501 500 499
f 501 499 502
f 503 501 502
f 503 502 504
f 505 503 504
f 505 504 506
f 431 505 506
f 506 504 507
f 506 507 508
f 506 508 434
f 434 508 509
f 508 510 509
f 509 510 511
f 511 512 509
f 512 435 509
f 440 435 512
f 513 440 512
f 514 513 512
f 515 513 514
f 516 515 514
f 514 517 516
f 517 518 516
f 516 518 519
f 519 520 516
f 520 521 516
f 521 520 522
f 522 447 521
f 451 447 522
f 523 451 522
f 522 524 523
f 524 525 523
f 523 525 526
f 526 452 523
f 526 525 527
f 528 526 527
f 527 529 528
f 529 530 528
f 528 530 458
f 529 531 530
f 531 532 530
f 530 532 533
f 533 534 530
f 534 535 530
f 530 535 459
f 535 536 459
f 536 537 459
f 537 536 538
f 537 538 539
f 539 460 537
f 540 460 539
f 541 540 539
f 539 542 541
f 542 543 541
f 541 543 544
f 544 545 541
f 546 545 544
f 547 546 544
f 544 548 547
f 548 549 547
f 547 549 550
f 550 551 547
f 552 551 550
f 553 552 550
f 550 554 553
f 554 555 553
f 555 556 553
f 556 555 557
f 557 558 556
f 558 559 556
f 556 559 552
f 568 567 566
f 565 568 566
f 569 568 565
f 569 570 568
f 570 569 571
f 572 570 571
f 573 572 571
f 573 571 574
f 575 573 574
f 575 574 576
f 577 575 576
f 577 576 578
f 577 578 579
f 579 580 577
f 580 581 577
f 582 581 580
f 583 582 580
f 583 580 584
f 585 583 584
f 586 585 584
f 587 586 584
f 588 586 587
f 589 588 587
f 587 590 589
f 590 591 589
f 592 589 591
f 592 591 593
f 593 594 592
f 594 595 592
f 592 595 596
f 596 597 592
f 596 598 597
f 597 598 588
f 598 599 588
f 598 600 599
f 600 601 599
f 601 602 599
f 599 602 585
f 602 603 585
f 604 603 602
f 605 604 602
f 605 606 604
f 606 607 604
f 606 608 607
f 608 609 607
f 607 609 610
f 607 610 603
f 603 610 583
f 609 611 610
f 610 611 582
f 611 612 582
f 612 611 613
f 614 612 613
f 613 615 614
f 614 615 616
f 617 614 616
f 617 616 618
f 619 617 618
f 618 620 619
f 619 620 621
f 619 621 622
f 621 623 622
f 622 623 614
f 623 621 624
f 581 623 624
f 581 624 575
f 612 623 581
f 624 621 625
f 625 626 624
f 626 627 624
f 624 627 573
f 626 628 627
f 628 629 627
f 627 629 572
f 631 630 628
f 632 631 628
f 632 633 631
f 634 633 632
f 635 634 632
f 632 636 635
f 636 637 635
f 637 638 635
f 635 638 639
f 640 635 639
f 640 639 641
f 640 641 642
f 642 641 643
f 644 642 643
f 643 645 644
f 645 646 644
f 644 646 647
f 647 648 644
f 649 648 647
f 651 652 650
f 652 648 650
f 642 648 652
f 635 642 652
f 635 652 653
f 652 651 653
f 653 654 633
f 655 657 656
f 657 658 656
f 658 657 659
f 661 660 659
f 662 660 661
f 663 662 661
f 661 664 663
f 664 665 663
f 663 665 666
f 667 663 666
f 668 667 666
f 668 666 669
f 668 669 670
f 671 668 670
f 671 670 672
f 673 671 672
f 467 673 672
f 672 674 467
f 672 675 674
f 675 676 674
f 674 676 468
f 676 677 468
f 677 676 678
f 679 677 678
f 679 678 680
f 681 679 680
f 680 682 681
f 682 683 681
f 683 684 681
f 684 683 685
f 686 684 685
f 474 686 685
f 687 684 686
f 469 687 686
f 677 687 469
f 684 687 679
f 685 683 475
f 683 688 475
f 688 683 682
f 689 688 682
f 682 690 689
f 690 691 689
f 689 691 485
f 485 481 689
f 690 692 691
f 692 693 691
f 691 693 694
f 691 694 487
f 694 695 487
f 487 695 696
f 695 697 696
f 697 698 696
f 696 698 699
f 696 699 488
f 488 699 700
f 701 488 700
f 702 701 700
f 700 703 702
f 703 704 702
f 702 704 705
f 706 702 705
f 706 705 707
f 708 706 707
f 708 707 709
f 710 708 709
f 709 711 710
f 711 712 710
f 712 713 710
f 713 714 710
f 710 714 715
f 715 716 710
f 716 717 710
f 716 718 717
f 718 706 717
f 706 718 489
f 489 701 706
f 718 719 489
f 489 719 720
f 720 721 489
f 721 720 722
f 721 722 723
f 723 490 721
f 494 490 723
f 724 494 723
f 723 725 724
f 725 726 724
f 724 726 727
f 728 724 727
f 729 728 727
f 727 730 729
f 730 731 729
f 729 731 504
f 731 730 732
f 507 731 732
f 732 730 733
f 732 733 734
f 732 734 508
f 733 735 734
f 734 735 736
f 734 736 510
f 510 736 737
f 736 738 737
f 737 738 739
f 737 739 517
f 511 737 517
f 738 740 739
f 740 712 739
f 739 712 741
f 739 741 518
f 518 741 742
f 741 743 742
f 742 743 744
f 519 742 744
f 745 519 744
f 746 745 744
f 744 747 746
f 747 748 746
f 747 749 748
f 748 749 750
f 751 748 750
f 751 750 752
f 753 751 752
f 754 753 752
f 752 755 754
f 755 756 754
f 756 757 754
f 754 757 758
f 758 759 754
f 759 760 754
f 760 761 754
f 762 761 760
f 763 762 760
f 763 760 764
f 765 763 764
f 766 765 764
f 766 764 767
f 768 766 767
f 768 767 769
f 770 768 769
f 769 771 770
f 771 543 770
f 548 543 771
f 772 548 771
f 772 771 769
f 773 772 769
f 773 774 772
f 774 549 772
f 554 549 774
f 775 554 774
f 774 776 775
f 776 777 775
f 775 777 778
f 778 555 775
f 777 779 778
f 778 779 780
f 780 557 778
f 780 779 781
f 782 780 781
f 781 783 782
f 783 784 782
f 782 784 561
f 783 785 784
f 785 786 784
f 784 786 787
f 787 788 784
f 788 789 784
f 784 789 562
f 562 789 790
f 791 562 790
f 790 792 791
f 792 793 791
f 792 794 793
f 794 569 793
f 569 794 795
f 795 794 792
f 795 792 796
f 797 795 796
f 796 798 797
f 797 798 799
f 800 797 799
f 800 799 801
f 579 800 801
f 801 802 579
f 803 802 801
f 804 803 801
f 803 804 805
f 806 803 805
f 806 805 807
f 591 806 807
f 807 805 808
f 808 809 807
f 593 807 809
f 810 593 809
f 811 810 809
f 812 810 811
f 813 812 811
f 811 814 813
f 814 815 813
f 815 816 813
f 815 817 816
f 817 818 816
f 816 818 819
f 816 819 812
f 812 819 820
f 819 821 820
f 820 821 822
f 823 820 822
f 823 822 824
f 825 823 824
f 825 824 826
f 826 827 825
f 827 828 825
f 828 829 825
f 828 830 829
f 830 831 829
f 829 831 823
f 831 830 832
f 820 831 832
f 820 832 810
f 830 704 832
f 828 833 830
f 833 705 830
f 834 833 828
f 834 828 758
f 758 835 834
f 835 836 834
f 757 836 835
f 837 836 757
f 836 837 747
f 838 836 747
f 838 747 743
f 743 839 838
f 839 833 838
f 833 839 709
f 711 839 743
f 838 833 836
f 836 833 834
f 828 827 758
f 759 827 826
f 840 759 826
f 840 826 841
f 842 840 841
f 842 841 843
f 773 842 843
f 843 776 773
f 767 842 773
f 843 841 844
f 845 843 844
f 846 845 844
f 844 824 846
f 824 818 846
f 824 847 818
f 846 818 845
f 845 777 843
f 764 840 842
f 841 826 844
f 826 824 844
f 829 823 825
f 824 822 847
f 831 820 823
f 822 821 847
f 847 821 819
f 818 847 819
f 818 817 845
f 845 817 848
f 845 848 781
f 817 849 848
f 848 849 783
f 817 850 849
f 850 785 849
f 850 851 785
f 851 852 785
f 785 852 853
f 853 852 854
f 855 853 854
f 855 854 804
f 804 856 855
f 799 856 804
f 804 854 808
f 808 854 814
f 854 857 814
f 858 857 854
f 851 858 854
f 857 858 850
f 856 853 855
f 786 853 856
f 798 786 856
f 854 852 851
f 858 851 850
f 857 850 817
f 815 857 817
f 857 815 814
f 808 814 811
f 813 816 812
f 812 820 810
f 810 832 593
f 809 808 811
f 805 804 808
f 802 803 806
f 590 802 806
f 580 802 590
f 801 799 804
f 859 797 800
f 578 859 800
f 574 859 578
f 799 798 856
f 796 787 798
f 859 795 797
f 571 795 859
f 796 792 790
f 562 791 793
f 790 789 796
f 789 788 796
f 788 787 796
f 787 786 798
f 853 786 785
f 849 785 783
f 848 783 781
f 560 780 782
f 560 860 780
f 860 558 780
f 861 860 560
f 861 559 860
f 781 779 845
f 779 777 845
f 777 776 843
f 776 774 773
f 768 770 862
f 862 863 768
f 864 863 862
f 538 864 862
f 542 538 862
f 864 865 863
f 865 866 863
f 863 866 766
f 865 867 866
f 867 765 866
f 867 868 765
f 869 868 867
f 870 869 867
f 871 870 867
f 870 871 533
f 869 870 532
f 872 869 532
f 873 869 872
f 872 874 873
f 874 875 873
f 873 875 876
f 873 876 877
f 873 877 868
f 868 877 763
f 877 876 762
f 762 876 878
f 879 762 878
f 878 880 879
f 879 880 753
f 753 761 879
f 881 880 878
f 880 881 882
f 880 882 751
f 881 883 882
f 882 883 884
f 882 884 885
f 745 882 885
f 745 885 527
f 748 882 745
f 885 884 529
f 883 531 884
f 883 875 531
f 886 875 883
f 881 886 883
f 886 881 876
f 876 881 878
f 875 886 876
f 875 874 531
f 531 874 872
f 869 873 868
f 871 867 865
f 887 871 865
f 871 887 534
f 887 865 864
f 536 887 864
f 770 542 862
f 769 767 773
f 863 766 768
f 767 764 842
f 866 765 766
f 868 763 765
f 764 760 840
f 877 762 763
f 761 762 879
f 760 759 840
f 827 759 758
f 757 835 758
f 756 837 757
f 888 837 756
f 749 837 888
f 755 888 756
f 750 888 755
f 761 753 754
f 880 751 753
f 752 750 755
f 882 748 751
f 750 749 888
f 747 837 749
f 746 748 745
f 745 524 519
f 743 747 744
f 741 711 743
f 740 889 712
f 890 889 740
f 891 890 740
f 892 890 891
f 893 892 891
f 893 891 735
f 894 893 735
f 893 894 726
f 726 894 730
f 735 891 738
f 892 893 725
f 895 892 725
f 895 725 722
f 896 895 722
f 896 722 897
f 889 896 897
f 898 889 897
f 897 720 898
f 898 720 714
f 713 889 898
f 896 889 895
f 895 890 892
f 889 890 895
f 891 740 738
f 735 738 736
f 733 894 735
f 730 894 733
f 502 728 729
f 728 899 724
f 899 495 724
f 499 899 728
f 726 730 727
f 725 893 726
f 722 725 723
f 722 720 897
f 720 719 714
f 719 718 715
f 715 718 716
f 714 719 715
f 714 713 898
f 889 713 712
f 712 711 741
f 839 711 709
f 717 708 710
f 709 707 833
f 717 706 708
f 707 705 833
f 704 830 705
f 704 703 832
f 832 703 594
f 703 900 594
f 594 900 698
f 900 703 700
f 701 702 706
f 699 900 700
f 698 900 699
f 698 697 595
f 595 697 901
f 595 901 902
f 901 903 902
f 902 903 904
f 902 904 905
f 902 905 906
f 596 902 906
f 906 600 596
f 906 905 907
f 907 605 906
f 605 601 906
f 908 605 907
f 909 908 907
f 907 910 909
f 911 909 910
f 910 912 911
f 912 913 911
f 911 913 914
f 915 911 914
f 916 915 914
f 916 914 917
f 918 916 917
f 917 919 918
f 919 920 918
f 920 921 918
f 922 921 920
f 923 922 920
f 924 923 920
f 924 675 923
f 675 925 923
f 926 925 675
f 926 675 670
f 926 927 925
f 927 922 925
f 922 927 928
f 922 928 929
f 931 933 932
f 932 933 915
f 934 932 915
f 931 935 933
f 935 936 933
f 933 936 911
f 911 936 937
f 937 936 608
f 936 938 608
f 608 938 939
f 938 940 939
f 939 940 613
f 609 939 613
f 940 938 615
f 938 941 615
f 615 941 942
f 942 618 615
f 643 618 942
f 942 935 643
f 942 941 935
f 941 938 935
f 935 938 936
f 645 935 931
f 930 645 931
f 945 943 944
f 928 945 944
f 666 943 945
f 929 934 921
f 921 934 916
f 927 945 928
f 669 945 927
f 669 927 926
f 925 922 923
f 922 929 921
f 919 924 920
f 678 924 919
f 946 919 917
f 947 946 917
f 947 948 946
f 948 949 946
f 946 949 680
f 948 950 949
f 950 951 949
f 949 951 682
f 951 950 952
f 952 953 951
f 953 954 951
f 951 954 690
f 954 955 690
f 954 956 955
f 956 957 955
f 955 957 692
f 957 904 692
f 905 957 956
f 958 905 956
f 959 958 956
f 912 958 959
f 959 956 954
f 953 959 954
f 913 959 953
f 952 913 953
f 914 952 950
f 948 914 950
f 948 947 914
f 919 946 680
f 921 916 918
f 917 914 947
f 934 915 916
f 933 911 915
f 913 952 914
f 913 912 959
f 958 912 910
f 909 911 937
f 907 958 910
f 908 909 937
f 908 937 606
f 905 958 907
f 904 957 905
f 904 903 693
f 903 901 694
f 901 697 695
f 694 901 695
f 693 903 694
f 692 904 693
f 690 955 692
f 951 690 682
f 689 480 688
f 949 682 680
f 684 679 681
f 680 678 919
f 687 677 679
f 678 676 924
f 676 675 924
f 467 960 673
f 461 960 467
f 461 961 960
f 961 962 960
f 960 962 671
f 962 662 671
f 671 662 963
f 963 667 671
f 960 671 673
f 670 675 672
f 670 669 926
f 666 945 669
f 667 668 671
f 667 963 663
f 665 943 666
f 657 664 661
f 963 662 663
f 662 962 660
f 659 657 661
f 664 657 655
f 648 649 650
f 646 645 930
f 935 645 643
f 648 642 644
f 641 618 643
f 641 639 618
f 635 640 642
f 625 639 638
f 638 637 625
f 637 636 626
f 636 632 626
f 634 635 653
f 633 634 653
f 633 630 631
f 632 628 626
f 637 626 625
f 621 639 625
f 620 639 621
f 639 620 618
f 619 622 617
f 622 614 617
f 618 616 615
f 940 615 613
f 623 612 614
f 613 611 609
f 608 939 609
f 937 608 606
f 605 908 606
f 604 607 603
f 602 601 605
f 906 601 600
f 600 598 596
f 595 902 596
f 594 698 595
f 832 594 593
f 591 807 593
f 597 589 592
f 590 806 591
f 580 590 587
f 589 597 588
f 588 599 586
f 599 585 586
f 603 583 585
f 584 580 587
f 610 582 583
f 582 612 581
f 802 580 579
f 578 800 579
f 581 575 577
f 576 574 578
f 624 573 575
f 574 571 859
f 627 572 573
f 629 570 572
f 629 567 570
f 571 569 795
f 570 567 568
f 564 569 565
f 563 562 793
f 784 562 561
f 561 560 782
f 559 558 860
f 558 557 780
f 557 555 778
f 555 554 775
f 556 552 553
f 549 554 550
f 549 548 772
f 551 546 547
f 543 548 544
f 543 542 770
f 545 540 541
f 538 542 539
f 536 864 538
f 887 536 535
f 534 887 535
f 533 871 534
f 532 870 533
f 872 532 531
f 884 531 529
f 885 529 527
f 457 526 528
f 527 525 745
f 525 524 745
f 520 524 522
f 524 520 519
f 518 742 519
f 517 739 518
f 511 517 514
f 516 521 515
f 521 446 515
f 446 441 515
f 515 441 513
f 512 511 514
f 510 737 511
f 508 734 510
f 507 732 508
f 504 731 507
f 505 430 503
f 504 502 729
f 964 501 503
f 964 965 966
f 964 966 967
f 967 968 964
f 967 969 968
f 969 970 968
f 968 970 501
f 970 969 463
f 968 501 964
f 502 499 728
f 970 500 501
f 500 970 465
f 471 500 465
f 498 500 471
f 499 497 899
f 497 495 899
f 495 494 724
f 478 483 493
f 490 494 492
f 721 490 489
f 488 701 489
f 487 696 488
f 691 487 485
f 486 491 484
f 483 484 491
f 485 482 481
f 481 480 689
f 688 480 476
f 483 478 479
f 477 478 496
f 475 688 476
f 475 474 685
f 686 474 470
f 477 472 473
f 472 498 471
f 469 686 470
f 468 677 469
f 674 468 467
f 471 465 466
f 465 970 463
f 464 461 467
f 463 969 462
f 459 537 460
f 530 459 458
f 458 457 528
f 457 455 526
f 455 453 526
f 453 452 526
f 452 451 523
f 450 454 449
f 447 451 448
f 447 446 521
f 449 444 445
f 441 446 442
f 441 440 513
f 443 438 439
f 435 440 436
f 435 434 509
f 431 506 434
f 437 432 433
f 431 430 505
f 119 1060 1082
f 120 387 1063
f 981 1064 390
f 122 389 355
f 123 382 388
f 124 364 378
f 130 396 361
f 1120 377 365
f 133 367 395
f 139 374 368
f 138 372 369
f 140 385 371
f 1076 385 118
f 140 118 385
f 997 118 996
f 384 387 979
f 120 979 387
f 979 383 384
f 390 383 981
f 979 981 383
f 357 389 980
f 122 980 389
f 398 382 127
f 123 127 382
f 127 397 398
f 378 397 124
f 127 124 397
f 363 396 131
f 130 131 396
f 376 377 132
f 1120 132 377
f 132 375 376
f 395 375 133
f 132 133 375
f 370 374 137
f 139 137 374
f 391 372 145
f 138 145 372
f 145 392 391
f 371 392 140
f 145 140 392
f 996 118 140
f 140 145 996
f 145 138 996
f 137 373 370
f 369 373 138
f 137 138 373
f 996 138 137
f 137 139 996
f 139 135 996
f 368 379 139
f 135 139 379
f 135 379 366
f 366 367 135
f 133 135 367
f 996 135 133
f 133 132 996
f 132 1120 996
f 131 362 363
f 365 362 1120
f 131 1120 362
f 996 1120 131
f 131 130 996
f 130 128 996
f 361 360 130
f 128 130 360
f 128 360 359
f 359 364 128
f 124 128 364
f 996 128 124
f 124 127 996
f 127 123 996
f 980 356 357
f 388 356 123
f 980 123 356
f 996 123 980
f 980 122 996
f 122 121 996
f 355 1066 122
f 121 122 1066
f 121 1066 1068
f 1068 1064 121
f 981 121 1064
f 996 121 981
f 981 979 996
f 979 120 996
f 1063 1060 120
f 119 120 1060
f 996 120 119
f 119 997 996
f 1082 1080 119
f 997 119 1080
f 997 1080 1078
f 1078 1074 997
f 118 997 1074
f 118 1074 1076
f 995 1070 1019
f 99 1059 1024
f 100 1081 1053
f 101 1052 1026
f 102 1054 1028
f 103 1029 1049
f 1003 1047 1033
f 112 1031 1046
f 110 1044 1034
f 113 1043 1035
f 116 1037 1041
f 117 1072 1040
f 1017 1072 994
f 117 994 1072
f 98 97 994
f 1022 1070 1004
f 995 1004 1070
f 1057 1059 999
f 99 999 1059
f 999 1071 1057
f 1053 1071 100
f 999 100 1071
f 1079 1052 1000
f 101 1000 1052
f 1050 1054 1002
f 102 1002 1054
f 1002 1051 1050
f 1049 1051 103
f 1002 103 1051
f 1073 1047 104
f 1003 104 1047
f 104 1048 1073
f 1046 1048 112
f 104 112 1048
f 1039 1044 107
f 110 107 1044
f 1045 1043 115
f 113 115 1043
f 115 1075 1045
f 1041 1075 116
f 115 116 1075
f 994 117 98
f 117 1001 98
f 1040 1042 117
f 1001 117 1042
f 1001 1042 1038
f 1038 1037 1001
f 116 1001 1037
f 98 1001 116
f 116 115 98
f 115 113 98
f 107 1077 1039
f 1035 1077 113
f 107 113 1077
f 98 113 107
f 107 110 98
f 110 105 98
f 1034 1036 110
f 105 110 1036
f 105 1036 1032
f 1032 1031 105
f 112 105 1031
f 98 105 112
f 112 104 98
f 104 1003 98
f 1033 1029 1003
f 103 1003 1029
f 98 1003 103
f 103 1002 98
f 1002 102 98
f 1000 1030 1079
f 1028 1030 102
f 1000 102 1030
f 98 102 1000
f 1000 101 98
f 101 998 98
f 1026 1027 101
f 998 101 1027
f 998 1027 1023
f 1023 1081 998
f 100 998 1081
f 98 998 100
f 100 999 98
f 999 99 98
f 1004 1020 1022
f 1024 1020 99
f 1004 99 1020
f 98 99 1004
f 1004 995 98
f 995 97 98
f 1019 1025 995
f 97 995 1025
f 97 1025 1021
f 1021 1016 97
f 994 97 1016
f 994 1016 1017
f 984 1015 336
f 987 337 1083
f 82 1014 349
f 988 340 1062
f 88 1011 1018
f 986 1010 342
f 985 343 1009
f 989 1088 346
f 990 1090 347
f 993 348 1086
f 992 1008 1091
f 991 358 352
f 1096 1084 983
f 96 983 1084
f 80 79 983
f 1083 1015 987
f 984 987 1015
f 1012 1014 84
f 82 84 1014
f 84 1069 1012
f 1062 1069 988
f 84 988 1069
f 1056 1011 89
f 88 89 1011
f 1013 1010 90
f 986 90 1010
f 90 1067 1013
f 1009 1067 985
f 90 985 1067
f 1065 1088 92
f 989 92 1088
f 1089 1090 93
f 990 93 1090
f 93 1085 1089
f 1086 1085 993
f 93 993 1085
f 353 1008 95
f 992 95 1008
f 96 1084 354
f 354 358 96
f 991 96 358
f 983 96 80
f 96 991 80
f 95 381 353
f 352 381 991
f 95 991 381
f 80 991 95
f 95 992 80
f 992 94 80
f 1091 350 992
f 94 992 350
f 94 350 1087
f 1087 348 94
f 993 94 348
f 80 94 993
f 993 93 80
f 93 990 80
f 92 1061 1065
f 347 1061 990
f 92 990 1061
f 80 990 92
f 92 989 80
f 989 91 80
f 346 1058 989
f 91 989 1058
f 91 1058 345
f 345 343 91
f 985 91 343
f 80 91 985
f 985 90 80
f 90 986 80
f 89 1055 1056
f 342 1055 986
f 89 986 1055
f 80 986 89
f 89 88 80
f 88 87 80
f 1018 341 88
f 87 88 341
f 87 341 351
f 351 340 87
f 988 87 340
f 80 87 988
f 988 84 80
f 84 82 80
f 349 337 82
f 987 82 337
f 80 82 987
f 987 984 80
f 984 79 80
f 336 344 984
f 79 984 344
f 79 344 1097
f 1097 1098 79
f 983 79 1098
f 983 1098 1096
f 72 261 321
f 72 25 261
f 26 1101 262
f 26 429 432
f 430 25 503
f 437 438 74
f 444 73 443
f 129 454 456
f 1122 129 456
f 1122 976 129
f 976 1122 1005
f 1095 1005 28
f 27 28 1005
f 28 323 1095
f 28 29 323
f 1099 322 1121
f 29 1121 322
f 1121 1094 1099
f 1121 30 1094
f 460 540 31
f 30 412 1094
f 31 334 413
f 31 42 334
f 71 328 1093
f 71 70 328
f 129 1100 325
f 1100 129 976
f 1093 333 71
f 982 71 333
f 982 333 973
f 73 75 443
f 76 335 330
f 76 75 335
f 77 437 74
f 332 1101 78
f 26 78 1101
f 78 26 432
f 432 437 77
f 78 432 77
f 78 331 332
f 78 77 331
f 77 1102 331
f 77 1092 1102
f 77 74 1092
f 443 75 76
f 438 443 76
f 74 438 76
f 330 329 76
f 74 76 329
f 74 329 1092
f 75 327 335
f 326 327 73
f 75 73 327
f 73 973 326
f 73 982 973
f 982 73 444
f 71 982 444
f 444 449 71
f 449 70 71
f 454 70 449
f 454 129 70
f 325 324 129
f 70 129 324
f 70 324 328
f 27 1005 1122
f 29 322 323
f 42 275 334
f 41 399 274
f 39 273 400
f 37 278 380
f 166 972 163
f 46 315 316
f 58 266 309
f 58 134 266
f 656 32 134
f 658 33 32
f 33 658 34
f 660 35 34
f 38 35 660
f 36 38 961
f 136 318 272
f 461 36 961
f 969 136 462
f 69 965 25
f 966 965 68
f 966 176 967
f 72 69 25
f 68 965 69
f 69 72 68
f 68 321 1007
f 68 72 321
f 68 1007 320
f 176 966 68
f 176 320 319
f 176 68 320
f 67 319 1006
f 67 176 319
f 67 1006 977
f 136 977 318
f 136 67 977
f 969 67 136
f 176 67 969
f 967 176 969
f 25 965 964
f 503 25 964
f 545 546 45
f 551 552 40
f 43 559 861
f 163 43 861
f 163 861 560
f 974 972 44
f 166 44 972
f 44 316 974
f 44 46 316
f 314 315 172
f 46 172 315
f 172 317 314
f 280 317 47
f 172 47 317
f 563 793 174
f 48 405 284
f 48 177 49
f 569 564 174
f 566 178 565
f 50 292 406
f 50 567 629
f 50 630 633
f 646 51 647
f 54 649 53
f 51 308 287
f 54 293 297
f 1123 975 66
f 1123 664 655
f 665 664 1123
f 962 38 660
f 38 962 961
f 59 928 944
f 934 929 60
f 59 311 302
f 59 64 311
f 303 307 60
f 61 60 307
f 59 944 64
f 64 944 66
f 944 943 66
f 943 665 66
f 66 665 1123
f 66 313 312
f 313 66 975
f 66 312 64
f 64 338 310
f 338 64 312
f 64 310 311
f 63 932 61
f 61 934 60
f 932 934 61
f 63 931 932
f 930 931 63
f 65 930 63
f 62 306 393
f 51 393 308
f 51 62 393
f 51 646 62
f 62 646 930
f 62 930 65
f 62 305 306
f 62 65 305
f 65 978 305
f 971 978 63
f 65 63 978
f 63 304 971
f 63 61 304
f 61 307 304
f 60 428 303
f 302 428 59
f 60 59 428
f 60 929 59
f 929 928 59
f 793 569 174
f 660 34 659
f 34 658 659
f 656 658 32
f 58 656 134
f 655 656 58
f 1123 655 58
f 58 309 301
f 301 300 58
f 1123 58 300
f 1123 300 975
f 1125 289 296
f 1125 651 55
f 651 1125 56
f 1124 298 339
f 1124 56 298
f 1124 57 654
f 57 394 295
f 57 1124 394
f 1124 299 394
f 1124 339 299
f 56 407 298
f 56 296 294
f 56 1125 296
f 56 294 407
f 50 291 292
f 50 295 291
f 50 57 295
f 654 57 50
f 633 654 50
f 1124 654 653
f 56 1124 653
f 653 651 56
f 55 651 650
f 650 649 55
f 649 54 55
f 55 297 290
f 55 54 297
f 290 417 55
f 1125 55 289
f 417 289 55
f 54 288 293
f 54 418 288
f 54 53 418
f 53 286 418
f 53 287 286
f 53 51 287
f 647 51 53
f 53 649 647
f 630 50 628
f 628 50 629
f 567 50 566
f 566 50 178
f 178 406 285
f 178 50 406
f 48 404 405
f 48 49 404
f 49 285 404
f 49 178 285
f 565 178 49
f 564 565 49
f 49 177 564
f 174 564 177
f 177 48 174
f 284 403 48
f 174 48 403
f 174 403 281
f 47 281 280
f 47 174 281
f 47 563 174
f 47 172 563
f 172 562 563
f 561 562 172
f 172 46 561
f 46 44 561
f 44 560 561
f 44 166 560
f 166 163 560
f 163 402 43
f 402 163 972
f 43 279 401
f 279 43 402
f 401 278 43
f 37 43 278
f 559 43 37
f 52 400 276
f 52 39 400
f 276 399 52
f 41 52 399
f 31 540 42
f 540 545 42
f 42 545 45
f 277 275 45
f 42 45 275
f 45 274 277
f 45 41 274
f 546 41 45
f 52 41 546
f 551 52 546
f 39 52 551
f 40 39 551
f 416 273 40
f 39 40 273
f 40 380 416
f 40 37 380
f 552 37 40
f 559 37 552
f 462 136 461
f 136 36 461
f 36 272 271
f 36 136 272
f 38 271 270
f 38 36 271
f 38 270 269
f 35 269 415
f 35 38 269
f 34 415 268
f 34 35 415
f 33 268 414
f 33 34 268
f 32 414 267
f 32 33 414
f 134 267 265
f 134 32 267
f 134 265 266
f 31 413 263
f 30 263 412
f 30 31 263
f 30 460 31
f 30 1121 460
f 1121 459 460
f 458 459 1121
f 1121 29 458
f 29 28 458
f 28 457 458
f 28 27 457
f 27 1122 457
f 1122 456 457
f 429 25 430
f 429 26 25
f 262 264 26
f 25 26 264
f 25 264 261
f 85 223 240
f 10 259 238
f 11 258 237
f 13 236 256
f 15 253 228
f 109 252 1107
f 19 247 251
f 20 1116 1111
f 125 1114 1108
f 24 1105 1119
f 126 1115 1118
f 23 411 1110
f 220 411 7
f 23 7 411
f 8 7 12
f 226 259 83
f 10 83 259
f 410 258 81
f 11 81 258
f 81 255 410
f 256 255 13
f 81 13 255
f 244 253 16
f 15 16 253
f 254 252 18
f 109 18 252
f 18 1117 254
f 251 1117 19
f 18 19 1117
f 1104 1116 114
f 20 114 1116
f 1113 1114 21
f 125 21 1114
f 21 1112 1113
f 1119 1112 24
f 21 24 1112
f 1110 1115 23
f 126 23 1115
f 12 7 23
f 23 126 12
f 126 22 12
f 1118 1109 126
f 22 126 1109
f 22 1109 1106
f 1106 1105 22
f 24 22 1105
f 12 22 24
f 24 21 12
f 21 125 12
f 114 1103 1104
f 1108 1103 125
f 114 125 1103
f 12 125 114
f 114 20 12
f 20 111 12
f 1111 250 20
f 111 20 250
f 111 250 249
f 249 247 111
f 19 111 247
f 12 111 19
f 19 18 12
f 18 109 12
f 16 230 244
f 1107 230 109
f 16 109 230
f 12 109 16
f 16 15 12
f 15 17 12
f 228 235 15
f 17 15 235
f 17 235 227
f 227 236 17
f 13 17 236
f 12 17 13
f 13 81 12
f 81 11 12
f 83 225 226
f 237 225 11
f 83 11 225
f 12 11 83
f 83 10 12
f 10 9 12
f 238 224 10
f 9 10 224
f 9 224 239
f 239 223 9
f 85 9 223
f 12 9 85
f 85 8 12
f 240 221 85
f 8 85 221
f 8 221 241
f 241 242 8
f 7 8 242
f 7 242 220
f 1132 243 408
f 1137 234 218
f 1134 200 217
f 1135 233 184
f 1140 232 216
f 1145 198 215
f 1136 212 185
f 1139 214 213
f 1141 196 210
f 1142 209 186
f 1144 187 208
f 6 206 191
f 3 205 192
f 4 195 409
f 106 207 197
f 5 222 203
f 108 199 202
f 14 219 201
f 179 219 1129
f 14 1129 219
f 1131 1129 1133
f 218 243 1137
f 1132 1137 243
f 217 234 1134
f 1137 1134 234
f 216 233 1140
f 1135 1140 233
f 215 232 1145
f 1140 1145 232
f 213 212 1139
f 1136 1139 212
f 210 214 1141
f 1139 1141 214
f 211 209 1143
f 1142 1143 209
f 1143 231 211
f 208 231 1144
f 1143 1144 231
f 194 206 1
f 6 1 206
f 229 205 86
f 3 86 205
f 86 204 229
f 409 204 4
f 86 4 204
f 203 207 5
f 106 5 207
f 202 222 108
f 5 108 222
f 1129 14 1133
f 201 199 14
f 108 14 199
f 1133 14 108
f 108 5 1133
f 5 106 1133
f 197 195 106
f 4 106 195
f 1133 106 4
f 4 86 1133
f 86 3 1133
f 1 190 194
f 192 190 3
f 1 3 190
f 1133 3 1
f 1 6 1133
f 6 2 1133
f 191 188 6
f 2 6 188
f 2 188 193
f 193 187 2
f 1144 2 187
f 1133 2 1144
f 1144 1143 1133
f 1143 1142 1133
f 186 196 1142
f 1141 1142 196
f 1133 1142 1141
f 1141 1139 1133
f 1139 1136 1133
f 185 198 1136
f 1145 1136 198
f 1133 1136 1145
f 1145 1140 1133
f 1140 1135 1133
f 184 200 1135
f 1134 1135 200
f 1133 1135 1134
f 1134 1137 1133
f 1137 1132 1133
f 1133 1132 1131
f 408 180 1132
f 1131 1132 180
f 1131 180 423
f 423 173 1131
f 1129 1131 173
f 1129 173 179
f 1146 143 183
f 1149 171 146
f 1150 170 245
f 1165 148 175
f 1164 168 246
f 1163 167 152
f 1162 153 165
f 1160 426 155
f 1151 162 156
f 1130 157 161
f 1128 159 420
f 141 160 1147
f 1138 1147 160
f 1152 1147 1148
f 149 171 1161
f 1149 1161 171
f 169 170 1154
f 1150 1154 170
f 1154 425 169
f 175 425 1165
f 1154 1165 425
f 257 168 1157
f 1164 1157 168
f 424 167 1158
f 1163 1158 167
f 1158 164 424
f 165 164 1162
f 1158 1162 164
f 283 426 1155
f 1160 1155 426
f 427 162 1127
f 1151 1127 162
f 1127 422 427
f 161 422 1130
f 1127 1130 422
f 1138 160 421
f 421 159 1138
f 1128 1138 159
f 1148 1147 1138
f 1138 1128 1148
f 1128 1126 1148
f 420 158 1128
f 1126 1128 158
f 1126 158 419
f 419 157 1126
f 1130 1126 157
f 1148 1126 1130
f 1130 1127 1148
f 1127 1151 1148
f 1155 282 283
f 156 282 1151
f 1155 1151 282
f 1148 1151 1155
f 1155 1160 1148
f 1160 1159 1148
f 155 260 1160
f 1159 1160 260
f 1159 260 154
f 154 153 1159
f 1162 1159 153
f 1148 1159 1162
f 1162 1158 1148
f 1158 1163 1148
f 1157 248 257
f 152 248 1163
f 1157 1163 248
f 1148 1163 1157
f 1157 1164 1148
f 1164 1156 1148
f 246 151 1164
f 1156 1164 151
f 1156 151 150
f 150 148 1156
f 1165 1156 148
f 1148 1156 1165
f 1165 1154 1148
f 1154 1150 1148
f 1161 147 149
f 245 147 1150
f 1161 1150 147
f 1148 1150 1161
f 1161 1149 1148
f 1149 1153 1148
f 146 144 1149
f 1153 1149 144
f 1153 144 189
f 189 143 1153
f 1146 1153 143
f 1148 1153 1146
f 1146 1152 1148
f 183 142 1146
f 1152 1146 142
f 1152 142 182
f 182 181 1152
f 1147 1152 181
f 1147 181 141
f 150 386 148
f 227 386 236
f 148 386 175
f 386 1013 169
f 236 386 256
f 386 215 384
f 175 386 425
f 256 386 255
f 255 386 410
f 425 386 169
f 386 257 215
f 1046 386 244
f 384 410 386
f 264 262 1057
f 262 1101 1021
f 1101 332 337
f 332 331 1083
f 331 1102 336
f 1102 1092 344
f 1092 329 1096
f 329 330 335
f 1092 1096 1098
f 329 335 352
f 327 973 350
f 327 326 973
f 973 1087 350
f 333 328 1085
f 327 350 1091
f 328 1089 1085
f 324 325 1100
f 328 324 1089
f 324 1100 976
f 976 1005 347
f 1005 1095 323
f 1005 189 1061
f 323 322 183
f 322 1099 183
f 1099 1094 183
f 412 263 155
f 263 413 260
f 413 334 154
f 334 275 408
f 275 277 274
f 1094 412 419
f 274 399 423
f 399 276 400
f 274 423 180
f 400 273 201
f 273 416 380
f 399 173 423
f 413 154 260
f 278 279 402
f 380 222 202
f 278 402 195
f 402 229 204
f 972 316 190
f 278 207 203
f 316 206 194
f 315 188 191
f 314 366 379
f 317 396 363
f 314 317 366
f 317 280 396
f 403 361 396
f 281 403 396
f 405 406 361
f 284 405 361
f 405 404 406
f 406 292 359
f 292 291 359
f 291 295 394
f 403 284 361
f 394 299 339
f 314 374 370
f 339 298 294
f 298 407 294
f 280 281 396
f 294 296 359
f 296 289 359
f 289 417 359
f 417 290 297
f 314 370 373
f 297 293 288
f 315 191 206
f 317 367 366
f 286 308 378
f 317 365 377
f 308 398 397
f 315 314 188
f 306 388 382
f 306 305 1106
f 305 978 1079
f 971 307 1052
f 971 304 307
f 417 364 359
f 307 303 1026
f 428 311 1026
f 306 220 242
f 311 338 1026
f 305 1105 1106
f 311 310 338
f 303 428 1026
f 313 1027 1026
f 975 1023 1027
f 300 301 1023
f 301 309 1023
f 309 266 1023
f 266 270 271
f 313 975 1027
f 266 271 272
f 265 267 270
f 268 269 270
f 338 312 1026
f 268 415 269
f 266 265 270
f 266 318 1023
f 266 272 318
f 318 977 1081
f 977 1006 1081
f 1006 319 320
f 267 414 270
f 320 1007 1053
f 1007 321 261
f 335 381 352
f 1006 320 1053
f 1074 1078 210
f 1078 1080 214
f 1080 1082 213
f 1082 1060 212
f 1074 210 196
f 1060 1063 185
f 1063 387 198
f 1082 212 213
f 387 384 215
f 384 383 410
f 387 215 198
f 383 390 410
f 390 1064 237
f 1064 1068 237
f 1068 1066 226
f 1078 214 210
f 1066 355 226
f 355 389 238
f 390 237 258
f 389 357 238
f 357 356 239
f 356 388 239
f 306 1110 411
f 1068 225 237
f 306 1115 1110
f 306 1106 1109
f 1060 185 212
f 306 240 388
f 306 242 241
f 306 1109 1118
f 393 306 398
f 406 359 360
f 291 394 359
f 306 411 220
f 306 382 398
f 308 393 398
f 417 297 364
f 308 397 378
f 286 287 308
f 357 239 224
f 297 378 364
f 288 418 286
f 394 339 294
f 297 288 378
f 288 286 378
f 314 372 391
f 317 376 375
f 317 395 367
f 314 369 372
f 314 208 187
f 314 193 188
f 1063 198 185
f 972 190 192
f 406 360 361
f 972 205 229
f 278 195 197
f 402 972 229
f 391 392 231
f 371 385 209
f 385 1076 186
f 262 1024 1059
f 262 1020 1024
f 1007 261 1071
f 262 1022 1020
f 1007 1071 1053
f 262 1070 1022
f 414 268 270
f 262 1019 1070
f 262 1059 1057
f 428 302 311
f 262 1025 1019
f 262 1021 1025
f 307 1026 1052
f 971 1052 1079
f 305 1116 1104
f 305 1104 1103
f 318 1081 1023
f 1006 1053 1081
f 305 1108 1114
f 305 1103 1108
f 305 1112 1119
f 305 1079 1030
f 1054 1050 249
f 1050 1051 251
f 1051 1049 251
f 1049 1029 254
f 1101 1041 1037
f 1029 1033 254
f 1033 1047 1107
f 1049 254 1117
f 1047 1073 1107
f 1073 1048 244
f 1050 251 247
f 1048 1046 244
f 1046 1031 1010
f 1031 1032 342
f 1032 1036 1055
f 1046 1010 1013
f 1036 1034 1056
f 1034 1044 1011
f 1036 1056 1055
f 1044 1039 1018
f 1039 1077 341
f 1077 1035 351
f 1035 1043 340
f 1039 341 1018
f 1043 1045 1062
f 1045 1075 1069
f 1077 351 341
f 1075 1041 1012
f 331 1015 1083
f 1031 342 1010
f 1101 1017 1016
f 1101 349 1014
f 1033 1107 252
f 1092 1097 344
f 1101 1040 1072
f 1092 1098 1097
f 1101 1038 1042
f 1101 1042 1040
f 1101 1012 1041
f 335 327 353
f 1034 1011 1056
f 1043 1062 340
f 1032 1055 342
f 1101 337 349
f 975 300 1023
f 264 1057 1071
f 331 336 1015
f 1101 1072 1017
f 1033 252 254
f 1028 250 1111
f 1073 230 1107
f 332 1083 337
f 1050 247 249
f 1028 1054 249
f 1035 340 351
f 1073 244 230
f 978 971 1079
f 305 1028 1111
f 1013 1067 169
f 1067 1009 169
f 1009 343 245
f 343 345 245
f 345 1058 149
f 1058 346 149
f 346 1088 146
f 1028 249 250
f 1088 1065 146
f 1065 1061 189
f 1045 1069 1062
f 323 183 143
f 1094 420 159
f 1094 158 420
f 323 143 189
f 386 1046 1013
f 333 1085 1086
f 1094 181 182
f 1005 323 189
f 324 347 1090
f 324 1090 1089
f 263 260 155
f 329 1084 1096
f 1101 1037 1038
f 1094 182 142
f 329 352 358
f 329 354 1084
f 1094 159 421
f 333 1086 348
f 346 146 171
f 333 348 1087
f 1009 245 170
f 345 147 245
f 973 333 1087
f 333 1093 328
f 404 285 406
f 306 1118 1115
f 1080 213 214
f 388 223 239
f 1074 196 1076
f 314 373 369
f 314 187 193
f 278 197 207
f 317 377 376
f 306 221 240
f 355 259 226
f 392 371 211
f 1068 226 225
f 1076 196 186
f 227 235 386
f 235 228 386
f 228 253 386
f 253 244 386
f 1094 419 158
f 1094 142 183
f 329 358 354
f 972 192 205
f 305 1113 1112
f 1009 170 169
f 1065 189 144
f 327 1091 1008
f 317 375 395
f 1094 421 160
f 1005 1061 347
f 1065 144 146
f 355 238 259
f 1075 1012 1069
f 1101 1014 1012
f 305 1114 1113
f 305 1030 1028
f 1102 344 336
f 312 313 1026
f 345 149 147
f 305 1119 1105
f 324 976 347
f 394 294 359
f 388 240 223
f 390 258 410
f 385 186 209
f 412 161 157
f 412 282 156
f 275 180 408
f 408 243 154
f 412 156 162
f 243 218 154
f 218 234 165
f 234 217 165
f 217 200 424
f 200 184 424
f 184 233 152
f 233 216 152
f 216 232 257
f 232 215 257
f 335 353 381
f 216 257 248
f 371 209 211
f 150 151 386
f 168 257 386
f 218 165 153
f 246 168 386
f 217 424 164
f 391 231 208
f 217 164 165
f 278 401 279
f 392 211 231
f 314 391 208
f 184 152 167
f 216 248 152
f 316 315 206
f 317 363 362
f 317 362 365
f 314 368 374
f 972 974 316
f 316 194 190
f 402 204 409
f 402 409 195
f 399 400 179
f 380 278 203
f 314 379 368
f 327 1008 353
f 399 179 173
f 273 199 201
f 412 426 283
f 1049 1117 251
f 1044 1018 1011
f 305 1111 1116
f 346 171 149
f 306 241 221
f 357 224 238
f 151 246 386
f 1101 1016 1021
f 1094 141 181
f 400 201 219
f 273 380 202
f 184 167 424
f 412 283 282
f 1094 160 141
f 218 153 154
f 412 157 419
f 412 162 427
f 400 219 179
f 412 422 161
f 273 202 199
f 412 427 422
f 412 155 426
f 380 203 222
f 334 408 154
f 275 274 180
f 264 1071 261

